<svg xmlns="http://www.w3.org/2000/svg" width="900" height="900" style="background:#09006E"><title>logo copy 2</title><desc>Created with Sketch.</desc><defs><linearGradient id="a" x1="61.994%" x2="98.424%" y1="50%" y2="50%"><stop stop-color="#09006E" offset="15.027%"/><stop stop-color="#00FFD9" offset="100%"/></linearGradient><linearGradient id="b" x1="0%" x2="98.424%" y1="50%" y2="50%"><stop stop-color="#09006E" offset="0%"/><stop stop-color="#064E8F" offset="45.31%"/><stop stop-color="#00FFD9" offset="100%"/></linearGradient></defs><g fill="none"><circle cx="246" cy="476" r="189" fill="#fff"/><rect id="Rectangle" width="312.471" height="61.304" x="168.428" y="354.948" fill="url(#a)" transform="rotate(-60 324.663 385.6)" rx="30.652"/><path fill="#09006E" d="M306.6 578l-.6-95.7-45.6 76.8h-31.2l-45.6-73.5V578h-64.5V368h58.2l68.4 111.9L312.3 368h58.2l.6 210z"/><rect width="239.104" height="61.304" x="193.855" y="374.445" fill="url(#b)" transform="rotate(-60 313.407 405.097)" rx="30.652"/><path fill="#fff" d="M521.16 423l-.08-32.76-16.07 27h-5.68l-16-26.3V423h-11.85v-54.6h10.46l20.43 33.93 20.13-33.93h10.36l.16 54.6h-11.86zm40.87-42.6c6.5 0 11.5 1.56 14.98 4.65 3.5 3.1 5.23 7.76 5.23 14V423h-11.38v-5.23c-2.3 3.9-6.56 5.85-12.8 5.85-3.22 0-6-.54-8.38-1.63-2.37-1.1-4.17-2.6-5.42-4.54-1.25-1.92-1.87-4.1-1.87-6.55 0-3.9 1.46-6.96 4.4-9.2 2.94-2.23 7.48-3.35 13.6-3.35h9.7c0-2.65-.82-4.7-2.43-6.12-1.6-1.43-4.03-2.15-7.26-2.15-2.24 0-4.44.35-6.6 1.06-2.16.7-4 1.65-5.5 2.84l-4.36-8.5c2.28-1.6 5.03-2.86 8.22-3.74 3.2-.9 6.5-1.33 9.87-1.33zm-.93 35.03c2.08 0 3.92-.48 5.53-1.44 1.62-.97 2.76-2.4 3.44-4.26v-4.3h-8.35c-5 0-7.5 1.65-7.5 4.92 0 1.56.62 2.8 1.85 3.7 1.22.92 2.9 1.37 5.03 1.37zm52.88 8.2c-4.47 0-8.5-.93-12.05-2.77-3.56-1.85-6.34-4.4-8.35-7.7-2-3.26-3-6.98-3-11.14s1-7.88 3-11.16c2-3.27 4.8-5.83 8.35-7.68 3.56-1.85 7.58-2.77 12.05-2.77 4.42 0 8.28.93 11.58 2.78 3.3 1.85 5.7 4.5 7.22 7.92l-9.44 5.07c-2.18-3.85-5.33-5.77-9.44-5.77-3.17 0-5.8 1.04-7.88 3.12s-3.12 4.9-3.12 8.5c0 3.6 1.04 6.42 3.12 8.5s4.7 3.12 7.88 3.12c4.16 0 7.3-1.92 9.44-5.77l9.44 5.15c-1.5 3.32-3.9 5.92-7.22 7.8-3.3 1.87-7.16 2.8-11.58 2.8zm51-43.22c5.2 0 9.4 1.57 12.6 4.7 3.2 3.1 4.8 7.74 4.8 13.88V423h-12.16v-22.15c0-3.33-.73-5.8-2.2-7.45-1.44-1.64-3.55-2.46-6.3-2.46-3.07 0-5.52.95-7.34 2.85-1.82 1.9-2.73 4.7-2.73 8.45V423H639.5v-57.88h12.15v20.28c1.62-1.6 3.57-2.84 5.85-3.7 2.3-.86 4.8-1.3 7.5-1.3zm28.4.64h12.17V423h-12.17v-41.96zm6.1-5.85c-2.25 0-4.07-.66-5.47-1.96-1.4-1.3-2.1-2.92-2.1-4.84s.7-3.54 2.1-4.84c1.4-1.3 3.23-1.95 5.47-1.95 2.23 0 4.05.64 5.46 1.9 1.4 1.23 2.1 2.8 2.1 4.67 0 2.02-.7 3.7-2.1 5.03-1.4 1.32-3.23 2-5.46 2zm42.9 5.2c5.2 0 9.4 1.57 12.6 4.7 3.18 3.1 4.78 7.74 4.78 13.88V423H747.6v-22.15c0-3.33-.73-5.8-2.2-7.45-1.45-1.64-3.55-2.46-6.3-2.46-3.08 0-5.52.95-7.34 2.85-1.82 1.9-2.73 4.7-2.73 8.45V423h-12.17v-41.96h11.62v4.9c1.62-1.76 3.62-3.12 6-4.08 2.4-.97 5.03-1.45 7.9-1.45zm69.95 21.77c0 .16-.07 1.25-.23 3.28h-31.75c.58 2.6 1.93 4.65 4.06 6.16 2.14 1.52 4.8 2.27 7.97 2.27 2.18 0 4.12-.32 5.8-.97 1.7-.65 3.27-1.68 4.73-3.08l6.47 7.02c-3.95 4.52-9.72 6.78-17.32 6.78-4.73 0-8.9-.92-12.55-2.76-3.64-1.85-6.45-4.4-8.43-7.7-1.97-3.26-2.96-6.98-2.96-11.14 0-4.1.98-7.8 2.93-11.12 1.95-3.3 4.63-5.87 8.04-7.72 3.4-1.85 7.2-2.77 11.42-2.77 4.1 0 7.82.9 11.15 2.66 3.33 1.77 5.94 4.3 7.84 7.6 1.9 3.3 2.83 7.15 2.83 11.5zm-21.76-12.55c-2.75 0-5.07.78-6.94 2.34-1.87 1.56-3.02 3.7-3.43 6.4h20.67c-.42-2.66-1.56-4.78-3.43-6.37-1.88-1.6-4.16-2.38-6.87-2.38zM505.87 500l-13.18-18.95L479.73 500h-14.5l20.2-27.77-19.2-26.83h14.36l12.56 17.7 12.32-17.7h13.65l-19.03 26.36L520.46 500h-14.6zm38.38.62c-4.47 0-8.5-.92-12.05-2.76-3.57-1.85-6.35-4.4-8.35-7.7-2-3.26-3-6.98-3-11.14s1-7.88 3-11.16c2-3.27 4.78-5.83 8.35-7.68 3.56-1.85 7.58-2.77 12.05-2.77 4.42 0 8.28.93 11.58 2.78 3.3 1.85 5.7 4.5 7.22 7.92l-9.44 5.07c-2.18-3.85-5.32-5.77-9.43-5.77-3.17 0-5.8 1.04-7.88 3.12-2.1 2.08-3.13 4.9-3.13 8.5 0 3.6 1.04 6.42 3.12 8.5 2.07 2.08 4.7 3.12 7.87 3.12 4.16 0 7.3-1.92 9.44-5.77l9.45 5.15c-1.5 3.32-3.92 5.92-7.22 7.8-3.3 1.87-7.16 2.8-11.58 2.8zm51-43.2c5.2 0 9.4 1.55 12.6 4.67 3.2 3.1 4.8 7.74 4.8 13.88V500H600.5v-22.15c0-3.33-.74-5.8-2.2-7.45-1.45-1.64-3.56-2.46-6.32-2.46-3.06 0-5.5.95-7.33 2.85-1.82 1.9-2.73 4.7-2.73 8.45V500h-12.17v-57.88h12.17v20.28c1.6-1.6 3.56-2.84 5.85-3.7 2.3-.86 4.8-1.3 7.5-1.3zm45.33 0c6.5 0 11.5 1.54 14.97 4.63 3.5 3.1 5.23 7.76 5.23 14V500h-11.4v-5.23c-2.28 3.9-6.54 5.85-12.78 5.85-3.22 0-6.02-.54-8.38-1.63-2.37-1.1-4.18-2.6-5.43-4.54-1.25-1.92-1.88-4.1-1.88-6.55 0-3.9 1.47-6.96 4.4-9.2 2.95-2.23 7.48-3.35 13.62-3.35h9.67c0-2.65-.8-4.7-2.4-6.12-1.62-1.43-4.04-2.15-7.26-2.15-2.24 0-4.43.35-6.6 1.06-2.15.7-3.98 1.65-5.5 2.84l-4.36-8.5c2.3-1.6 5.03-2.86 8.23-3.74 3.2-.9 6.5-1.33 9.88-1.33zm-.94 35c2.08 0 3.93-.47 5.54-1.43 1.6-.97 2.76-2.4 3.43-4.26v-4.3h-8.33c-5 0-7.5 1.65-7.5 4.92 0 1.56.62 2.8 1.84 3.7 1.23.92 2.9 1.37 5.04 1.37zm57.64-35c5.2 0 9.4 1.55 12.6 4.67 3.2 3.1 4.8 7.74 4.8 13.88V500H702.5v-22.15c0-3.33-.72-5.8-2.17-7.45-1.46-1.64-3.57-2.46-6.32-2.46-3.06 0-5.5.95-7.32 2.85-1.82 1.9-2.73 4.7-2.73 8.45V500h-12.17v-41.96h11.62v4.9c1.6-1.76 3.6-3.12 6-4.08 2.4-.97 5.02-1.45 7.88-1.45zm72.15.62v34.94c0 7.7-2 13.42-6 17.16s-9.86 5.62-17.55 5.62c-4.06 0-7.9-.5-11.55-1.5-3.64-.97-6.65-2.4-9.04-4.28l4.82-8.73c1.77 1.45 4 2.6 6.7 3.47 2.7.86 5.42 1.3 8.12 1.3 4.2 0 7.32-.96 9.32-2.86s3-4.77 3-8.62v-1.8c-3.17 3.5-7.6 5.23-13.25 5.23-3.84 0-7.36-.84-10.56-2.53-3.2-1.7-5.74-4.07-7.6-7.14-1.88-3.07-2.82-6.6-2.82-10.6s.94-7.55 2.8-10.62c1.88-3.06 4.42-5.44 7.62-7.13 3.2-1.7 6.72-2.54 10.57-2.54 6.1 0 10.72 2 13.9 6.02v-5.38h11.53zm-23 29.95c3.22 0 5.86-.96 7.9-2.86 2.07-1.9 3.1-4.38 3.1-7.45 0-3.08-1.03-5.56-3.1-7.46-2.04-1.9-4.68-2.84-7.9-2.84-3.23 0-5.88.94-7.96 2.84s-3.12 4.38-3.12 7.45c0 3.06 1.04 5.54 3.12 7.44 2.08 1.9 4.73 2.85 7.95 2.85zm75.42-8.83c0 .16-.08 1.25-.23 3.28h-31.75c.57 2.6 1.92 4.65 4.06 6.16 2.13 1.52 4.78 2.27 7.95 2.27 2.2 0 4.12-.32 5.8-.97 1.7-.65 3.28-1.68 4.73-3.08l6.5 7.02c-3.97 4.52-9.74 6.78-17.33 6.78-4.73 0-8.92-.92-12.56-2.76-3.63-1.85-6.44-4.4-8.4-7.7-2-3.26-2.98-6.98-2.98-11.14 0-4.1.98-7.8 2.93-11.12 1.95-3.3 4.63-5.87 8.03-7.72 3.4-1.85 7.22-2.77 11.43-2.77 4.12 0 7.84.9 11.16 2.66 3.33 1.77 5.94 4.3 7.84 7.6 1.9 3.3 2.85 7.15 2.85 11.5zm-21.76-12.55c-2.77 0-5.08.78-6.95 2.34-1.88 1.56-3.02 3.7-3.44 6.4h20.68c-.4-2.66-1.56-4.78-3.43-6.37-1.87-1.6-4.16-2.38-6.86-2.38zM497.6 577.94c-5.56 0-10.6-1.2-15.1-3.63-4.5-2.4-8.02-5.76-10.6-10.05-2.57-4.3-3.86-9.14-3.86-14.55 0-5.4 1.3-10.26 3.86-14.55 2.58-4.3 6.1-7.64 10.6-10.06 4.5-2.43 9.57-3.64 15.18-3.64 4.73 0 9 .84 12.83 2.5 3.84 1.66 7.05 4.06 9.65 7.18l-8.12 7.48c-3.7-4.26-8.26-6.4-13.72-6.4-3.37 0-6.4.75-9.04 2.23-2.65 1.48-4.72 3.55-6.2 6.2-1.5 2.65-2.23 5.67-2.23 9.05 0 3.38.74 6.4 2.23 9.05 1.48 2.65 3.55 4.72 6.2 6.2 2.65 1.48 5.67 2.22 9.05 2.22 5.47 0 10.04-2.16 13.73-6.47l8.12 7.5c-2.6 3.16-5.83 5.58-9.68 7.24-3.84 1.66-8.13 2.5-12.87 2.5zm48.68-.32c-4.42 0-8.4-.92-11.9-2.76-3.5-1.85-6.25-4.4-8.23-7.7-1.97-3.26-2.96-6.98-2.96-11.14s.98-7.88 2.95-11.16c1.98-3.27 4.72-5.83 8.23-7.68 3.5-1.85 7.48-2.77 11.9-2.77s8.37.93 11.85 2.78c3.5 1.85 6.22 4.4 8.2 7.68 1.97 3.28 2.96 7 2.96 11.16s-1 7.88-2.98 11.15c-1.97 3.28-4.7 5.84-8.2 7.7-3.47 1.83-7.42 2.75-11.84 2.75zm0-9.98c3.12 0 5.68-1.05 7.68-3.16 2-2.1 3-4.93 3-8.46 0-3.54-1-6.36-3-8.47-2-2.1-4.56-3.15-7.68-3.15s-5.7 1.05-7.73 3.15c-2.02 2.1-3.04 4.93-3.04 8.47 0 3.53 1.03 6.35 3.05 8.46 2.03 2.1 4.6 3.16 7.73 3.16zm31.12-32.6h12.17V577H577.4v-41.96zm6.08-5.85c-2.23 0-4.05-.66-5.46-1.96-1.4-1.3-2.1-2.92-2.1-4.84s.7-3.54 2.1-4.84c1.4-1.3 3.23-1.95 5.46-1.95 2.24 0 4.06.64 5.46 1.9 1.4 1.23 2.1 2.8 2.1 4.67 0 2.02-.7 3.7-2.1 5.03-1.4 1.32-3.22 2-5.46 2zm42.9 5.2c5.2 0 9.4 1.57 12.6 4.7 3.2 3.1 4.8 7.74 4.8 13.88V577H631.6v-22.15c0-3.33-.72-5.8-2.18-7.45-1.45-1.64-3.56-2.46-6.3-2.46-3.08 0-5.53.95-7.35 2.85-1.82 1.9-2.73 4.7-2.73 8.45V577h-12.16v-41.96h11.62v4.9c1.6-1.76 3.6-3.12 6-4.1 2.4-.95 5.02-1.43 7.88-1.43z"/></g></svg>