<svg xmlns="http://www.w3.org/2000/svg" width="900" height="900"><title>logo_outlines</title><desc>Created with Sketch.</desc><defs><linearGradient id="a" x1="61.994%" x2="98.424%" y1="50%" y2="50%"><stop stop-color="#09006E" offset="15.027%"/><stop stop-color="#00FFD9" offset="100%"/></linearGradient><linearGradient id="b" x1="0%" x2="98.424%" y1="50%" y2="50%"><stop stop-color="#09006E" offset="0%"/><stop stop-color="#064E8F" offset="45.31%"/><stop stop-color="#00FFD9" offset="100%"/></linearGradient></defs><g fill="none"><rect id="Rectangle" width="312.471" height="61.304" x="151.428" y="360.948" fill="url(#a)" transform="rotate(-60 307.663 391.6)" rx="30.652"/><path fill="#09006E" d="M289.6 584l-.6-95.7-45.6 76.8h-31.2l-45.6-73.5V584h-64.5V374h58.2l68.4 111.9L295.3 374h58.2l.6 210h-64.5zm231.6 0l-36.3-56.1-35.4 56.1h-80.7l75.9-105.9L371.5 374H451l35.7 52.8 34.8-52.8h76.2l-72.9 101.4L602.2 584h-81zm196.8 4.8c-22.2 0-42.2-4.65-60-13.95-17.8-9.3-31.75-22.3-41.85-39C606.05 519.15 601 500.2 601 479c0-21.2 5.05-40.15 15.15-56.85 10.1-16.7 24.05-29.7 41.85-39s37.8-13.95 60-13.95c20.4 0 38.6 3.6 54.6 10.8 16 7.2 29.2 17.6 39.6 31.2l-44.7 39.9c-13-16.4-28.3-24.6-45.9-24.6-14.8 0-26.7 4.75-35.7 14.25-9 9.5-13.5 22.25-13.5 38.25s4.5 28.75 13.5 38.25 20.9 14.25 35.7 14.25c17.6 0 32.9-8.2 45.9-24.6l44.7 39.9c-10.4 13.6-23.6 24-39.6 31.2-16 7.2-34.2 10.8-54.6 10.8z"/><rect width="239.104" height="61.304" x="176.855" y="380.445" fill="url(#b)" transform="rotate(-60 296.407 411.097)" rx="30.652"/></g></svg>