<?xml version="1.0" encoding="utf-8"?>
<!-- Generator: Adobe Illustrator 23.0.6, SVG Export Plug-In . SVG Version: 6.00 Build 0)  -->
<svg version="1.1" id="Layer_1" xmlns="http://www.w3.org/2000/svg" xmlns:xlink="http://www.w3.org/1999/xlink" x="0px" y="0px"
	 viewBox="0 0 1000 1000" style="enable-background:new 0 0 1000 1000;" xml:space="preserve">
<style type="text/css">
	.st0{fill:#00FFD9;}
	.st1{fill:none;stroke:#00FFD9;stroke-width:8;stroke-linecap:round;stroke-linejoin:round;stroke-miterlimit:10;}
	.st2{fill:none;stroke:#00FFD9;stroke-width:10.6667;stroke-linecap:round;stroke-linejoin:round;stroke-miterlimit:10;}
	.st3{fill:none;stroke:#00FFD9;stroke-width:20;stroke-linecap:round;stroke-linejoin:round;}
	.st4{fill:none;stroke:#00FFD9;stroke-width:20;stroke-miterlimit:10;}
	.st5{fill:none;stroke:#00FFD9;stroke-width:20;stroke-linecap:round;stroke-miterlimit:10;}
</style>
<g>
	<g>
		<circle class="st4" cx="499.9" cy="445.3" r="45.6"/>
		<path class="st5" d="M432.7,581.5c0-38.2,31-69.2,69.2-69.2s69.2,31,69.2,69.2"/>
	</g>
	<g>
		<g>
			<g>
				<path class="st1" d="M573.8,171.2c0,2.1-0.5,4.2-1.6,6.1l-11.8,20.4c1.1-1.9,1.6-4,1.6-6.1c0-4.2-2.2-8.3-6.1-10.5
					c-5.8-3.4-13.2-1.4-16.6,4.4l11.7-20.3c3.4-5.8,10.8-7.8,16.6-4.5C571.6,162.9,573.8,167,573.8,171.2z"/>
				<path class="st1" d="M560.4,197.6l-5.6,9.8h0.1l0.2,83.4h-25.6l-0.2-38l-18.1,30.5h-12.4l-18.1-29.2v36.7h-25.6v-83.4h23.1
					l24.9,40.8l0.1,0.1c0.2-0.6,0.5-1.2,0.8-1.7l35.3-61.1c0,0,0,0,0-0.1c3.4-5.8,10.8-7.7,16.6-4.4c3.9,2.3,6.1,6.3,6.1,10.5
					C562,193.6,561.5,195.7,560.4,197.6z"/>
			</g>
			<g>
				<circle class="st1" cx="505.7" cy="227.9" r="100"/>
			</g>
		</g>
		<g>
			<g>
				<path class="st1" d="M568.1,723.6c0,2.1-0.5,4.2-1.6,6.1L554.7,750c1.1-1.9,1.6-4,1.6-6.1c0-4.2-2.2-8.3-6.1-10.5
					c-5.8-3.4-13.2-1.4-16.6,4.4l11.7-20.3c3.4-5.8,10.8-7.8,16.6-4.5C565.9,715.3,568.1,719.4,568.1,723.6z"/>
				<path class="st1" d="M554.7,750l-5.6,9.8h0.1l0.2,83.4h-25.6l-0.2-38l-18.1,30.5h-12.4L475,806.5v36.7h-25.6v-83.4h23.1
					l24.9,40.8l0.1,0.1c0.2-0.6,0.5-1.2,0.8-1.7l35.3-61.1c0,0,0,0,0-0.1c3.4-5.8,10.8-7.7,16.6-4.4c3.9,2.3,6.1,6.3,6.1,10.5
					C556.3,746,555.8,748.1,554.7,750z"/>
			</g>
			<g>
				<circle class="st1" cx="500" cy="780.3" r="100"/>
			</g>
		</g>
	</g>
	<g>
		<g>
			<g>
				<path class="st1" d="M261.8,443.3c0,2.1-0.5,4.2-1.6,6.1l-11.8,20.4c1.1-1.9,1.6-4,1.6-6.1c0-4.2-2.2-8.3-6.1-10.5
					c-5.8-3.4-13.2-1.4-16.6,4.4l11.7-20.3c3.4-5.8,10.8-7.8,16.6-4.5C259.6,435,261.8,439.1,261.8,443.3z"/>
				<path class="st1" d="M248.4,469.7l-5.6,9.8h0.1l0.2,83.4h-25.6l-0.2-38l-18.1,30.5h-12.4l-18.1-29.2v36.7h-25.6v-83.4h23.1
					l24.9,40.8l0.1,0.1c0.2-0.6,0.5-1.2,0.8-1.7l35.3-61.1c0,0,0,0,0-0.1c3.4-5.8,10.8-7.7,16.6-4.4c3.9,2.3,6.1,6.3,6.1,10.5
					C250,465.7,249.5,467.8,248.4,469.7z"/>
			</g>
			<g>
				<circle class="st1" cx="193.7" cy="500" r="100"/>
			</g>
		</g>
		<g>
			<g>
				<path class="st1" d="M874.4,443.3c0,2.1-0.5,4.2-1.6,6.1L861,469.7c1.1-1.9,1.6-4,1.6-6.1c0-4.2-2.2-8.3-6.1-10.5
					c-5.8-3.4-13.2-1.4-16.6,4.4l11.7-20.3c3.4-5.8,10.8-7.8,16.6-4.5C872.2,435,874.4,439.1,874.4,443.3z"/>
				<path class="st1" d="M861,469.7l-5.6,9.8h0.1l0.2,83.4h-25.6l-0.2-38l-18.1,30.5h-12.4l-18.1-29.2v36.7h-25.6v-83.4h23.1
					l24.9,40.8l0.1,0.1c0.2-0.6,0.5-1.2,0.8-1.7l35.3-61.1c0,0,0,0,0-0.1c3.4-5.8,10.8-7.7,16.6-4.4c3.9,2.3,6.1,6.3,6.1,10.5
					C862.6,465.7,862.1,467.8,861,469.7z"/>
			</g>
			<g>
				<circle class="st1" cx="806.3" cy="500" r="100"/>
			</g>
		</g>
	</g>
	<g>
		<g>
			<g>
				<path class="st5" d="M360.8,355.7c-16.2-17.3-23.2-43-18.7-66.2c4.3-22.1,17.9-36.2,24.3-42.1"/>
				<g>
					<polygon class="st0" points="369.5,323.4 399,375.5 339.2,375 					"/>
				</g>
			</g>
		</g>
		<g>
			<g>
				<path class="st5" d="M642.8,639c16.2,17.3,23.2,43,18.7,66.2c-4.3,22.1-17.9,36.2-24.3,42.1"/>
				<g>
					<polygon class="st0" points="634.1,671.2 604.5,619.2 664.4,619.6 					"/>
				</g>
			</g>
		</g>
	</g>
	<g>
		<g>
			<g>
				<path class="st5" d="M359,637.2c-17.4,16.1-43.2,22.9-66.3,18.2c-22.1-4.5-36.1-18.2-41.9-24.7"/>
				<g>
					<polygon class="st0" points="326.9,628.2 379.1,599.1 378.2,658.9 					"/>
				</g>
			</g>
		</g>
		<g>
			<g>
				<path class="st5" d="M644.5,357.4c17.4-16.1,43.2-22.9,66.3-18.2c22.1,4.5,36.1,18.2,41.9,24.7"/>
				<g>
					<polygon class="st0" points="676.7,366.4 624.4,395.5 625.3,335.7 					"/>
				</g>
			</g>
		</g>
	</g>
</g>
</svg>
