<?xml version="1.0" encoding="utf-8"?>
<!-- Generator: Adobe Illustrator 23.0.6, SVG Export Plug-In . SVG Version: 6.00 Build 0)  -->
<svg version="1.1" id="Layer_1" xmlns="http://www.w3.org/2000/svg" xmlns:xlink="http://www.w3.org/1999/xlink" x="0px" y="0px"
	 viewBox="0 0 1000 1000" style="enable-background:new 0 0 1000 1000;" xml:space="preserve">
<style type="text/css">
	.st0{fill:#00FFD9;}
	.st1{fill:none;stroke:#00FFD9;stroke-width:8;stroke-linecap:round;stroke-linejoin:round;stroke-miterlimit:10;}
	.st2{fill:none;stroke:#00FFD9;stroke-width:10.6667;stroke-linecap:round;stroke-linejoin:round;stroke-miterlimit:10;}
	.st3{fill:none;stroke:#00FFD9;stroke-width:20;stroke-linecap:round;stroke-linejoin:round;}
	.st4{fill:none;stroke:#00FFD9;stroke-width:20;stroke-miterlimit:10;}
	.st5{fill:none;stroke:#00FFD9;stroke-width:20;stroke-linecap:round;stroke-miterlimit:10;}
</style>
<g>
	<g>
		<path class="st0" d="M494.7,392.6h-2.8c-4.8,0-8.7-3.9-8.7-8.7v-61.3c0-4.8,3.9-8.7,8.7-8.7h2.8c4.8,0,8.7,3.9,8.7,8.7v61.3
			C503.4,388.7,499.5,392.6,494.7,392.6z"/>
		<path class="st0" d="M494.7,647.7h-2.8c-4.8,0-8.7-3.9-8.7-8.7v-61.3c0-4.8,3.9-8.7,8.7-8.7h2.8c4.8,0,8.7,3.9,8.7,8.7v61.3
			C503.4,643.7,499.5,647.7,494.7,647.7z"/>
	</g>
	<g>
		<g>
			<g>
				<path class="st1" d="M380.9,442.4c0,2.1-0.5,4.2-1.6,6.1l-11.8,20.4c1.1-1.9,1.6-4,1.6-6.1c0-4.2-2.2-8.3-6.1-10.5
					c-5.8-3.4-13.2-1.4-16.6,4.4l11.7-20.3c3.4-5.8,10.8-7.8,16.6-4.5C378.7,434.1,380.9,438.2,380.9,442.4z"/>
				<path class="st1" d="M367.5,468.9l-5.6,9.8h0.1l0.2,83.4h-25.6l-0.2-38l-18.1,30.5h-12.4l-18.1-29.2V562h-25.6v-83.4h23.1
					l24.9,40.8l0.1,0.1c0.2-0.6,0.5-1.2,0.8-1.7l35.3-61.1c0,0,0,0,0-0.1c3.4-5.8,10.8-7.7,16.6-4.4c3.9,2.3,6.1,6.3,6.1,10.5
					C369.2,464.8,368.6,466.9,367.5,468.9z"/>
			</g>
			<g>
				<circle class="st1" cx="312.8" cy="499.1" r="100"/>
			</g>
		</g>
		<g>
			<g>
				<g>
					<path class="st0" d="M469.2,227.9c17,0,30.7,13.7,30.7,30.7v439.1c0,17-13.7,30.7-30.7,30.7H155.7c-17,0-30.7-13.7-30.7-30.7
						V258.6c0-17,13.7-30.7,30.7-30.7H469.2 M469.2,207.9H155.7c-28,0-50.7,22.7-50.7,50.7v439.1c0,28,22.7,50.7,50.7,50.7h313.5
						c28,0,50.7-22.7,50.7-50.7V258.6C519.9,230.6,497.1,207.9,469.2,207.9L469.2,207.9z"/>
				</g>
				<g>
					<g>
						<path class="st0" d="M844.3,247.8c5.7,0,10.4,4.7,10.4,10.4v439.1c0,5.7-4.7,10.4-10.4,10.4H530.8c-5.7,0-10.4-4.7-10.4-10.4
							V258.2c0-5.7,4.7-10.4,10.4-10.4H844.3 M844.3,227.5H530.8c-17,0-30.7,13.7-30.7,30.7v439.1c0,17,13.7,30.7,30.7,30.7h313.5
							c17,0,30.7-13.7,30.7-30.7V258.2C875,241.2,861.3,227.5,844.3,227.5L844.3,227.5z"/>
					</g>
					<g>
						<path class="st0" d="M805.4,296c9.2,0,16.7,7.5,16.7,16.7v330.1c0,9.2-7.5,16.7-16.7,16.7H569.7c-9.2,0-16.7-7.5-16.7-16.7
							V312.6c0-9.2,7.5-16.7,16.7-16.7H805.4 M805.4,289.6H569.7c-12.8,0-23.1,10.3-23.1,23.1v330.1c0,12.8,10.3,23.1,23.1,23.1
							h235.7c12.8,0,23.1-10.3,23.1-23.1V312.6C828.5,299.9,818.2,289.6,805.4,289.6L805.4,289.6z"/>
					</g>
				</g>
			</g>
			<g>
				<path class="st0" d="M205.4,772.5h-42.7c-8,0-14.6-6.6-14.6-14.6l0,0c0-8,6.6-14.6,14.6-14.6h42.7c8,0,14.6,6.6,14.6,14.6l0,0
					C220,766,213.4,772.5,205.4,772.5z"/>
				<path class="st0" d="M462.2,772.5h-42.7c-8,0-14.6-6.6-14.6-14.6l0,0c0-8,6.6-14.6,14.6-14.6h42.7c8,0,14.6,6.6,14.6,14.6l0,0
					C476.8,766,470.2,772.5,462.2,772.5z"/>
			</g>
		</g>
	</g>
</g>
</svg>
