<svg id="Layer_1" data-name="Layer 1" xmlns="http://www.w3.org/2000/svg" viewBox="0 0 496 496"><title>supernode</title><path d="M157.08,106.52l13.85-8,8,13.86-13.86,8Z"/><path d="M98.5,170.93l8-13.86,13.86,8-8,13.86Z"/><path d="M279.59,396.88l15.46-4.14,4.14,15.46-15.46,4.14Z"/><path d="M349.85,361.14l11.32-11.31,11.31,11.31-11.32,11.32Z"/><path d="M392.76,295.1l4.14-15.46,15.46,4.15-4.15,15.45Z"/><path d="M480,80h16V96H480Z"/><path d="M0,400H16v16H0Z"/><path d="M248,112c-75,0-136,61-136,136a134.19,134.19,0,0,0,1,16H32v16H132l-1.81-9.5a120,120,0,0,1,217-90l2.38,3.5H432V168H358a136,136,0,0,0-54.51-44.14L331.31,96h17.38l40,40H432V120H395.31l-24-24H464V80H324.69L287,117.72A135.75,135.75,0,0,0,248,112Z"/><path d="M248,384c75,0,136-61,136-136a134.19,134.19,0,0,0-1-16h81V216H364l1.81,9.5a120,120,0,0,1-217,90l-2.38-3.5H64v16h74a136,136,0,0,0,54.51,44.14L164.69,400H147.31l-40-40H64v16h36.69l24,24H32v16H171.31L209,378.28A135.75,135.75,0,0,0,248,384Z"/><path d="M101.12,112.43A199.27,199.27,0,0,0,48,248H64C64,146.54,146.54,64,248,64V48a199.27,199.27,0,0,0-135.57,53.12L96,84.69V48H80V80H64V32H48V80H32V0H16V80H0V96H84.69Z"/><path d="M480,400H464v80H448V432H432v48H416V448H400v32H387.31l-52.06-52.06C401.93,395.46,448,327,448,248H432c0,101.46-82.54,184-184,184v16a199,199,0,0,0,71.45-13.24L380.69,496H496V480H480Z"/><path d="M296,224V192a48,48,0,0,0-96,0v32H184V336H312V224Zm-80-32a32,32,0,0,1,64,0v32H216Zm80,128H200V240h96Z"/></svg>