<?xml version="1.0" encoding="utf-8"?>
<!-- Generator: Adobe Illustrator 23.0.6, SVG Export Plug-In . SVG Version: 6.00 Build 0)  -->
<svg version="1.1" id="Layer_1" xmlns="http://www.w3.org/2000/svg" xmlns:xlink="http://www.w3.org/1999/xlink" x="0px" y="0px"
	 viewBox="0 0 512 512" style="enable-background:new 0 0 512 512;" xml:space="preserve">
<g id="Wallet-2">
	<path d="M488,240h-8V136c0-4.4-3.6-8-8-8h-96V56c0-22.1-17.9-40-40-40H128c-22.1,0-40,17.9-40,40v400c0,22.1,17.9,40,40,40h208
		c22.1,0,40-17.9,40-40v-72h96c4.4,0,8-3.6,8-8v-56h8c4.4,0,8-3.6,8-8v-64C496,243.6,492.4,240,488,240z M464,176H224
		c-8.8,0-16-7.2-16-16s7.2-16,16-16h240V176z M184,32h96v8c0,4.4-3.6,8-8,8h-80c-4.4,0-8-3.6-8-8V32z M360,456c0,13.3-10.7,24-24,24
		H128c-13.3,0-24-10.7-24-24V56c0-13.3,10.7-24,24-24h40v8c0,13.3,10.7,24,24,24h80c13.3,0,24-10.7,24-24v-8h40
		c13.3,0,24,10.7,24,24v72H224c-17.7,0-32,14.3-32,32v184c0,22.1,17.9,40,40,40h128V456z M464,368H232c-13.3,0-24-10.7-24-24V187.6
		c4.8,2.9,10.4,4.4,16,4.4h240v48h-40c-13.3,0-24,10.7-24,24v32c0,13.3,10.7,24,24,24h40V368z M480,304h-56c-4.4,0-8-3.6-8-8v-32
		c0-4.4,3.6-8,8-8h56V304z"/>
	<path d="M432,272h16v16h-16V272z"/>
</g>
</svg>
