<?xml version="1.0" encoding="UTF-8"?>
<svg width="173px" height="52px" viewBox="0 0 173 52" version="1.1" xmlns="http://www.w3.org/2000/svg" xmlns:xlink="http://www.w3.org/1999/xlink">
    <title>Group 28</title>
    <g id="Page-1" stroke="none" stroke-width="1" fill="none" fill-rule="evenodd">
        <g id="Group-28">
            <g id="Group-27">
                <g id="Google-Play-Copy-2">
                    <g id="Google-Play-Copy">
                        <rect id="button" fill="#000000" x="0" y="0" width="172.53" height="51.84" rx="8.1"></rect>
                        <text id="Direct-Download" font-family="Roboto-Regular, Roboto" font-size="12.15" font-weight="normal" letter-spacing="0.972000039" fill="#FFFFFF">
                            <tspan x="55.831572" y="17.48">Direct Download</tspan>
                        </text>
                        <text id=".APK-FILE" font-family="Roboto-Medium, Roboto" font-size="19.44" font-weight="400" letter-spacing="2.1" fill="#FFFFFF">
                            <tspan x="56" y="40">.APK FILE</tspan>
                        </text>
                    </g>
                </g>
                <g id="Android/Color" transform="translate(11.886905, 7.000000)" fill="#95CF00">
                    <path d="M21.1128881,7.40069741 C20.4908914,7.40069741 19.9873703,6.91992085 19.9873703,6.3260204 C19.9873703,5.73211994 20.4908914,5.25351884 21.1128881,5.25351884 C21.7348848,5.25351884 22.2384059,5.73211994 22.2384059,6.3260204 C22.2384059,6.91992085 21.7348848,7.40069741 21.1128881,7.40069741 L21.1128881,7.40069741 Z M12.1133024,7.40069741 C11.4913057,7.40069741 10.9877846,6.91992085 10.9877846,6.3260204 C10.9877846,5.73211994 11.4913057,5.25351884 12.1133024,5.25351884 C12.735299,5.25351884 13.2388202,5.73211994 13.2388202,6.3260204 C13.2388202,6.91992085 12.735299,7.40069741 12.1133024,7.40069741 L12.1133024,7.40069741 Z M27.1118525,11.69723 L27.1118525,27.4519081 C27.1118525,28.7027973 26.0501292,29.7209124 24.7377846,29.7209124 L24.7377846,29.7209124 L23.0221673,29.7209124 C23.0814051,29.9101773 23.1155807,30.1081442 23.1155807,30.3169883 L23.1155807,30.3169883 L23.1155807,34.8528214 C23.1155807,36.0384469 22.1062601,37 20.8622667,37 C19.6205517,37 18.6135095,36.0384469 18.6135095,34.8528214 L18.6135095,34.8528214 L18.6135095,30.3169883 C18.6135095,30.1081442 18.6454068,29.9101773 18.7023662,29.7209124 L18.7023662,29.7209124 L14.5238243,29.7209124 C14.5807837,29.9101773 14.6149594,30.1081442 14.6149594,30.3169883 L14.6149594,30.3169883 L14.6149594,34.8528214 C14.6149594,36.0384469 13.6056387,37 12.3639237,37 C11.1222087,37 10.1128881,36.0384469 10.1128881,34.8528214 L10.1128881,34.8528214 L10.1128881,30.3169883 C10.1128881,30.1081442 10.1447854,29.9101773 10.2040232,29.7209124 L10.2040232,29.7209124 L8.4906843,29.7209124 C7.17833965,29.7209124 6.11433799,28.7027973 6.11433799,27.4519081 L6.11433799,27.4519081 L6.11433799,11.69723 L27.1118525,11.69723 Z M2.36413086,11.69723 C3.60584586,11.69723 4.61288811,12.6587831 4.61288811,13.8444086 L4.61288811,13.8444086 L4.61288811,23.0357252 C4.61288811,24.2213506 3.60584586,25.1829037 2.36413086,25.1829037 C1.12013749,25.1829037 0.113095238,24.2213506 0.113095238,23.0357252 L0.113095238,23.0357252 L0.113095238,13.8444086 C0.113095238,12.6587831 1.12013749,11.69723 2.36413086,11.69723 Z M30.864338,11.69723 C32.106053,11.69723 33.1130952,12.6587831 33.1130952,13.8444086 L33.1130952,13.8444086 L33.1130952,23.0357252 C33.1130952,24.2213506 32.106053,25.1829037 30.864338,25.1829037 C29.6203446,25.1829037 28.6133024,24.2213506 28.6133024,23.0357252 L28.6133024,23.0357252 L28.6133024,13.8444086 C28.6133024,12.6587831 29.6203446,11.69723 30.864338,11.69723 Z M22.9287539,0.160768041 C23.0403943,-0.0045668845 23.2750671,-0.050251535 23.4459453,0.0606969019 C23.6191019,0.169469879 23.6669478,0.391366753 23.5507506,0.556701678 L23.5507506,0.556701678 L22.6166164,1.89678476 L22.1973952,2.49286067 L21.7781739,3.09763843 C24.958787,4.51386259 27.1118525,7.19620421 27.1118525,10.2657776 L27.1118525,10.2657776 L6.11433799,10.2657776 C6.11433799,7.19620421 8.26740344,4.51386259 11.4502949,3.09763843 L11.4502949,3.09763843 L11.0287953,2.49286067 L10.6095741,1.89678476 L9.67543989,0.556701678 C9.56152109,0.391366753 9.60936699,0.169469879 9.7802452,0.0606969019 C9.95340178,-0.0480760754 10.1857961,-0.0045668845 10.3019933,0.160768041 L10.3019933,0.160768041 L11.3044788,1.59657134 L11.7259784,2.19917364 L12.1520348,2.81265323 C13.5076686,2.31012207 15.0205103,2.02948779 16.6130952,2.02948779 C18.2079585,2.02948779 19.7185219,2.31012207 21.0741557,2.81265323 L21.0741557,2.81265323 L21.5024904,2.19917364 Z" id="Android-/-Color"></path>
                </g>
            </g>
        </g>
    </g>
</svg>