<?xml version="1.0" encoding="UTF-8"?>
<svg width="183px" height="52px" viewBox="0 0 183 52" version="1.1" xmlns="http://www.w3.org/2000/svg" xmlns:xlink="http://www.w3.org/1999/xlink">
    <title>Apple Store Copy</title>
    <g id="Page-1" stroke="none" stroke-width="1" fill="none" fill-rule="evenodd">
        <g id="Apple-Store-Copy">
            <rect id="button" fill="#000000" x="0" y="0" width="183" height="51.84" rx="8.1"></rect>
            <text id="iOS-Beta-Version-on" font-family="Helvetica" font-size="12.15" font-weight="normal" letter-spacing="0.272" fill="#FFFFFF">
                <tspan x="55.08" y="17.48">iOS Beta Version on</tspan>
            </text>
            <text id="TestFlight" font-family="Helvetica" font-size="23.49" font-weight="normal" letter-spacing="1.7" fill="#FFFFFF">
                <tspan x="55.08" y="41.63">TestFlight</tspan>
            </text>
            <path d="M39.448449,39.4193062 C37.9113789,41.6685249 36.3214213,43.9039086 33.8111078,43.9507634 C31.3405525,43.9976183 30.5485324,42.4864562 27.7293995,42.4864562 C24.9073079,42.4864562 24.0244912,43.9039086 21.6918691,43.9976183 C19.2684134,44.0883766 17.4256491,41.5683588 15.875912,39.3292858 C12.7098473,34.7511581 10.2933816,26.3846105 13.5432714,20.738376 C15.1526088,17.9343327 18.0363534,16.160193 21.1613284,16.1133565 C23.5412905,16.0695269 25.7895698,17.7189479 27.2432401,17.7189479 C28.6991295,17.7189479 31.4280205,15.7386282 34.2968974,16.0290915 C35.4977796,16.0787319 38.8681643,16.5133017 41.032674,19.682647 C40.8616214,19.795154 37.0097002,22.0376212 37.0566704,26.7094587 C37.1038254,32.2901701 41.9437838,34.1451806 42,34.1704528 C41.9561735,34.3016095 41.2262872,36.8186758 39.448449,39.4193062 Z M28.8768742,10.6246467 C30.1223737,9.16145081 32.2268085,8.07312774 33.9635739,8 C34.1854583,10.0324523 33.3698598,12.0677112 32.1652702,13.5342854 C30.9582538,14.9982262 28.9824426,16.1386101 27.043381,15.986343 C26.7798933,13.9978782 27.7572247,11.9240717 28.8768742,10.6246467 Z" id="logo" fill="#FFFFFF" fill-rule="nonzero"></path>
        </g>
    </g>
</svg>