<?xml version="1.0" encoding="utf-8"?>
<!-- Generator: Adobe Illustrator 23.0.4, SVG Export Plug-In . SVG Version: 6.00 Build 0)  -->
<svg version="1.1" id="레이어_1" xmlns="http://www.w3.org/2000/svg" xmlns:xlink="http://www.w3.org/1999/xlink" x="0px"
	 y="0px" viewBox="0 0 698 196" style="enable-background:new 0 0 698 196;" xml:space="preserve">
<style type="text/css">
	.st0{fill:#BE0000;}
	.st1{fill:#EE0000;}
	.st2{fill:#8E0000;}
	.st3{fill:#B10000;}
	.st4{fill:#231F20;}
</style>
<g>
	<g>
		<polygon class="st0" points="111.4,195.2 111.4,125.5 1.2,195.2 		"/>
		<polygon class="st0" points="111.4,125.5 111.4,69.5 66.3,97.5 		"/>
		<polygon class="st0" points="1.2,0.8 111.4,69.5 111.4,0.8 		"/>
		<polygon class="st1" points="1.2,56.7 66.3,97.5 111.4,69.5 1.2,0.8 		"/>
		<polygon class="st2" points="1.2,138.3 1.2,195.2 111.4,125.5 66.3,97.5 		"/>
		<polygon class="st3" points="1.2,56.7 1.2,138.3 66.3,97.5 		"/>
	</g>
	<g>
		<g>
			<path class="st4" d="M150,14.6h19.6c13.4,0,22.6,4.5,22.6,16.1c0,6.6-3.5,12.3-9.7,14.3v0.5c7.9,1.5,13.5,6.7,13.5,15.7
				c0,12.9-10.2,19.3-25,19.3h-21V14.6z M168.2,42.7c11.3,0,15.9-4.2,15.9-10.9c0-7.7-5.3-10.6-15.5-10.6h-10.2v21.5L168.2,42.7
				L168.2,42.7z M169.9,73.8c11.3,0,18-4,18-12.9c0-8.2-6.5-11.9-18-11.9h-11.5v24.8H169.9z"/>
			<path class="st4" d="M229.2,54.9l-19.8-40.2h8.9l8.4,18.6c2.2,4.9,4.1,9.4,6.5,14.4h0.4c2.3-4.9,4.6-9.5,6.6-14.4l8.5-18.6h8.6
				l-19.8,40.2v25.6h-8.4L229.2,54.9L229.2,54.9z"/>
			<path class="st4" d="M269.9,75.5l34.8-53.9H273v-7h41.9v4.9l-34.8,53.9h35.1v7.1h-45.4V75.5z"/>
			<path class="st4" d="M368.9,60.4h-24.1l-6.4,20.1H330l22.4-65.9h9.3L384,80.5h-8.8L368.9,60.4z M366.8,53.7l-3.1-10.1
				c-2.4-7.5-4.5-14.6-6.6-22.3h-0.4c-2.1,7.7-4.2,14.8-6.6,22.3l-3.2,10.1H366.8z"/>
			<path class="st4" d="M404.1,14.6h8.6l24,41.5l7,13.6h0.4c-0.4-6.7-1.1-14-1.1-20.8V14.6h7.9v65.9h-8.5l-24-41.6l-7.1-13.6H411
				c0.4,6.7,1,13.7,1,20.6v34.6h-7.9L404.1,14.6L404.1,14.6z"/>
			<path class="st4" d="M493.5,21.6h-19.9v-7h48.2v7h-19.9v58.8h-8.4L493.5,21.6L493.5,21.6z"/>
			<path class="st4" d="M544.3,14.6h8.4v65.9h-8.4V14.6z"/>
			<path class="st4" d="M581.4,14.6h8.6l24,41.5l7,13.6h0.4c-0.4-6.7-1.1-14-1.1-20.8V14.6h7.9v65.9h-8.5l-24-41.6l-7.1-13.6h-0.4
				c0.4,6.7,1,13.7,1,20.6v34.6h-7.9L581.4,14.6L581.4,14.6z"/>
			<path class="st4" d="M657.1,14.6h38v7h-29.6v20.7h25v7.1h-25v24h30.6v7.1h-39L657.1,14.6L657.1,14.6z"/>
			<path class="st4" d="M150,112.4h18.8c14.8,0,24.7,4.9,24.7,19.3c0,13.9-9.9,20.4-24.3,20.4h-10.9v26.1H150L150,112.4L150,112.4z
				 M168.2,145.4c11.6,0,17.1-4.2,17.1-13.7c0-9.5-5.8-12.6-17.4-12.6h-9.4v26.2L168.2,145.4L168.2,145.4z"/>
			<path class="st4" d="M248.7,158.2h-24.1l-6.4,20.1h-8.4l22.4-65.8h9.3l22.4,65.8H255L248.7,158.2z M246.6,151.5l-3.1-10.1
				c-2.4-7.5-4.5-14.6-6.7-22.3h-0.4c-2.1,7.7-4.2,14.8-6.6,22.3l-3.2,10.1H246.6z"/>
			<path class="st4" d="M325.9,178.3l-16-27.9h-11.9v27.9h-8.4v-65.8h20.7c13.4,0,23,4.8,23,18.5c0,10.2-5.9,16.3-14.9,18.5
				l16.9,28.8H325.9z M298.1,143.6h11c10.3,0,16-4.1,16-12.7c0-8.7-5.7-11.8-16-11.8h-11V143.6z"/>
			<path class="st4" d="M375.9,119.5H356v-7h48.2v7h-19.9v58.8h-8.3V119.5z"/>
			<path class="st4" d="M432.7,112.4h8.6l24,41.5l7,13.6h0.4c-0.4-6.6-1.1-14-1.1-20.8v-34.2h7.9v65.8h-8.5l-24-41.6l-7.1-13.6h-0.4
				c0.4,6.6,1,13.7,1,20.6v34.6h-7.9L432.7,112.4L432.7,112.4z"/>
			<path class="st4" d="M514.3,112.4h38v7h-29.7v20.7h25v7.1h-25v24h30.6v7.1h-39L514.3,112.4L514.3,112.4z"/>
			<path class="st4" d="M620.1,178.3l-16-27.9h-11.9v27.9h-8.3v-65.8h20.7c13.4,0,23,4.8,23,18.5c0,10.2-5.9,16.3-14.9,18.5
				l16.9,28.8H620.1z M592.2,143.6h11.1c10.3,0,16-4.1,16-12.7c0-8.7-5.7-11.8-16-11.8h-11.1V143.6z"/>
			<path class="st4" d="M651.5,169.7l4.9-5.7c4.8,4.9,11.4,8.2,18.2,8.2c8.6,0,13.8-4.3,13.8-10.8c0-6.7-4.8-8.9-11-11.7l-9.5-4.1
				c-6.1-2.6-13.4-7.3-13.4-16.9c0-10.1,8.8-17.5,20.8-17.5c7.8,0,14.7,3.3,19.4,8.2l-4.4,5.3c-4-3.8-8.9-6.2-15-6.2
				c-7.5,0-12.3,3.8-12.3,9.7c0,6.4,5.7,8.8,10.9,11l9.4,4c7.6,3.3,13.6,7.8,13.6,17.6c0,10.4-8.6,18.7-22.4,18.7
				C665.3,179.5,657.3,175.7,651.5,169.7z"/>
		</g>
	</g>
</g>
</svg>
