<svg xmlns="http://www.w3.org/2000/svg" viewBox="0 0 431.64 602.63"><defs><style>.cls-1{fill:#fff;}.cls-2{fill:#ebeff2;}</style></defs><g id="Layer_2" data-name="Layer 2"><g id="Layer_1-2" data-name="Layer 1"><rect class="cls-1" width="431.64" height="602.63"/><path class="cls-2" d="M331.05,398.26C277,372.54,255.25,366,255.25,366c-1.77-3.23-2.75-16.24-2.93-18.95h-1.7l.3-.18s1.71-16.08,2.65-23.68c0,0,3.39-7.48,5.73-24l.81-1.4s1.17,4.32,5.38,3.62c0,0,4.44-.7,6.31-7.13,0,0,2.69-7.72,2.57-12.85,0,0,4.09-14.15,1.76-16.84,0,0-.67-1.09-1.44-1.29,0,0,2.14-20.88-.2-26.8l5.14-3.28-7.79-4,5-8.11-4.52,2.34-2-3.35s2.57-18-19.4-29.46l1.17,4.68s-16.13-19.17-57.51-20.11l3,4-10.75,1.63,4.67,5.38-15.9,2.57s1.88,10.52,0,13.32l-7.24-1.16,1.4,8.88s-.7,7.25,1.87,10.29c0,0-9.59,3.73-12.86,7.71h3s-3.74,22.09-1.05,34.95c0,0-2.69-.35-1.29,5.61,0,0,2.81,8.53,2.34,15.66,0,0-.35,13.1,4.44,15.66a5.45,5.45,0,0,0,6.2,0s.58,18.82,6,25.84c0,0,1.06,14.56,1.7,21.52h-.77a83.81,83.81,0,0,1-3,18.95s-35.86,12.85-75.8,32.31c0,0-21.12,7.57-21.12,21.08H81a179.27,179.27,0,0,0,269.72,0h1.5C352.18,405.83,331.05,398.26,331.05,398.26Z"/><path class="cls-2" d="M215.82,496.65C108.11,496.65,20.48,409,20.48,301.32S108.11,106,215.82,106,411.16,193.6,411.16,301.32,323.53,496.65,215.82,496.65Zm0-380.1c-101.88,0-184.77,82.88-184.77,184.77s82.89,184.76,184.77,184.76S400.59,403.2,400.59,301.32,317.7,116.55,215.82,116.55Z"/></g></g></svg>