<?xml version="1.0" encoding="utf-8"?>
<!-- Generator: Adobe Illustrator 24.3.0, SVG Export Plug-In . SVG Version: 6.00 Build 0)  -->
<svg version="1.1" id="Layer_1" xmlns="http://www.w3.org/2000/svg" xmlns:xlink="http://www.w3.org/1999/xlink" x="0px" y="0px"
	 viewBox="0 0 275 93" style="enable-background:new 0 0 275 93;" xml:space="preserve">
<style type="text/css">
	.st0{fill:#FFFFFF;}
</style>
<g>
	<g>
		<path class="st0" d="M24.6,6.8h15.3c3.7-0.2,7.2,0.6,10.8,1.8c2.7,1,5.3,2.5,7.4,4.5c2,1.8,3.5,3.7,4.7,6.1c1,2,2,4.1,2.5,6.3
			c0.4,1.8,0.8,3.7,1,5.5c0.2,1.2,0.2,2.3,0.2,3.5s0,2.3-0.2,3.5c-0.4,1.4-0.6,3.3-1.2,5.3c-0.6,2.2-1.6,4.3-2.5,6.3
			c-1.2,2.2-2.9,4.3-4.7,6.1c-2.2,2-4.7,3.5-7.4,4.5c-3.5,1.2-7,1.8-10.8,1.8H24.6V6.8z M29.1,57.1h9.4c3.1,0,6.1-0.4,9-1.4
			c2.7-1,5.3-2.3,7.4-4.1c2.2-2,3.7-4.3,4.9-7c1.2-3.3,1.8-6.7,1.8-10.2s-0.6-6.9-1.8-10.2c-1-2.7-2.7-5.1-4.9-7
			c-2.2-2-4.7-3.3-7.4-4.1c-2.9-1-5.9-1.4-9-1.4h-9.4V57.1z"/>
		<path class="st0" d="M111.5,40.7c0,2.7-0.4,5.7-1,8.4c-0.6,2.5-1.6,4.9-2.9,7c-1.4,2.2-3.3,3.7-5.5,4.9c-2.5,1.4-5.5,2-8.4,2
			c-2.9,0.2-5.9-0.6-8.4-2c-2.2-1.2-4.1-2.7-5.5-4.9c-1.4-2.2-2.3-4.5-2.9-7c-0.6-2.7-1-5.7-1-8.4V6.8h4.5v32.5c0,2,0.2,4.1,0.4,6.3
			c0.4,2.2,1,4.3,2,6.3c1,2,2.3,3.5,4.1,4.7c2,1.4,4.5,2,6.9,2c2.3,0.2,4.9-0.6,6.9-2c1.8-1.2,3.1-2.7,4.1-4.7s1.6-4.1,2-6.3
			c0.4-2.2,0.4-4.1,0.4-6.3V6.8h4.5V40.7z"/>
		<path class="st0" d="M142.1,6.8h4.5v54.8h-4.5V6.8z"/>
		<path class="st0" d="M156.9,34.2c0-3.9,0.6-7.8,2-11.5c1.2-3.3,2.9-6.5,5.3-9.2c2.2-2.5,4.9-4.7,8-6.1c3.3-1.4,6.9-2.2,10.4-2.2
			s7,0.8,10.4,2.2c3.1,1.4,5.9,3.5,8,6.1c2.3,2.7,4.1,5.9,5.3,9.2c1.2,3.7,2,7.6,2,11.5s-0.6,7.8-2,11.5c-1.2,3.3-2.9,6.5-5.3,9.2
			c-2.2,2.5-4.9,4.5-8,5.9c-3.3,1.4-6.9,2.2-10.4,2.2s-7-0.8-10.4-2.2c-3.1-1.4-5.9-3.3-8-5.9c-2.3-2.7-4.1-5.9-5.3-9.2
			C157.5,42.1,156.9,38.1,156.9,34.2z M161.4,34.2c0,3.3,0.4,6.5,1.4,9.6c1,2.7,2.3,5.3,4.1,7.6c1.8,2.2,3.9,3.9,6.5,5.1
			c2.7,1.2,5.7,2,8.6,2c2.9,0,5.9-0.6,8.6-2c2.5-1.2,4.7-2.9,6.5-5.1c1.8-2.3,3.1-4.9,4.1-7.6c1-3.1,1.4-6.3,1.4-9.6
			s-0.4-6.5-1.4-9.6c-1-2.7-2.3-5.3-4.1-7.6c-1.8-2.2-3.9-3.9-6.5-5.1c-2.7-1.2-5.7-2-8.6-2c-2.9,0-5.9,0.6-8.6,2
			c-2.3,1.2-4.7,2.9-6.5,5.1c-1.8,2.3-3.1,4.9-4.1,7.6C162,27.8,161.6,30.9,161.4,34.2z"/>
		<path class="st0" d="M228.8,11.5h-16.8V6.8h38.2v4.7h-16.8v50.3h-4.5V11.5z"/>
	</g>
	<g>
		<path class="st0" d="M27.3,81.8c-1.6-0.4-2.9-1-3.7-1.8c-0.8-0.6-1.2-1.6-1.2-2.5c0-1.2,0.4-2.2,1.4-2.7c1-0.8,2.2-1.2,3.5-1.2
			c1,0,2,0.2,2.7,0.6s1.4,1,1.8,1.6c0.4,0.6,0.6,1.4,0.6,2.2h-2c0-0.8-0.2-1.6-0.8-2c-0.6-0.6-1.4-0.8-2.3-0.8c-1,0-1.8,0.2-2.2,0.6
			c-0.6,0.4-0.8,1-0.8,1.8c0,0.6,0.2,1.2,0.8,1.6c0.6,0.4,1.4,0.8,2.5,1.2c1.2,0.4,2.2,0.8,2.9,1.2c0.8,0.2,1.2,0.8,1.6,1.2
			c0.4,0.6,0.6,1.2,0.6,2c0,1.2-0.4,2.2-1.4,2.7c-1,0.8-2.2,1-3.7,1c-1,0-2-0.2-2.7-0.6c-0.8-0.4-1.6-1-2-1.6c-0.8-0.6-1-1.2-1-2.2
			h2c0,0.8,0.4,1.6,1,2c0.6,0.4,1.6,0.8,2.5,0.8s1.8-0.2,2.3-0.6c0.6-0.4,0.8-1,0.8-1.6c0-0.8-0.2-1.2-0.8-1.6
			C29.5,82.6,28.5,82.2,27.3,81.8z"/>
		<path class="st0" d="M59.8,73.8v9.8c0,1.4-0.4,2.5-1.4,3.3c-0.8,0.8-2,1.4-3.5,1.4h-0.6c-1.6,0-2.9-0.4-3.9-1.2
			c-1-0.8-1.4-2-1.4-3.5v-9.8h2v9.8c0,1,0.2,1.8,0.8,2.3c0.6,0.6,1.4,0.8,2.5,0.8s2-0.2,2.5-0.8c0.6-0.6,0.8-1.4,0.8-2.3v-9.8
			C57.7,73.8,59.8,73.8,59.8,73.8z"/>
		<path class="st0" d="M79.2,82.6v5.7h-2V73.8h5.5c1.6,0,2.9,0.4,3.7,1.2c1,0.8,1.4,1.8,1.4,3.1c0,1.4-0.4,2.5-1.4,3.1
			c-1,0.8-2.2,1.2-3.9,1.2h-3.3V82.6z M79.2,81h3.5c1,0,1.8-0.2,2.3-0.8s0.8-1.2,0.8-2.2c0-0.8-0.2-1.6-0.8-2
			c-0.6-0.6-1.4-0.8-2.3-0.8h-3.5V81z"/>
		<path class="st0" d="M113.1,81.6h-6.3v5.1h7.2v1.6h-9.4V73.8h9.2v1.6h-7.2V80h6.3v1.6H113.1z"/>
		<path class="st0" d="M136.2,82.4h-3.5v5.9h-2V73.8h4.9c1.6,0,2.9,0.4,3.7,1.2c1,0.8,1.4,1.8,1.4,3.1c0,1-0.2,1.8-0.8,2.3
			c-0.6,0.6-1.2,1.2-2.2,1.6l3.5,6.1v0.2h-2.2L136.2,82.4z M132.9,80.8h2.9c1,0,1.8-0.2,2.3-0.8c0.6-0.6,0.8-1.2,0.8-2
			c0-1-0.2-1.6-0.8-2c-0.6-0.4-1.4-0.8-2.3-0.8h-2.9V80.8z"/>
		<path class="st0" d="M169.3,88.2h-2l-7.4-11v11h-2V73.8h2l7.4,11.2V73.8h2V88.2z"/>
		<path class="st0" d="M198.2,81.4c0,1.4-0.2,2.5-0.8,3.7c-0.4,1-1.2,1.8-2,2.3c-1,0.6-2,0.8-3.1,0.8c-1.2,0-2.2-0.2-3.1-0.8
			s-1.6-1.4-2.2-2.3c-0.4-1-0.6-2.2-0.6-3.5v-1c0-1.4,0.2-2.5,0.8-3.7c0.4-1,1.2-2,2.2-2.3c1-0.6,2-0.8,3.1-0.8
			c1.2,0,2.2,0.2,3.1,0.8c1,0.6,1.6,1.4,2.2,2.3c0.4,1,0.8,2.3,0.8,3.7v0.8H198.2z M196.3,80.6c0-1.8-0.4-2.9-1-3.9
			c-0.8-1-1.8-1.4-2.9-1.4c-1.2,0-2.2,0.4-2.9,1.4s-1,2.2-1,3.7v1c0,1.6,0.4,2.9,1,3.9c0.8,1,1.8,1.4,2.9,1.4c1.2,0,2.2-0.4,2.9-1.4
			c0.8-1,1-2.2,1-3.9V80.6z"/>
		<path class="st0" d="M215.7,88.2V73.8h4.1c1.4,0,2.3,0.2,3.3,0.8s1.8,1.4,2.3,2.3c0.6,1,0.8,2.2,0.8,3.5v1c0,1.4-0.2,2.5-0.8,3.5
			c-0.6,1-1.4,1.8-2.3,2.3c-1,0.6-2.2,0.8-3.5,0.8h-3.9V88.2z M217.4,75.3v11.2h2c1.6,0,2.7-0.4,3.5-1.4s1.2-2.2,1.2-3.9v-0.8
			c0-1.6-0.4-2.9-1.2-3.7c-0.8-1-2-1.4-3.3-1.4C219.6,75.3,217.4,75.3,217.4,75.3z"/>
		<path class="st0" d="M251.9,81.6h-6.3v5.1h7.4v1.6h-9.4V73.8h9.2v1.6h-7.2V80h6.3V81.6z"/>
	</g>
</g>
</svg>
