<?xml version="1.0" encoding="utf-8"?>
<!-- Generator: Adobe Illustrator 23.0.6, SVG Export Plug-In . SVG Version: 6.00 Build 0)  -->
<svg version="1.1" id="Layer_1" xmlns="http://www.w3.org/2000/svg" xmlns:xlink="http://www.w3.org/1999/xlink" x="0px" y="0px"
	 viewBox="0 0 168.5 25.1" style="enable-background:new 0 0 168.5 25.1;" xml:space="preserve">
<style type="text/css">
	.st0{fill:#424142;}
	.st1{fill:#E15818;}
	.st2{fill:#C45E5C;}
	.st3{fill:#CB0F10;}
	.st4{fill:#E95900;}
	.st5{fill:url(#SVGID_1_);}
</style>
<g transform="translate(-1200.946 -1284.931)">
	<g transform="translate(1195.946 1284.577)">
		<g transform="translate(28.51 9.363)">
			<g transform="translate(10.214 0.001)">
				<path class="st0" d="M4.7,4.1H3L0,14.6h3.4l2.6-8.9C6,5.3,6,4.9,5.8,4.5C5.5,4.2,5.1,4,4.7,4.1z"/>
				<path class="st0" d="M7.1,1.7c-0.3,1-1.2,1.6-2.2,1.7c-0.7,0-1.3-0.5-1.3-1.2c0-0.2,0-0.4,0.1-0.5C4,0.7,4.9,0.1,5.9,0
					c0.7,0,1.3,0.5,1.3,1.2C7.2,1.3,7.1,1.5,7.1,1.7z"/>
			</g>
			<path class="st0" d="M31,3.5c-0.7,0-1.3,0.1-1.9,0.4c-0.3,0.1-0.6,0.3-0.8,0.5L29,1.6c0.1-0.4,0.1-0.8-0.2-1.2
				c-0.2-0.3-0.6-0.5-1-0.5h-1.6L22,14.6h3.3L26.9,9c0.2-0.7,0.5-1.4,1.1-1.9c0.4-0.4,0.9-0.7,1.5-0.6c0.5,0,0.9,0.2,1.1,0.6
				c0.2,0.6,0.2,1.3-0.1,1.9l-1.6,5.6h3.3l1.6-5.5c0.5-1.3,0.5-2.8,0-4.1C33.2,4,32.1,3.4,31,3.5z"/>
			<path class="st0" d="M60.8,3.5c-1.5,0-3.1,0.4-4.4,1.3c-0.6-0.8-1.5-1.3-2.6-1.3c-0.7,0-1.3,0.1-1.9,0.4c-0.4,0.2-0.7,0.4-1,0.6
				c-0.1-0.6-0.6-1-1.2-1h-1.6l-3.2,11.1h3.3L49.8,9c0.2-0.7,0.5-1.4,1.1-1.9c0.4-0.4,0.9-0.7,1.5-0.6c0.5,0,0.9,0.2,1.1,0.6
				c0.2,0.6,0.2,1.3-0.1,1.9l-1.6,5.6h3.3L56.7,9c0.2-0.7,0.5-1.4,1.1-1.9c0.4-0.4,0.9-0.6,1.5-0.6c0.5,0,0.9,0.2,1.1,0.6
				c0.2,0.6,0.2,1.3-0.1,1.9l-1.6,5.6H62l1.6-5.5C64,7.8,64,6.3,63.5,5C63,4,61.9,3.4,60.8,3.5z"/>
			<path class="st0" d="M34.7,9.8l1.8-6.4h3.3L38,9.8c-0.5,1.9,1.2,1.9,1.2,1.9c1.1,0,2.1-0.8,2.4-1.9l1.8-6.4h3.3l-1.8,6.4
				c-0.8,2.9-3.5,4.9-6.5,4.8C38.4,14.6,33.3,15,34.7,9.8z"/>
			<path class="st0" d="M74.8,9.1c0.5-1.3,0.5-2.8,0-4.1c-0.5-1-1.6-1.7-2.7-1.6c-0.7,0-1.3,0.1-1.9,0.4c-0.3,0.1-0.6,0.3-0.8,0.5
				L70,1.6c0.1-0.4,0.1-0.8-0.2-1.2c-0.2-0.3-0.6-0.5-1-0.5h-1.6l-2.8,9.7c-1.5,5.3,3.9,4.9,3.9,4.9S73.2,14.7,74.8,9.1z M71.5,9
				c-0.2,0.8-0.6,1.5-1.1,2.1c-0.4,0.4-0.9,0.7-1.5,0.6c-0.5,0.1-0.9-0.2-1.1-0.6c-0.2-0.7-0.1-1.4,0.1-2.1C68.1,8.3,68.5,7.6,69,7
				c0.4-0.4,0.9-0.7,1.5-0.6c0.5,0,0.9,0.2,1.1,0.6C71.8,7.7,71.8,8.4,71.5,9L71.5,9z"/>
			<path class="st0" d="M22.2,1.6c0.1-0.4,0.1-0.8-0.2-1.2c-0.2-0.3-0.6-0.5-1-0.5h-1.7l-3.5,12.4c-0.5,1.7,0.4,2.1,1.1,2.2
				c0.6,0,1.2,0.1,1.9,0.1c0.4,0,0.8,0,1.2,0l0.3,0l0.8-2.6h-1.5c-0.4,0-0.4-0.1-0.3-0.3l1.5-5.3h0.4c0.5,0,0.9-0.2,1.3-0.5
				c0.4-0.3,0.7-0.7,0.8-1.2l0.3-0.9h-2L22.2,1.6z"/>
			<path class="st0" d="M10.6,9.1c0.5-1.3,0.5-2.8,0-4.1C10.1,4,9,3.4,7.8,3.5c-0.7,0-1.3,0.1-1.9,0.4C5.6,4,5.3,4.1,5.1,4.3
				l0.8-2.7C6,1.2,5.9,0.8,5.7,0.5C5.5,0.2,5.1,0,4.7,0H3L0.3,9.7c-1.5,5.3,3.9,4.9,3.9,4.9S9,14.7,10.6,9.1z M7.3,9
				c-0.2,0.8-0.6,1.5-1.1,2.1c-0.4,0.4-0.9,0.7-1.5,0.6c-0.5,0.1-0.9-0.2-1.1-0.6C3.4,10.4,3.5,9.6,3.7,9C3.9,8.3,4.3,7.6,4.8,7
				c0.4-0.4,0.9-0.7,1.5-0.6c0.5,0,0.9,0.2,1.1,0.6C7.6,7.7,7.6,8.4,7.3,9z"/>
		</g>
		<path class="st1" d="M117.2,21.4c0.3,0,0.5,0,0.7,0c0.2,0,0.4,0,0.6-0.1l1.2-5h3.2l-1.7,7.2c-0.5,0.2-1.1,0.3-1.7,0.4
			c-0.9,0.2-1.9,0.2-2.8,0.2c-0.9,0-1.7-0.1-2.6-0.4c-0.7-0.3-1.3-0.7-1.9-1.2c-0.5-0.5-0.9-1.2-1.1-1.9c-0.3-0.8-0.4-1.7-0.4-2.5
			c0-1.1,0.2-2.2,0.6-3.2c0.8-2.2,2.4-3.9,4.5-4.9c1.2-0.5,2.5-0.8,3.8-0.8c0.7,0,1.4,0.1,2.1,0.3c0.7,0.2,1.4,0.5,2,0.9l-1.2,2.5
			c-0.5-0.3-1-0.5-1.5-0.7c-0.5-0.1-1.1-0.2-1.6-0.2c-0.8,0-1.6,0.1-2.3,0.5c-0.6,0.3-1.2,0.8-1.7,1.3c-0.5,0.6-0.8,1.2-1,1.9
			c-0.2,0.7-0.4,1.5-0.4,2.3c-0.1,1,0.2,1.9,0.8,2.7C115.5,21.1,116.3,21.4,117.2,21.4z"/>
		<path class="st2" d="M128.6,24.1c-0.8,0-1.6-0.1-2.3-0.4c-0.5-0.2-0.9-0.6-1.2-1.1c-0.2-0.5-0.4-1-0.4-1.5c0-0.6,0.1-1.2,0.2-1.8
			l2.6-11l3.2-0.5l-2.9,12c-0.1,0.2-0.1,0.5-0.1,0.7c0,0.2,0,0.4,0.1,0.6c0.1,0.2,0.2,0.3,0.4,0.4c0.3,0.1,0.6,0.2,0.8,0.2
			L128.6,24.1z"/>
		<path class="st0" d="M135.5,24.2c-0.7,0-1.3-0.1-1.9-0.3c-0.5-0.2-1-0.5-1.3-0.9c-0.4-0.4-0.6-0.9-0.8-1.4
			c-0.2-0.6-0.3-1.2-0.3-1.8c0-0.8,0.1-1.7,0.4-2.5c0.3-0.8,0.7-1.6,1.2-2.2c0.5-0.7,1.2-1.2,1.9-1.6c0.8-0.4,1.7-0.7,2.6-0.6
			c0.6,0,1.3,0.1,1.9,0.3c0.5,0.2,1,0.5,1.4,0.9c0.4,0.4,0.6,0.9,0.8,1.4c0.2,0.6,0.3,1.2,0.3,1.8c0,0.8-0.1,1.7-0.4,2.5
			c-0.3,0.8-0.6,1.6-1.2,2.2c-0.5,0.7-1.2,1.2-1.9,1.6C137.4,24,136.4,24.2,135.5,24.2z M137.1,15.3c-0.4,0-0.9,0.1-1.2,0.4
			c-0.4,0.3-0.7,0.6-0.9,1c-0.2,0.4-0.4,0.9-0.5,1.3c-0.1,0.4-0.2,0.9-0.2,1.4c0,0.6,0.1,1.1,0.3,1.6c0.3,0.4,0.7,0.6,1.2,0.6
			c0.4,0,0.9-0.1,1.2-0.4c0.4-0.3,0.7-0.6,0.9-1c0.2-0.4,0.4-0.9,0.5-1.3c0.1-0.4,0.2-0.9,0.2-1.4c0-0.6-0.1-1.1-0.3-1.6
			C138,15.4,137.5,15.2,137.1,15.3L137.1,15.3z"/>
		<path class="st0" d="M149.8,12.7c0.6,0,1.2,0.1,1.7,0.4c0.5,0.2,0.9,0.6,1.2,1c0.3,0.4,0.6,0.9,0.7,1.4c0.2,0.6,0.2,1.2,0.2,1.7
			c0,1.8-0.7,3.6-2,4.9c-0.6,0.6-1.4,1.1-2.2,1.5c-0.9,0.4-1.8,0.6-2.7,0.6c-0.1,0-0.3,0-0.7,0c-0.4,0-0.7,0-1.1-0.1
			c-0.4-0.1-0.9-0.1-1.3-0.2c-0.4-0.1-0.9-0.3-1.3-0.5l3.6-15.1l3.2-0.5l-1.3,5.4c0.3-0.1,0.5-0.2,0.8-0.3
			C149.2,12.7,149.5,12.7,149.8,12.7z M147.1,21.6c0.5,0,1-0.1,1.4-0.4c0.4-0.2,0.8-0.6,1.1-0.9c0.3-0.4,0.6-0.9,0.7-1.3
			c0.2-0.5,0.3-1,0.3-1.6c0-0.5-0.1-1.1-0.3-1.6c-0.3-0.4-0.7-0.6-1.2-0.6c-0.3,0-0.5,0-0.8,0.1c-0.3,0.1-0.6,0.2-0.8,0.4l-1.4,5.7
			c0.1,0,0.2,0,0.2,0c0.1,0,0.1,0,0.2,0c0.1,0,0.2,0,0.2,0L147.1,21.6z"/>
		<path class="st0" d="M164.7,19.2c-0.2,0.8-0.3,1.6-0.2,2.4c0.1,0.7,0.2,1.4,0.5,2.1l-2.8,0.4c-0.1-0.2-0.2-0.3-0.2-0.5
			c-0.1-0.2-0.1-0.3-0.2-0.5c-0.4,0.3-0.8,0.6-1.3,0.8c-0.5,0.2-1,0.3-1.6,0.3c-0.6,0-1.2-0.1-1.8-0.4c-0.5-0.2-0.9-0.6-1.2-1
			c-0.3-0.4-0.6-0.9-0.7-1.4c-0.4-1.5-0.3-3,0.3-4.5c0.3-0.8,0.8-1.6,1.4-2.2c0.6-0.6,1.3-1.1,2.1-1.5c0.8-0.4,1.7-0.5,2.7-0.5
			c0.1,0,0.3,0,0.7,0s0.7,0,1.1,0.1c0.4,0.1,0.9,0.1,1.3,0.2c0.4,0.1,0.9,0.3,1.3,0.5L164.7,19.2z M162.6,15.3c-0.2,0-0.3,0-0.5-0.1
			s-0.3,0-0.5,0c-0.5,0-0.9,0.1-1.3,0.4c-0.4,0.2-0.8,0.6-1.1,0.9c-0.3,0.4-0.6,0.8-0.7,1.3c-0.2,0.5-0.3,1-0.3,1.6
			c0,0.5,0.1,1.1,0.3,1.6c0.3,0.4,0.7,0.6,1.2,0.6c0.3,0,0.6-0.1,0.9-0.2c0.3-0.2,0.6-0.4,0.8-0.6c0-0.3,0.1-0.7,0.1-1.1
			c0.1-0.4,0.1-0.7,0.2-1.1L162.6,15.3z"/>
		<path class="st0" d="M171.2,24.1c-0.8,0-1.6-0.1-2.3-0.4c-0.5-0.2-0.9-0.6-1.2-1.1c-0.2-0.5-0.4-1-0.4-1.5c0-0.6,0.1-1.2,0.2-1.8
			l2.6-11l3.2-0.5l-2.9,12c-0.1,0.2-0.1,0.5-0.1,0.7c0,0.2,0,0.4,0.1,0.6c0.1,0.2,0.2,0.3,0.4,0.4c0.3,0.1,0.6,0.2,0.8,0.2
			L171.2,24.1z"/>
	</g>
	<g transform="translate(1200.946 1284.931)">
		<path class="st3" d="M0.1,10.1c-0.4,1,0,2.1,1,2.5c0.3,0.1,0.6,0.2,0.9,0.2h0.7L4.6,6H1.3L0.1,10.1z"/>
		<path class="st4" d="M18.6,8.7c-0.9-1.8-2.7-2.8-4.7-2.6H9.7l-1.9,6.8h2.9c0.5-0.1,0.9,0.2,1.1,0.6c0.2,0.7,0.2,1.4-0.1,2
			c-0.2,0.8-0.6,1.5-1.1,2.1c-0.4,0.4-1,0.7-1.6,0.7c-0.5,0.1-1-0.2-1.2-0.7c-0.2-0.7-0.1-1.5,0.1-2.1l3.6-12.7
			c0.2-0.7,0.1-1.4-0.3-2C11,0.3,10.3,0,9.6,0h-4L0.9,16.7c-2.6,9.1,6.6,8.5,6.6,8.5s8.4,0.2,11.2-9.5C19.5,12.8,19.4,10.4,18.6,8.7
			z"/>
		
			<linearGradient id="SVGID_1_" gradientUnits="userSpaceOnUse" x1="-329.3809" y1="216.4658" x2="-329.6319" y2="216.7578" gradientTransform="matrix(10.4296 0 0 -9.6451 3450.6045 2100.1755)">
			<stop  offset="0" style="stop-color:#CB0F0F;stop-opacity:0"/>
			<stop  offset="1" style="stop-color:#CB0F0F"/>
		</linearGradient>
		<path class="st5" d="M18.6,15.6c0.8-2.8,0.8-5.2-0.1-7c-0.9-1.8-2.7-2.8-4.7-2.6h-3.1l-1.9,6.8h1.9c0.5-0.1,0.9,0.2,1.1,0.6
			c0.2,0.7,0.2,1.4-0.1,2"/>
	</g>
</g>
</svg>
