<?xml version="1.0" encoding="UTF-8"?>
<svg width="278px" height="112px" viewBox="0 0 278 112" version="1.1" xmlns="http://www.w3.org/2000/svg" xmlns:xlink="http://www.w3.org/1999/xlink">
    <!-- Generator: Sketch 64 (93537) - https://sketch.com -->
    <title>matchxsupernode</title>
    <desc>Created with Sketch.</desc>
    <g id="Page-1" stroke="none" stroke-width="1" fill="none" fill-rule="evenodd">
        <g id="Supernode" transform="translate(-325.000000, -5572.000000)" fill-rule="nonzero">
            <g id="matchxsupernode" transform="translate(325.000000, 5572.000000)">
                <g id="Group" transform="translate(2.000000, 93.841709)" fill="#EBEFF2">
                    <path d="M7.13534483,9.96666667 C5.29396552,9.5 3.68275862,8.8 2.99224138,7.86666667 C2.30172414,6.93333333 1.6112069,6 1.6112069,4.83333333 C1.6112069,3.43333333 2.07155172,2.26666667 3.22241379,1.56666667 C4.37327586,0.633333333 5.75431034,0.166666667 7.36551724,0.166666667 C8.51637931,0.166666667 9.66724138,0.4 10.587931,0.866666667 C11.5086207,1.33333333 12.1991379,2.03333333 12.6594828,2.73333333 C13.1198276,3.43333333 13.35,4.36666667 13.35,5.3 L11.0482759,5.3 C11.0482759,4.36666667 10.8181034,3.43333333 10.1275862,2.96666667 C9.43706897,2.26666667 8.51637931,2.03333333 7.36551724,2.03333333 C6.21465517,2.03333333 5.29396552,2.26666667 4.83362069,2.73333333 C4.37327586,3.2 3.91293103,3.9 3.91293103,4.83333333 C3.91293103,5.53333333 4.14310345,6.23333333 4.83362069,6.7 C5.52413793,7.16666667 6.44482759,7.63333333 7.82586207,8.1 C9.20689655,8.56666667 10.3577586,9.03333333 11.2784483,9.5 C12.1991379,9.96666667 12.6594828,10.4333333 13.1198276,11.1333333 C13.5801724,11.8333333 13.8103448,12.5333333 13.8103448,13.4666667 C13.8103448,14.8666667 13.35,16.0333333 12.1991379,16.7333333 C11.0482759,17.6666667 9.66724138,17.9 7.82586207,17.9 C6.675,17.9 5.52413793,17.6666667 4.60344828,17.2 C3.68275862,16.7333333 2.30172414,16.2666667 1.84137931,15.3333333 C1.38103448,14.6333333 0.920689655,13.7 0.920689655,12.7666667 L3.22241379,12.7666667 C3.22241379,13.7 3.68275862,14.6333333 4.37327586,15.1 C5.0637931,15.8 6.21465517,16.0333333 7.36551724,16.0333333 C8.51637931,16.0333333 9.43706897,15.8 10.1275862,15.3333333 C10.8181034,14.8666667 11.0482759,14.1666667 11.0482759,13.4666667 C11.0482759,12.5333333 10.8181034,12.0666667 10.1275862,11.6 C9.66724138,10.9 8.51637931,10.4333333 7.13534483,9.96666667 Z" id="Path"></path>
                    <path d="M44.6534483,0.633333333 L44.6534483,12.3 C44.6534483,13.9333333 44.1931034,15.3333333 43.0422414,16.2666667 C42.1215517,17.2 40.7405172,17.9 38.8991379,17.9 L38.2086207,17.9 C36.3672414,17.9 34.7560345,17.4333333 33.6051724,16.5 C32.4543103,15.5666667 31.9939655,14.1666667 31.9939655,12.3 L31.9939655,0.633333333 L34.2956897,0.633333333 L34.2956897,12.3 C34.2956897,13.4666667 34.5258621,14.4 35.2163793,15.1 C35.9068966,15.8 36.8275862,16.0333333 38.2086207,16.0333333 C39.5896552,16.0333333 40.5103448,15.8 41.2008621,15.1 C41.8913793,14.4 42.1215517,13.4666667 42.1215517,12.3 L42.1215517,0.633333333 L44.6534483,0.633333333 L44.6534483,0.633333333 Z" id="Path"></path>
                    <path d="M66.5198276,10.9 L66.5198276,17.6666667 L64.2181034,17.6666667 L64.2181034,0.633333333 L70.662931,0.633333333 C72.5043103,0.633333333 74.1155172,1.1 75.0362069,2.03333333 C76.187069,2.96666667 76.6474138,4.36666667 76.6474138,5.76666667 C76.6474138,7.4 76.187069,8.8 75.0362069,9.5 C73.8853448,10.4333333 72.5043103,10.9 70.662931,10.9 L66.5198276,10.9 L66.5198276,10.9 Z M66.5198276,9.26666667 L70.662931,9.26666667 C71.8137931,9.26666667 72.7344828,9.03333333 73.425,8.33333333 C74.1155172,7.63333333 74.3456897,6.93333333 74.3456897,5.76666667 C74.3456897,4.83333333 74.1155172,3.9 73.425,3.43333333 C72.7344828,2.96666667 71.8137931,2.5 70.662931,2.5 L66.5198276,2.5 L66.5198276,9.26666667 Z" id="Shape"></path>
                    <polygon id="Path" points="105.418966 9.73333333 98.0534483 9.73333333 98.0534483 15.8 106.8 15.8 106.8 17.6666667 95.9818966 17.6666667 95.9818966 0.633333333 106.8 0.633333333 106.8 2.5 98.2836207 2.5 98.2836207 8.1 105.649138 8.1 105.649138 9.73333333"></polygon>
                    <path d="M132.118966,10.9 L127.975862,10.9 L127.975862,17.9 L125.674138,17.9 L125.674138,0.866666667 L131.428448,0.866666667 C133.269828,0.866666667 134.881034,1.33333333 135.801724,2.26666667 C136.952586,3.2 137.412931,4.36666667 137.412931,6 C137.412931,7.16666667 137.182759,8.1 136.492241,8.8 C135.801724,9.5 135.111207,10.2 134.190517,10.6666667 L138.333621,17.9 L138.333621,17.6666667 L135.801724,17.6666667 L132.118966,10.9 Z M127.975862,9.03333333 L131.428448,9.03333333 C132.57931,9.03333333 133.5,8.8 134.190517,8.1 C134.881034,7.4 135.111207,6.7 135.111207,5.76666667 C135.111207,4.6 134.881034,3.9 134.190517,3.43333333 C133.5,2.96666667 132.57931,2.5 131.428448,2.5 L127.975862,2.5 L127.975862,9.03333333 Z" id="Shape"></path>
                    <polygon id="Path" points="169.867241 17.6666667 167.565517 17.6666667 158.818966 4.6 158.818966 17.6666667 156.517241 17.6666667 156.517241 0.633333333 158.818966 0.633333333 167.565517 13.9333333 167.565517 0.633333333 169.867241 0.633333333"></polygon>
                    <path d="M203.472414,9.73333333 C203.472414,11.3666667 203.242241,12.7666667 202.551724,14.1666667 C201.861207,15.5666667 201.17069,16.2666667 200.25,16.9666667 C199.099138,17.6666667 197.948276,17.9 196.567241,17.9 C195.186207,17.9 194.035345,17.6666667 192.884483,16.9666667 C191.733621,16.2666667 191.043103,15.3333333 190.352586,14.1666667 C189.662069,13 189.431897,11.6 189.431897,9.96666667 L189.431897,8.8 C189.431897,7.16666667 189.662069,5.76666667 190.352586,4.36666667 C190.812931,3.2 191.733621,2.03333333 192.884483,1.56666667 C194.035345,0.866666667 195.186207,0.633333333 196.567241,0.633333333 C197.948276,0.633333333 199.099138,0.866666667 200.25,1.56666667 C201.400862,2.26666667 202.091379,3.2 202.781897,4.36666667 C203.242241,5.53333333 203.702586,7.16666667 203.702586,8.8 L203.702586,9.73333333 L203.472414,9.73333333 Z M201.17069,8.56666667 C201.17069,6.46666667 200.710345,5.06666667 200.019828,3.9 C199.099138,2.73333333 197.948276,2.26666667 196.567241,2.26666667 C195.186207,2.26666667 194.035345,2.73333333 193.114655,3.9 C192.193966,5.06666667 191.963793,6.46666667 191.733621,8.33333333 L191.733621,9.5 C191.733621,11.3666667 192.193966,13 192.884483,14.1666667 C193.575,15.3333333 194.956034,15.8 196.337069,15.8 C197.718103,15.8 198.868966,15.3333333 199.789655,14.1666667 C200.480172,13 200.940517,11.6 200.940517,9.5 L200.940517,8.56666667 L201.17069,8.56666667 Z" id="Shape"></path>
                    <path d="M223.037069,17.6666667 L223.037069,0.633333333 L227.87069,0.633333333 C229.251724,0.633333333 230.632759,0.866666667 231.783621,1.56666667 C232.934483,2.26666667 233.855172,3.2 234.54569,4.36666667 C235.236207,5.53333333 235.466379,6.93333333 235.466379,8.56666667 L235.466379,9.73333333 C235.466379,11.3666667 235.236207,12.7666667 234.54569,13.9333333 C233.855172,15.1 232.934483,16.0333333 231.783621,16.7333333 C230.632759,17.4333333 229.251724,17.6666667 227.640517,17.6666667 L223.037069,17.6666667 Z M225.338793,2.5 L225.338793,15.8 L227.640517,15.8 C229.481897,15.8 230.632759,15.3333333 231.783621,14.1666667 C232.70431,13 233.164655,11.6 233.164655,9.5 L233.164655,8.56666667 C233.164655,6.7 232.70431,5.06666667 231.783621,4.13333333 C230.862931,3.2 229.481897,2.5 227.87069,2.5 L225.338793,2.5 Z" id="Shape"></path>
                    <polygon id="Path" points="264.698276 9.73333333 257.332759 9.73333333 257.332759 15.8 266.07931 15.8 266.07931 17.6666667 255.261207 17.6666667 255.261207 0.633333333 266.07931 0.633333333 266.07931 2.5 257.562931 2.5 257.562931 8.1 264.928448 8.1 264.928448 9.73333333"></polygon>
                </g>
                <path d="M204.938843,1.60837521 C203.330579,2.99170854 199.195041,6.91115299 197.816529,8.75559743 C196.897521,9.90837521 196.667769,10.1389308 196.667769,10.8305974 C196.667769,11.2917085 196.667769,11.7528197 196.897521,11.9833752 C196.897521,12.2139308 201.952066,18.4389308 207.92562,26.0472641 C213.899174,33.6555974 218.953719,39.8805974 219.183471,40.3417085 C219.642975,41.0333752 219.642975,41.7250419 218.953719,42.6472641 C218.723967,43.1083752 213.439669,49.5639308 207.466116,57.1722641 C196.897521,70.5444863 196.438017,70.7750419 196.438017,71.6972641 C196.438017,72.3889308 196.667769,73.0805974 197.586777,74.0028197 L198.046281,74.6944863 L198.735537,74.0028197 C200.573554,72.1583752 235.266116,34.5778197 235.266116,34.3472641 C235.495868,34.1167085 235.495868,32.5028197 235.495868,28.8139308 L235.495868,23.7417085 L221.710744,12.6750419 C214.128926,6.45004188 207.695868,1.37781965 207.466116,1.37781965 C207.236364,1.1472641 206.77686,1.1472641 206.317355,1.1472641 C206.547107,0.455597432 206.087603,0.686152987 204.938843,1.60837521 L204.938843,1.60837521 Z" id="Path" fill="#FFFFFF"></path>
                <path d="M252.497521,11.9833752 L238.252893,23.2805974 L238.252893,28.8139308 C238.252893,33.886153 238.252893,34.3472641 237.793388,34.8083752 C237.563636,35.2694863 211.831405,63.1667085 202.41157,73.0805974 L199.884298,75.8472641 L201.26281,77.2305974 L202.641322,78.6139308 L222.859504,59.7083752 C233.887603,49.3333752 243.307438,40.8028197 243.766942,40.5722641 C244.456198,40.111153 244.68595,40.111153 249.740496,40.111153 L255.024793,40.111153 L266.282645,26.0472641 L277.540496,11.9833752 L277.540496,10.8305974 C277.540496,10.1389308 277.540496,9.90837521 276.85124,8.98615299 C275.242975,6.91115299 272.026446,3.68337521 269.499174,1.60837521 C268.350413,0.686152987 268.120661,0.455597432 267.201653,0.455597432 C266.742149,0.455597432 266.052893,1.1472641 252.497521,11.9833752 L252.497521,11.9833752 Z" id="Path" fill="#FFFFFF"></path>
                <path d="M1.14876033,24.8944863 C0.459504132,25.3555974 0.459504132,25.586153 0.459504132,27.8917085 L0.459504132,30.1972641 L3.67603306,30.1972641 L6.89256198,30.1972641 L7.58181818,30.8889308 L8.27107438,31.5805974 L13.0958678,31.5805974 L17.9206612,31.5805974 L17.9206612,37.5750419 L17.9206612,43.5694863 L18.3801653,44.0305974 C18.8396694,44.4917085 18.8396694,44.4917085 21.3669421,44.4917085 L23.8942149,44.4917085 L24.353719,44.0305974 L24.8132231,43.5694863 L24.8132231,37.5750419 L24.8132231,31.5805974 L30.0975207,31.5805974 L35.3818182,31.5805974 L35.3818182,44.0305974 L35.3818182,56.4805974 L35.8413223,56.9417085 C36.3008264,57.4028197 36.3008264,57.4028197 38.8280992,57.4028197 C41.1256198,57.4028197 41.3553719,57.4028197 41.814876,57.1722641 C42.0446281,56.9417085 42.2743802,56.711153 42.2743802,56.4805974 C42.2743802,56.2500419 42.2743802,49.7944863 42.2743802,42.186153 L42.2743802,28.1222641 L41.3553719,27.2000419 C41.1256198,26.7389308 40.6661157,26.2778197 40.2066116,25.8167085 C38.8280992,24.6639308 39.7471074,24.6639308 19.5289256,24.6639308 C6.89256198,24.6639308 1.3785124,24.6639308 1.14876033,24.8944863 L1.14876033,24.8944863 Z" id="Path" fill="#FFFFFF"></path>
                <path d="M50.3157025,24.8944863 C49.1669421,25.3555974 48.477686,26.0472641 47.7884298,26.7389308 L47.3289256,27.661153 L47.3289256,41.9555974 L47.3289256,56.2500419 L47.7884298,56.711153 C48.2479339,57.1722641 48.2479339,57.1722641 50.7752066,57.1722641 L53.3024793,57.1722641 L53.7619835,56.711153 L54.2214876,56.2500419 L54.2214876,52.3305974 L54.2214876,48.411153 L53.5322314,47.7194863 L52.6132231,47.2583752 L52.6132231,44.261153 L52.6132231,41.2639308 L53.3024793,40.5722641 L53.9917355,39.8805974 L53.9917355,35.7305974 L53.9917355,31.5805974 L64.7900826,31.5805974 L75.5884298,31.5805974 L75.5884298,36.1917085 L75.5884298,40.8028197 L65.4793388,40.8028197 L55.1404959,40.8028197 L54.6809917,41.2639308 L54.2214876,41.7250419 L54.2214876,44.0305974 L54.2214876,46.336153 L54.6809917,46.7972641 L55.1404959,47.2583752 L65.2495868,47.2583752 L75.3586777,47.2583752 L75.3586777,51.6389308 C75.3586777,57.1722641 75.1289256,56.711153 78.8049587,56.711153 C81.3322314,56.711153 81.3322314,56.711153 81.7917355,56.2500419 L82.2512397,55.7889308 L82.2512397,41.4944863 L82.2512397,27.2000419 L81.7917355,26.5083752 C81.5619835,26.0472641 81.1024793,25.586153 80.6429752,25.1250419 C79.2644628,23.9722641 79.7239669,23.9722641 64.3305785,23.9722641 C53.5322314,24.6639308 50.7752066,24.6639308 50.3157025,24.8944863 L50.3157025,24.8944863 Z" id="Path" fill="#FFFFFF"></path>
                <path d="M86.6165289,25.1250419 L86.1570248,25.586153 L86.1570248,27.8917085 C86.1570248,30.1972641 86.1570248,30.6583752 86.846281,31.1194863 C87.0760331,31.3500419 88.6842975,31.3500419 93.2793388,31.3500419 L99.4826446,31.3500419 L100.171901,30.6583752 L100.861157,29.9667085 L103.618182,29.9667085 L106.375207,29.9667085 L107.064463,30.6583752 L107.753719,31.3500419 L113.957025,31.3500419 L120.160331,31.3500419 L120.619835,30.8889308 C121.079339,30.4278197 121.079339,30.4278197 121.079339,27.8917085 C121.079339,26.5083752 121.079339,25.3555974 121.079339,25.1250419 C120.849587,24.4333752 121.079339,24.4333752 103.38843,24.4333752 L87.3057851,24.4333752 L86.6165289,25.1250419 L86.6165289,25.1250419 Z" id="Path" fill="#FFFFFF"></path>
                <path d="M126.363636,24.8944863 C125.444628,25.3555974 125.444628,24.8944863 125.444628,39.8805974 C125.444628,53.7139308 125.444628,53.9444863 125.904132,54.636153 C126.133884,55.0972641 126.593388,55.7889308 126.82314,56.0194863 C128.201653,57.1722641 127.512397,57.1722641 142.446281,57.1722641 L156.231405,57.1722641 L156.690909,56.711153 C157.150413,56.2500419 157.150413,56.2500419 157.150413,53.7139308 C157.150413,51.4083752 157.150413,51.1778197 156.690909,50.7167085 L156.231405,50.486153 L144.284298,50.486153 L132.33719,50.486153 L132.33719,41.4944863 L132.33719,32.5028197 L131.647934,31.811153 L130.728926,31.1194863 L130.728926,27.8917085 L130.728926,24.6639308 L128.661157,24.6639308 C127.512397,24.6639308 126.593388,24.8944863 126.363636,24.8944863 L126.363636,24.8944863 Z" id="Path" fill="#FFFFFF"></path>
                <path d="M132.33719,24.8944863 C132.33719,24.8944863 132.107438,26.2778197 132.107438,27.8917085 L132.107438,30.6583752 L132.566942,31.1194863 L133.026446,31.5805974 L144.51405,31.5805974 L156.001653,31.5805974 L156.461157,31.1194863 L156.920661,30.6583752 L156.920661,28.1222641 C156.920661,25.586153 156.920661,25.586153 156.461157,25.1250419 L156.231405,24.8944863 L144.284298,24.8944863 C137.85124,24.6639308 132.33719,24.6639308 132.33719,24.8944863 L132.33719,24.8944863 Z" id="Path" fill="#FFFFFF"></path>
                <path d="M161.975207,25.1250419 L161.515702,25.586153 L161.515702,41.0333752 L161.515702,56.4805974 L161.975207,56.9417085 C162.434711,57.4028197 162.434711,57.4028197 164.961983,57.4028197 C166.340496,57.4028197 167.489256,57.4028197 167.719008,57.4028197 C168.408264,57.1722641 168.408264,56.711153 168.408264,50.486153 L168.408264,44.7222641 L178.517355,44.7222641 L188.626446,44.7222641 L189.08595,44.261153 L189.545455,43.8000419 L189.545455,41.4944863 L189.545455,39.1889308 L189.08595,38.036153 L188.626446,37.5750419 L178.517355,37.5750419 L168.408264,37.5750419 L168.408264,31.5805974 L168.408264,25.586153 L167.719008,25.1250419 L167.259504,24.6639308 L164.732231,24.6639308 L162.204959,24.6639308 L161.975207,25.1250419 L161.975207,25.1250419 Z" id="Path" fill="#FFFFFF"></path>
                <path d="M190.234711,25.1250419 L189.775207,25.586153 L189.775207,31.1194863 L189.775207,36.6528197 L190.464463,37.3444863 L191.153719,38.036153 L191.153719,41.0333752 L191.153719,44.0305974 L190.464463,44.7222641 L189.775207,45.4139308 L189.775207,50.9472641 L189.775207,56.4805974 L190.234711,56.9417085 L190.694215,57.4028197 L193.221488,57.4028197 C195.74876,57.4028197 195.74876,57.4028197 196.208264,56.9417085 L196.667769,56.4805974 L196.667769,41.0333752 L196.667769,25.586153 L196.208264,25.1250419 C195.74876,24.6639308 195.519008,24.6639308 193.221488,24.6639308 C190.923967,24.6639308 190.694215,24.6639308 190.234711,25.1250419 L190.234711,25.1250419 Z" id="Path" fill="#FFFFFF"></path>
                <path d="M0.459504132,44.0305974 L0.459504132,56.4805974 L0.919008264,56.711153 C1.3785124,56.9417085 1.60826446,57.1722641 3.90578512,57.1722641 C6.43305785,57.1722641 6.43305785,57.1722641 6.89256198,56.711153 L7.12231405,56.4805974 L7.12231405,44.7222641 L7.12231405,32.9639308 L6.43305785,32.2722641 L5.74380165,31.5805974 L3.21652893,31.5805974 L0.459504132,31.5805974 L0.459504132,44.0305974 L0.459504132,44.0305974 Z" id="Path" fill="#FFFFFF"></path>
                <path d="M100.861157,32.2722641 L100.401653,32.7333752 L100.401653,44.4917085 L100.401653,56.2500419 L100.861157,56.711153 L101.320661,57.1722641 L103.847934,57.1722641 C106.375207,57.1722641 106.375207,57.1722641 106.834711,56.711153 L107.294215,56.2500419 L107.294215,44.4917085 L107.294215,32.5028197 L106.834711,32.0417085 L106.375207,31.5805974 L104.077686,31.5805974 L101.780165,31.5805974 L100.861157,32.2722641 L100.861157,32.2722641 Z" id="Path" fill="#FFFFFF"></path>
                <path d="M244.68595,42.4167085 C243.996694,42.8778197 204.249587,79.7667085 204.479339,79.9972641 C204.479339,79.9972641 204.938843,80.4583752 205.398347,80.9194863 C206.087603,81.611153 206.317355,81.611153 207.236364,81.611153 L208.155372,81.611153 L222.4,70.3139308 C231.819835,62.7055974 236.644628,59.0167085 237.104132,58.786153 C237.333884,58.786153 237.793388,58.786153 238.252893,59.0167085 C238.482645,59.2472641 245.145455,64.3194863 252.727273,70.5444863 L266.742149,81.8417085 L267.661157,81.8417085 C268.580165,81.8417085 268.580165,81.8417085 269.728926,80.9194863 C271.566942,79.536153 274.094215,77.0000419 275.702479,75.1555974 C277.540496,72.8500419 277.770248,72.8500419 277.770248,71.6972641 L277.770248,70.3139308 L266.512397,56.0194863 L255.254545,41.9555974 L250.429752,41.9555974 C245.834711,41.9555974 245.145455,41.9555974 244.68595,42.4167085 L244.68595,42.4167085 Z" id="Path" fill="#FFFFFF"></path>
            </g>
        </g>
    </g>
</svg>