<?xml version="1.0" encoding="utf-8"?>
<!-- Generator: Adobe Illustrator 24.3.0, SVG Export Plug-In . SVG Version: 6.00 Build 0)  -->
<svg version="1.1" id="Layer_1" xmlns="http://www.w3.org/2000/svg" xmlns:xlink="http://www.w3.org/1999/xlink" x="0px" y="0px"
	 viewBox="0 0 275 93" style="enable-background:new 0 0 275 93;" xml:space="preserve">
<style type="text/css">
	.st0{fill:#FFFFFF;}
</style>
<g>
	<g>
		<path class="st0" d="M18.4,80.7c-1.7-0.4-3.2-1.1-4-1.9c-0.8-0.6-1.3-1.7-1.3-2.8c0-1.3,0.4-2.3,1.5-3c1.1-0.8,2.3-1.3,3.8-1.3
			c1.1,0,2.1,0.2,3,0.6c0.8,0.4,1.5,1.1,1.9,1.7c0.4,0.6,0.6,1.5,0.6,2.3h-2.1c0-0.8-0.2-1.7-0.8-2.1c-0.6-0.6-1.5-0.8-2.5-0.8
			s-1.9,0.2-2.3,0.6c-0.6,0.4-0.8,1.1-0.8,1.9c0,0.6,0.2,1.3,0.8,1.7s1.5,0.8,2.8,1.3c1.3,0.4,2.3,0.8,3.2,1.3
			c0.8,0.2,1.3,0.8,1.7,1.3c0.4,0.6,0.6,1.3,0.6,2.1c0,1.3-0.4,2.3-1.5,3c-1.1,0.8-2.3,1.1-4,1.1c-1.1,0-2.1-0.2-3-0.6
			c-0.8-0.4-1.7-1.1-2.1-1.7s-0.8-1.5-0.8-2.3H15c0,0.8,0.4,1.7,1.1,2.1c0.6,0.4,1.7,0.8,2.8,0.8s1.9-0.2,2.5-0.6s0.8-1.1,0.8-1.7
			c0-0.8-0.2-1.3-0.8-1.7C20.7,81.5,19.8,81.1,18.4,80.7z"/>
		<path class="st0" d="M53.7,72v10.6c0,1.5-0.4,2.8-1.5,3.6c-0.8,0.8-2.1,1.5-3.8,1.5h-0.6c-1.7,0-3.2-0.4-4.2-1.3s-1.5-2.1-1.5-3.8
			V72h2.1v10.6c0,1.1,0.2,1.9,0.8,2.5c0.6,0.6,1.5,0.8,2.8,0.8c1.3,0,2.1-0.2,2.8-0.8c0.6-0.6,0.8-1.5,0.8-2.5V72
			C51.4,72,53.7,72,53.7,72z"/>
		<path class="st0" d="M74.7,81.5v6.1h-2.1V72.2h5.9c1.7,0,3.2,0.4,4,1.3c1.1,0.8,1.5,1.9,1.5,3.4c0,1.5-0.4,2.8-1.5,3.4
			c-1.1,0.8-2.3,1.3-4.2,1.3C78.3,81.5,74.7,81.5,74.7,81.5z M74.7,79.9h3.8c1.1,0,1.9-0.2,2.5-0.8c0.6-0.6,0.8-1.3,0.8-2.3
			c0-0.8-0.2-1.7-0.8-2.1c-0.6-0.6-1.5-0.8-2.5-0.8h-3.8C74.7,73.7,74.7,79.9,74.7,79.9z"/>
		<path class="st0" d="M111.1,80.5h-7V86h8v1.7H102V72.2h10v1.7h-7.8V79h6.8v1.5H111.1z"/>
		<path class="st0" d="M136.1,81.3h-3.8v6.4h-2.1V72.2h5.3c1.7,0,3.2,0.4,4,1.3c1.1,0.8,1.5,1.9,1.5,3.4c0,1.1-0.2,1.9-0.8,2.5
			s-1.3,1.3-2.3,1.7l3.8,6.6v0.2h-2.3L136.1,81.3z M132.5,79.6h3.2c1.1,0,1.9-0.2,2.5-0.8c0.6-0.6,0.8-1.3,0.8-2.1
			c0-1.1-0.2-1.7-0.8-2.1s-1.5-0.8-2.5-0.8h-3.2V79.6z"/>
		<path class="st0" d="M171.9,87.7h-2.1l-8-11.9v11.9h-2.1V72.2h2.1l8,12.1V72.2h2.1V87.7z"/>
		<path class="st0" d="M203.4,80.3c0,1.5-0.2,2.8-0.8,4c-0.4,1.1-1.3,1.9-2.1,2.5c-1.1,0.6-2.1,0.8-3.4,0.8c-1.3,0-2.3-0.2-3.4-0.8
			c-1.1-0.6-1.7-1.5-2.3-2.5c-0.6-1.1-0.8-2.3-0.8-3.8v-1.1c0-1.5,0.2-2.8,0.8-4c0.4-1.1,1.3-2.1,2.3-2.5c1.1-0.6,2.1-0.8,3.4-0.8
			c1.3,0,2.3,0.2,3.4,0.8s1.7,1.5,2.3,2.5c0.4,1.1,0.8,2.5,0.8,4v0.8H203.4z M201.3,79.4c0-1.9-0.4-3.2-1.1-4.2
			c-0.8-1.1-1.9-1.5-3.2-1.5c-1.3,0-2.3,0.4-3.2,1.5c-0.8,1.1-1.1,2.3-1.3,4v1.1c0,1.7,0.4,3.2,1.1,4.2c0.8,1.1,1.9,1.5,3.2,1.5
			c1.3,0,2.3-0.4,3.2-1.5c0.8-1.1,1.1-2.3,1.1-4.2v-0.8H201.3z"/>
		<path class="st0" d="M222,87.7V72.2h4.4c1.5,0,2.5,0.2,3.6,0.8c1.1,0.6,1.9,1.5,2.5,2.5c0.6,1.1,0.8,2.3,0.8,3.8v1.1
			c0,1.5-0.2,2.8-0.8,3.8c-0.6,1.1-1.5,1.9-2.5,2.5c-1.1,0.6-2.3,0.8-3.8,0.8C226.3,87.7,222,87.7,222,87.7z M224.2,73.7v12.1h2.1
			c1.7,0,3-0.4,3.8-1.5c0.8-1.1,1.3-2.3,1.3-4.2v-0.8c0-1.7-0.4-3.2-1.3-4c-0.8-1.1-2.1-1.5-3.6-1.5
			C226.5,73.7,224.2,73.7,224.2,73.7z"/>
		<path class="st0" d="M261.2,80.5h-6.8V86h8v1.7h-10.2V72.2h10v1.7h-7.8V79h6.8V80.5z"/>
	</g>
</g>
<g>
	<g>
		<path class="st0" d="M75.3,31.2c-1.1,2.3-2.3,4.4-4,6.4c-2.5,3.2-4.9,0-3.2-1.7c3-4,5.1-5.7,5.1-11.6v-4.9c0-1.3,0.8-2.1,2.1-2.1
			s2.1,0.8,2.1,2.1v5.5c0,5.3,1.7,6.6,4.7,10.6c0.6,0.8,0.6,1.9-0.2,2.5c-0.8,0.6-1.9,0.6-2.5-0.2l0,0
			C77.6,35.8,76.1,33.7,75.3,31.2z M84.8,40.3V28.6h-4.2c-1.1-0.4-1.7-1.5-1.3-2.8c0.2-0.6,0.6-1.1,1.3-1.3h4.2v-6.1
			c0-1.3,0.8-2.1,2.1-2.1c1.3,0,2.1,0.8,2.1,2.1v21.8c0,1.3-0.8,2.1-2.1,2.1C85.7,42.4,84.8,41.5,84.8,40.3z M91.4,43.6V17.2
			c0-1.3,0.8-2.1,2.1-2.1c1.3,0,2.1,0.8,2.1,2.1v26.5c0,1.3-0.8,2.1-2.1,2.1C92.2,45.8,91.4,44.9,91.4,43.6z"/>
		<g>
			<path class="st0" d="M113.2,31.2c-4.2-0.2-7.8,3-8,7.2s3,7.8,7.2,8c4.2,0.2,7.8-3,8-7.2c0-0.2,0-0.2,0-0.4c0.2-4-2.8-7.4-6.6-7.6
				C113.6,31.2,113.4,31.2,113.2,31.2z M113.2,42.8c-1.9,0-3.6-1.7-3.6-3.6V39c0-2.1,1.5-3.8,3.6-3.8c1.9,0,3.6,1.7,3.6,3.6V39
				c0.2,1.9-1.3,3.6-3.2,3.8C113.4,42.8,113.4,42.8,113.2,42.8z"/>
			<path class="st0" d="M100.5,32.8c-1.1-0.4-1.7-1.5-1.3-2.8c0.2-0.6,0.6-1.1,1.3-1.3h10.8v-1.5c0-1.3,0.8-2.1,2.1-2.1
				c1.3,0,2.1,0.8,2.1,2.1v1.5h10.6c1.1,0.4,1.7,1.5,1.3,2.8c-0.2,0.6-0.6,1.1-1.3,1.3H100.5z M113.2,23.1c-3,3.4-7.2,5.1-11.6,4.9
				c-1.1-0.4-1.7-1.5-1.3-2.8c0.2-0.6,0.6-1.1,1.3-1.3c3.4,0.2,6.8-1.3,8.9-4h-8.7c-1.1,0-1.9-0.8-1.9-1.9s0.8-1.9,1.9-1.9l0,0h22.9
				c1.1,0,1.9,0.8,1.9,1.9s-0.8,1.9-1.9,1.9l0,0h-8.7c1.9,2.8,5.3,4.4,8.7,4.2c1.1,0,1.9,0.8,1.9,1.9c0,1.1-0.8,1.9-1.9,1.9l0,0
				C120.4,28.2,116.2,26.3,113.2,23.1z"/>
		</g>
		<path class="st0" d="M132.2,30.7c-1.1-0.4-1.7-1.5-1.3-2.8c0.2-0.6,0.6-1.1,1.3-1.3h10.6v-2.5c0-1.3,0.8-2.1,2.1-2.1
			c1.3,0,2.1,0.8,2.1,2.1v2.5h10.8c1.1,0.4,1.7,1.5,1.3,2.8c-0.2,0.6-0.6,1.1-1.3,1.3C157.9,30.7,132.2,30.7,132.2,30.7z
			 M145.4,20.1c-0.2-0.2-0.2-0.2-0.4,0c-3.2,3-7.2,4.9-11.4,5.1c-1.1-0.4-1.7-1.5-1.3-2.8c0.2-0.6,0.6-1.1,1.3-1.3
			c3.4-0.2,6.6-1.7,9.1-4.2c1.9-1.9,3.6-1.9,5.3,0c2.5,2.3,5.9,3.8,9.3,4.2c1.3,0,2.1,1.1,2.1,2.1c0,1.3-1.1,2.1-2.3,2.1
			C152.8,24.8,148.5,23.1,145.4,20.1z M135.6,44.9c-2.3,0-3.6-1.1-3.6-3.4v-1.7c0-2.1,1.3-3.2,3.6-3.2h18.2c0.2,0,0.2-0.2,0.2-0.4
			s0-0.4-0.2-0.4h-19.9c-1.1,0-1.9-0.8-1.9-1.9s0.8-1.9,1.9-1.9l0,0h20.8c1.7-0.2,3.4,1.1,3.6,2.8c0,0.2,0,0.4,0,0.6v1.7
			c0,2.3-1.3,3.2-3.6,3.2h-18.2c-0.2,0-0.2,0.2-0.2,0.4c0,0.2,0,0.4,0.2,0.4h20.3c1.1,0,1.9,0.8,1.9,1.9c0,1.1-0.8,1.9-1.9,1.9l0,0
			C156.8,44.9,135.6,44.9,135.6,44.9z"/>
		<path class="st0" d="M178.6,38.1v5.5c0,1.3-0.8,2.1-2.1,2.1c-1.3,0-2.1-0.8-2.1-2.1v-5.5h-10.8c-1.1-0.4-1.7-1.5-1.3-2.8
			c0.2-0.6,0.6-1.1,1.3-1.3h25.6c2.3,0,2.5,4,0,4C189.2,38.1,178.6,38.1,178.6,38.1z M167,31.6c-2.3,0-3.6-1.1-3.6-3.4v-3
			c-0.2-1.7,1.1-3.4,2.8-3.6c0.2,0,0.4,0,0.8,0h18c0.2,0,0.2,0,0.2-0.2v-1.3h-20.1c-1.1-0.4-1.7-1.5-1.3-2.8
			c0.2-0.6,0.6-1.1,1.3-1.3h21c2.3,0,3.6,1.1,3.6,3.4v3c0.2,1.7-1.3,3.2-3,3.4c-0.2,0-0.4,0-0.6,0h-18.2v1.7c0,0.2,0,0.2,0.2,0.2
			h20.3c1.1,0.4,1.7,1.5,1.3,2.8c-0.2,0.6-0.6,1.1-1.3,1.3C188.4,31.8,167,31.6,167,31.6z"/>
		<path class="st0" d="M215.7,43.9V40c0-0.2,0-0.2-0.2-0.2h-16.5c-1.1-0.4-1.7-1.5-1.3-2.8c0.2-0.6,0.6-1.1,1.3-1.3h17.4
			c2.3,0,3.6,1.1,3.6,3.4v4.4c0,1.3-0.8,2.1-1.9,2.1S215.7,45.1,215.7,43.9L215.7,43.9z M197.5,34.8c-1.7,0.2-3.4-1.1-3.6-2.8
			c0-0.2,0-0.4,0-0.6V19.5c-0.2-1.7,1.3-3.2,3-3.4c0.2,0,0.4,0,0.6,0h7c1.1,0.4,1.7,1.5,1.3,2.8c-0.2,0.6-0.6,1.1-1.3,1.3h-6.6v3
			h5.5c1.1,0.4,1.7,1.5,1.3,2.8c-0.2,0.6-0.6,1.1-1.3,1.3h-5.5v3.4c0,0.2,0,0.2,0.2,0.2c2.8,0,4.9-0.2,7.4-0.2c2.5,0,2.5,3.8,0.2,4
			C203.4,34.8,200,34.8,197.5,34.8z M209.5,33.3v-5.5h-1.3c-1.1-0.4-1.7-1.5-1.3-2.8c0.2-0.6,0.6-1.1,1.3-1.3h1.3v-6.1
			c0-1.3,0.8-2.1,2.1-2.1c1.3,0,2.1,0.8,2.1,2.1v15.7c0,1.3-0.8,2.1-2.1,2.1C210.4,35.4,209.5,34.5,209.5,33.3z M215.7,33.7V17.2
			c0-1.3,0.8-2.1,2.1-2.1s2.1,0.8,2.1,2.1v16.5c0,1.3-0.8,2.1-2.1,2.1S215.7,35,215.7,33.7z"/>
		<path class="st0" d="M229.6,16.1c1.5-1.9,3.4,0.2,1.9,2.1c-6.4,7-6.4,17.8,0,24.8c1.5,1.9-0.4,3.8-1.9,2.1
			C222,35.8,222,25.2,229.6,16.1z"/>
		<path class="st0" d="M245.1,46c-0.4,0-0.6-0.2-1.1-0.4c-0.4-0.4-0.4-0.8-0.4-1.5v-7.8h-10.2c-1.1,0-1.3-1.1-1.3-1.7
			s0.4-1.7,1.3-1.7H257c0.8,0,1.3,0.8,1.3,1.7s-0.2,1.7-1.3,1.7h-10.6v7.8C246.4,45.3,245.7,46,245.1,46z M255.9,29.9
			c-4.2-0.2-8.3-2.3-10.6-5.9l-0.4-0.4l-0.4,0.4c-2.3,3.4-6.1,5.5-10.4,5.7c-1.1,0-1.5-1.1-1.5-1.9c0-0.4,0.2-0.8,0.4-1.3
			c0.2-0.4,0.6-0.4,1.1-0.4c3.8,0,7.2-2.1,8.9-5.5l0.4-0.6h-8.9c-0.8,0-1.3-0.8-1.3-1.7s0.2-1.7,1.3-1.7h21.2c1.1,0,1.3,1.1,1.3,1.7
			s-0.4,1.7-1.3,1.7h-9.1l0.4,0.6c1.7,3.6,5.3,5.7,9.3,5.7c0.8,0,1.3,0.8,1.3,1.7c0,0.4-0.2,0.8-0.4,1.3
			C257,29.7,256.3,29.9,255.9,29.9z"/>
		<path class="st0" d="M259.1,43c6.6-8,6.1-17.2,0-24.8c-1.5-1.9,0.4-4,1.9-2.1c7.4,9.1,7.4,19.7,0,29
			C259.5,46.8,257.6,44.9,259.1,43z"/>
	</g>
	<g>
		<g>
			<path class="st0" d="M38.7,28c0.6,0.4,1.3,1.1,1.3,1.9v9.3c0,0.4-0.4,0.8-0.8,0.8c-0.2,0-0.4,0-0.4-0.2L14.7,29
				c-0.6-0.2-1.3-0.6-1.3-1.3v-9.1c0-0.6,0.6-1.7,1.3-1.5L38.7,28z"/>
			<path class="st0" d="M38.7,17.6c0.6-0.4,1.3-1.1,1.3-1.9V6.4c0-0.4-0.4-0.8-0.8-0.8c-0.2,0-0.4,0-0.4,0.2L14.7,16.5
				c-0.8,0.4-1.3,1.1-1.3,1.9v9.3c0,0.6,0.6,0.8,1.3,0.6L38.7,17.6z"/>
			<path class="st0" d="M53.3,21.4c0-0.8-0.4-1.7-1.1-2.1L44,15.7c-0.6-0.2-1.1,0.2-1.1,1.1v27.3c0,0.8,0.4,1.7,1.1,2.1l8.3,3.6
				c0.6,0.2,1.1-0.2,1.1-1.1V21.4z"/>
			<path class="st0" d="M38.9,40.9c0.6-0.4,1.3-1.1,1.3-1.9v-9.3c0-0.4-0.4-0.8-0.8-0.8c-0.2,0-0.4,0-0.4,0.2L14.9,39.8
				c-0.8,0.2-1.5,1.1-1.5,1.9v9.3c0,0.6,0.6,1.1,1.5,0.6L38.9,40.9z"/>
			<path class="st0" d="M52,50.6c0.6-0.4,1.3-1.1,1.3-1.9v-9.3c0-0.4-0.4-0.8-0.8-0.8c-0.2,0-0.4,0-0.4,0.2L28.1,49.6
				c-0.6,0.4-1.3,1.1-1.3,1.9v9.3c0,0.4,0.4,0.8,0.8,0.8c0.2,0,0.4,0,0.4-0.2L52,50.6z"/>
			<path class="st0" d="M14.7,28.4L27,22.9l0,0l3.4,1.3l-16.1,4.2H14.7z"/>
			<path class="st0" d="M38.4,29l-11.6,5.3l0,0l-3.2-1.5l15.5-4l0,0C38.7,29,38.7,29,38.4,29z"/>
			<polygon class="st0" points="52.2,38.8 42.9,41.7 42.9,42.8 			"/>
		</g>
		<path class="st0" d="M8.8,19.7"/>
		<path class="st0" d="M53.5,16.3c0,1.1-0.8,1.7-1.7,1.7c0,0,0,0-0.2,0l-7.2-3.4c-1.1,0-1.9-0.6-1.9-1.7V6.6c0-1.1,0.8-1.7,1.7-1.7
			c0,0,0,0,0.2,0l7.2,3.4c1.1,0,1.9,0.6,1.9,1.7V16.3z"/>
	</g>
</g>
</svg>
