<?xml version="1.0" encoding="UTF-8"?>
<svg width="33px" height="33px" viewBox="0 0 33 33" version="1.1" xmlns="http://www.w3.org/2000/svg" xmlns:xlink="http://www.w3.org/1999/xlink">
    <!-- Generator: Sketch 64 (93537) - https://sketch.com -->
    <title>telegram copy</title>
    <desc>Created with Sketch.</desc>
    <g id="Page-1" stroke="none" stroke-width="1" fill="none" fill-rule="evenodd">
        <g id="About" transform="translate(-217.000000, -2015.000000)" fill="#000000" fill-rule="nonzero">
            <g id="telegram-copy" transform="translate(217.000000, 2015.000000)">
                <path d="M16.5,0 C7.38508065,0 0,7.38508065 0,16.5 C0,25.6149194 7.38508065,33 16.5,33 C25.6149194,33 33,25.6149194 33,16.5 C33,7.38508065 25.6149194,0 16.5,0 Z M24.603629,11.3038306 L21.8957661,24.0647177 C21.6961694,24.9695565 21.1572581,25.1891129 20.4054435,24.7633065 L16.2804435,21.7227823 L14.291129,23.6389113 C14.0715726,23.8584677 13.8852823,24.0447581 13.4594758,24.0447581 L13.7522177,19.8465726 L21.3967742,12.9405242 C21.7294355,12.6477823 21.3235887,12.4814516 20.8844758,12.7741935 L11.4368952,18.7221774 L7.36512097,17.4514113 C6.48024194,17.1719758 6.46028226,16.5665323 7.55141129,16.1407258 L23.4592742,10.0064516 C24.1977823,9.74032258 24.8431452,10.1860887 24.603629,11.3038306 L24.603629,11.3038306 Z" id="Shape"></path>
            </g>
        </g>
    </g>
</svg>