<?xml version="1.0" encoding="UTF-8"?>
<svg width="35px" height="28px" viewBox="0 0 35 28" version="1.1" xmlns="http://www.w3.org/2000/svg" xmlns:xlink="http://www.w3.org/1999/xlink">
    <!-- Generator: Sketch 64 (93537) - https://sketch.com -->
    <title>twitter copy</title>
    <desc>Created with Sketch.</desc>
    <g id="Page-1" stroke="none" stroke-width="1" fill="none" fill-rule="evenodd">
        <g id="About" transform="translate(-304.000000, -2020.000000)" fill="#000000" fill-rule="nonzero">
            <g id="twitter-copy" transform="translate(304.000000, 2020.000000)">
                <path d="M31.4023688,6.97809959 C31.4245856,7.28433497 31.4245856,7.59063768 31.4245856,7.89687305 C31.4245856,17.237456 24.2069696,28 11.0152676,28 C6.9511502,28 3.17578389,26.8405746 0,24.828161 C0.577433896,24.8937444 1.13258255,24.915628 1.73223333,24.915628 C5.08561557,24.915628 8.17260028,23.800037 10.6377173,21.8969067 C7.48415033,21.831256 4.84136657,19.7968916 3.93081614,16.9968714 C4.37501709,17.0624548 4.81914968,17.1062219 5.28556752,17.1062219 C5.92958371,17.1062219 6.57366826,17.0186876 7.17325068,16.8656373 C3.88645073,16.209332 1.42126532,13.365612 1.42126532,9.93123748 L1.42126532,9.84377052 C2.37618116,10.3687743 3.48668354,10.6968933 4.6636315,10.7405931 C2.73151458,9.47181708 1.46569908,7.30621854 1.46569908,4.85620087 C1.46569908,3.54372507 1.82096414,2.3405998 2.44283181,1.29059223 C5.97394912,5.57808949 11.2817335,8.37804236 17.2334658,8.68434507 C17.1224497,8.15934128 17.055799,7.61252125 17.055799,7.06563389 C17.055799,3.17183897 20.2537998,0 24.2290497,0 C26.2943996,0 28.1598659,0.853122738 29.4701835,2.23124926 C31.0913324,1.92501389 32.645899,1.33435938 34.0228673,0.525003788 C33.4897988,2.16566587 32.3572162,3.5437924 30.8693003,4.41873138 C32.3128508,4.26568102 33.7119676,3.87184402 35,3.32502399 C34.023004,4.72496675 32.8014856,5.97179183 31.4023688,6.97809959 Z" id="Path"></path>
            </g>
        </g>
    </g>
</svg>