<?xml version="1.0" encoding="UTF-8"?>
<svg width="266px" height="104px" viewBox="0 0 266 104" version="1.1" xmlns="http://www.w3.org/2000/svg" xmlns:xlink="http://www.w3.org/1999/xlink">
    <!-- Generator: Sketch 64 (93537) - https://sketch.com -->
    <title>xy_ltd_new supernode</title>
    <desc>Created with Sketch.</desc>
    <g id="Page-1" stroke="none" stroke-width="1" fill="none" fill-rule="evenodd">
        <g id="Supernode" transform="translate(-325.000000, -5086.000000)" fill="#FFFFFF" fill-rule="nonzero">
            <g id="xy_ltd_new-supernode" transform="translate(325.000000, 5086.000000)">
                <path d="M7.24615385,95.8234506 C5.41367521,95.3567839 3.81025641,94.6567839 3.12307692,93.7234506 C2.43589744,92.7901173 1.74871795,91.8567839 1.74871795,90.6901173 C1.74871795,89.2901173 2.20683761,88.1234506 3.35213675,87.4234506 C4.4974359,86.4901173 5.87179487,86.0234506 7.47521368,86.0234506 C8.62051282,86.0234506 9.76581197,86.2567839 10.6820513,86.7234506 C11.5982906,87.1901173 12.2854701,87.8901173 12.7435897,88.5901173 C13.2017094,89.2901173 13.4307692,90.2234506 13.4307692,91.1567839 L11.1401709,91.1567839 C11.1401709,90.2234506 10.9111111,89.2901173 10.2239316,88.8234506 C9.53675214,88.1234506 8.62051282,87.8901173 7.47521368,87.8901173 C6.32991453,87.8901173 5.41367521,88.1234506 4.95555556,88.5901173 C4.4974359,89.0567839 4.03931624,89.7567839 4.03931624,90.6901173 C4.03931624,91.3901173 4.26837607,92.0901173 4.95555556,92.5567839 C5.64273504,93.0234506 6.55897436,93.4901173 7.93333333,93.9567839 C9.30769231,94.4234506 10.4529915,94.8901173 11.3692308,95.3567839 C12.2854701,95.8234506 12.7435897,96.2901173 13.2017094,96.9901173 C13.6598291,97.6901173 13.8888889,98.3901173 13.8888889,99.3234506 C13.8888889,100.723451 13.4307692,101.890117 12.2854701,102.590117 C11.1401709,103.523451 9.76581197,103.756784 7.93333333,103.756784 C6.78803419,103.756784 5.64273504,103.523451 4.72649573,103.056784 C3.81025641,102.590117 2.43589744,102.123451 1.97777778,101.190117 C1.51965812,100.490117 1.06153846,99.5567839 1.06153846,98.6234506 L3.35213675,98.6234506 C3.35213675,99.5567839 3.81025641,100.490117 4.4974359,100.956784 C5.18461538,101.656784 6.32991453,101.890117 7.47521368,101.890117 C8.62051282,101.890117 9.53675214,101.656784 10.2239316,101.190117 C10.9111111,100.723451 11.1401709,100.023451 11.1401709,99.3234506 C11.1401709,98.3901173 10.9111111,97.9234506 10.2239316,97.4567839 C9.76581197,96.7567839 8.62051282,96.2901173 7.24615385,95.8234506 Z" id="Path"></path>
                <path d="M44.582906,86.4901173 L44.582906,98.1567839 C44.582906,99.7901173 44.1247863,101.190117 42.9794872,102.123451 C42.0632479,103.056784 40.6888889,103.756784 38.8564103,103.756784 L38.1692308,103.756784 C36.3367521,103.756784 34.7333333,103.290117 33.5880342,102.356784 C32.442735,101.423451 31.9846154,100.023451 31.9846154,98.1567839 L31.9846154,86.4901173 L34.2752137,86.4901173 L34.2752137,98.1567839 C34.2752137,99.3234506 34.5042735,100.256784 35.191453,100.956784 C35.8786325,101.656784 36.7948718,101.890117 38.1692308,101.890117 C39.5435897,101.890117 40.4598291,101.656784 41.1470085,100.956784 C41.834188,100.256784 42.0632479,99.3234506 42.0632479,98.1567839 L42.0632479,86.4901173 L44.582906,86.4901173 Z" id="Path"></path>
                <path d="M66.3435897,96.7567839 L66.3435897,103.523451 L64.0529915,103.523451 L64.0529915,86.4901173 L70.4666667,86.4901173 C72.2991453,86.4901173 73.9025641,86.9567839 74.8188034,87.8901173 C75.9641026,88.8234506 76.4222222,90.2234506 76.4222222,91.6234506 C76.4222222,93.2567839 75.9641026,94.6567839 74.8188034,95.3567839 C73.6735043,96.2901173 72.2991453,96.7567839 70.4666667,96.7567839 C70.4666667,96.7567839 66.3435897,96.7567839 66.3435897,96.7567839 Z M66.3435897,95.1234506 L70.4666667,95.1234506 C71.6119658,95.1234506 72.5282051,94.8901173 73.2153846,94.1901173 C73.9025641,93.4901173 74.1316239,92.7901173 74.1316239,91.6234506 C74.1316239,90.6901173 73.9025641,89.7567839 73.2153846,89.2901173 C72.5282051,88.8234506 71.6119658,88.3567839 70.4666667,88.3567839 L66.3435897,88.3567839 L66.3435897,95.1234506 Z" id="Shape"></path>
                <polygon id="Path" points="105.054701 95.5901173 97.7247863 95.5901173 97.7247863 101.656784 106.42906 101.656784 106.42906 103.523451 95.6632479 103.523451 95.6632479 86.4901173 106.42906 86.4901173 106.42906 88.3567839 97.9538462 88.3567839 97.9538462 93.9567839 105.283761 93.9567839"></polygon>
                <path d="M131.625641,96.7567839 L127.502564,96.7567839 L127.502564,103.756784 L125.211966,103.756784 L125.211966,86.7234506 L130.938462,86.7234506 C132.77094,86.7234506 134.374359,87.1901173 135.290598,88.1234506 C136.435897,89.0567839 136.894017,90.2234506 136.894017,91.8567839 C136.894017,93.0234506 136.664957,93.9567839 135.977778,94.6567839 C135.290598,95.3567839 134.603419,96.0567839 133.687179,96.5234506 L137.810256,103.756784 L137.810256,103.523451 L135.290598,103.523451 L131.625641,96.7567839 Z M127.502564,94.8901173 L130.938462,94.8901173 C132.083761,94.8901173 133,94.6567839 133.687179,93.9567839 C134.374359,93.2567839 134.603419,92.5567839 134.603419,91.6234506 C134.603419,90.4567839 134.374359,89.7567839 133.687179,89.2901173 C133,88.8234506 132.083761,88.3567839 130.938462,88.3567839 L127.502564,88.3567839 L127.502564,94.8901173 L127.502564,94.8901173 Z" id="Shape"></path>
                <polygon id="Path" points="169.191453 103.523451 166.900855 103.523451 158.196581 90.4567839 158.196581 103.523451 155.905983 103.523451 155.905983 86.4901173 158.196581 86.4901173 166.900855 99.7901173 166.900855 86.4901173 169.191453 86.4901173"></polygon>
                <path d="M202.634188,95.5901173 C202.634188,97.2234506 202.405128,98.6234506 201.717949,100.023451 C201.030769,101.423451 200.34359,102.123451 199.42735,102.823451 C198.282051,103.523451 197.136752,103.756784 195.762393,103.756784 C194.388034,103.756784 193.242735,103.523451 192.097436,102.823451 C190.952137,102.123451 190.264957,101.190117 189.577778,100.023451 C188.890598,98.8567839 188.661538,97.4567839 188.661538,95.8234506 L188.661538,94.6567839 C188.661538,93.0234506 188.890598,91.6234506 189.577778,90.2234506 C190.035897,89.0567839 190.952137,87.8901173 192.097436,87.4234506 C193.242735,86.7234506 194.388034,86.4901173 195.762393,86.4901173 C197.136752,86.4901173 198.282051,86.7234506 199.42735,87.4234506 C200.57265,88.1234506 201.259829,89.0567839 201.947009,90.2234506 C202.405128,91.3901173 202.863248,93.0234506 202.863248,94.6567839 L202.634188,95.5901173 L202.634188,95.5901173 Z M200.34359,94.4234506 C200.34359,92.3234506 199.88547,90.9234506 199.198291,89.7567839 C198.282051,88.5901173 197.136752,88.1234506 195.762393,88.1234506 C194.388034,88.1234506 193.242735,88.5901173 192.326496,89.7567839 C191.410256,90.9234506 191.181197,92.3234506 190.952137,94.1901173 L190.952137,95.3567839 C190.952137,97.2234506 191.410256,98.8567839 192.097436,100.023451 C192.784615,101.190117 194.158974,101.656784 195.533333,101.656784 C196.907692,101.656784 198.052991,101.190117 198.969231,100.023451 C199.65641,98.8567839 200.11453,97.4567839 200.11453,95.3567839 L200.34359,94.4234506 L200.34359,94.4234506 Z" id="Shape"></path>
                <path d="M222.104274,103.523451 L222.104274,86.4901173 L226.91453,86.4901173 C228.288889,86.4901173 229.663248,86.7234506 230.808547,87.4234506 C231.953846,88.1234506 232.870085,89.0567839 233.557265,90.2234506 C234.244444,91.3901173 234.473504,92.7901173 234.473504,94.4234506 L234.473504,95.5901173 C234.473504,97.2234506 234.244444,98.6234506 233.557265,99.7901173 C232.870085,100.956784 231.953846,101.890117 230.808547,102.590117 C229.663248,103.290117 228.288889,103.523451 226.68547,103.523451 L222.104274,103.523451 Z M224.394872,88.3567839 L224.394872,101.656784 L226.68547,101.656784 C228.517949,101.656784 229.663248,101.190117 230.808547,100.023451 C231.724786,98.8567839 232.182906,97.4567839 232.182906,95.3567839 L232.182906,94.4234506 C232.182906,92.5567839 231.724786,90.9234506 230.808547,89.9901173 C229.892308,89.0567839 228.517949,88.3567839 226.91453,88.3567839 L224.394872,88.3567839 Z" id="Shape"></path>
                <polygon id="Path" points="263.564103 95.5901173 256.234188 95.5901173 256.234188 101.656784 264.938462 101.656784 264.938462 103.523451 254.17265 103.523451 254.17265 86.4901173 264.938462 86.4901173 264.938462 88.3567839 256.463248 88.3567839 256.463248 93.9567839 263.793162 93.9567839 263.793162 95.5901173"></polygon>
                <polygon id="Path" points="107.116239 12.2767839 107.116239 17.7967839 110.552137 17.7967839 110.552137 12.2767839 119.02735 12.2767839 119.02735 8.82678392 110.552137 8.82678392 110.552137 3.53678392 107.116239 3.53678392 107.116239 8.82678392 91.3111111 8.82678392 91.3111111 3.53678392 87.8752137 3.53678392 87.8752137 8.82678392 79.1709402 8.82678392 79.1709402 12.2767839 87.8752137 12.2767839 87.8752137 17.7967839 91.3111111 17.7967839 91.3111111 12.2767839"></polygon>
                <polygon id="Path" points="95.8923077 21.9367839 92.4564103 21.9367839 92.4564103 64.7167839 95.8923077 64.7167839 112.384615 64.7167839 112.384615 61.2667839 95.8923077 61.2667839"></polygon>
                <polygon id="Path" points="103.680342 57.3567839 107.116239 57.3567839 104.138462 20.3267839 100.702564 20.3267839"></polygon>
                <polygon id="Path" points="114.446154 21.9367839 111.010256 21.9367839 116.736752 64.7167839 120.17265 64.7167839"></polygon>
                <polygon id="Path" points="80.3162393 64.7167839 83.7521368 64.7167839 86.7299145 21.9367839 83.2940171 21.9367839"></polygon>
                <polygon id="Path" points="134.145299 58.7367839 134.145299 15.4967839 136.664957 15.4967839 136.664957 12.0467839 134.145299 12.0467839 134.145299 3.07678392 130.709402 3.07678392 130.709402 12.0467839 128.189744 12.0467839 128.189744 15.4967839 130.709402 15.4967839 130.709402 59.4267839 126.815385 60.5767839 126.815385 64.0267839 138.268376 61.0367839 138.268376 57.5867839 132.54188 58.9667839"></polygon>
                <path d="M148.347009,54.1367839 L151.782906,54.1367839 L151.782906,50.6867839 L151.782906,20.5567839 L151.782906,17.1067839 L148.347009,17.1067839 L143.307692,17.1067839 L139.871795,17.1067839 L139.871795,20.5567839 L139.871795,50.6867839 L139.871795,54.1367839 L143.307692,54.1367839 L148.347009,54.1367839 Z M143.307692,20.5567839 L148.347009,20.5567839 L148.347009,50.6867839 L143.307692,50.6867839 L143.307692,20.5567839 Z" id="Shape"></path>
                <polygon id="Path" points="167.358974 67.2467839 163.006838 42.4067839 167.358974 20.3267839 163.923077 20.3267839 161.403419 33.4367839 157.509402 12.0467839 165.984615 12.0467839 165.984615 8.82678392 165.984615 8.59678392 165.984615 5.60678392 162.548718 5.60678392 162.548718 8.59678392 156.822222 8.59678392 156.135043 4.45678392 152.699145 4.45678392 153.386325 8.59678392 138.497436 8.59678392 138.497436 12.0467839 154.073504 12.0467839 159.57094 42.4067839 155.447863 63.1067839 158.883761 63.1067839 161.174359 51.3767839 164.152137 67.2467839"></polygon>
                <polygon id="Path" points="140.329915 64.4867839 152.699145 61.7267839 152.699145 58.2767839 140.329915 61.0367839"></polygon>
                <path d="M23.0512821,59.6567839 L23.5094017,58.2767839 L23.5094017,58.2767839 L36.3367521,10.2067839 C37.4820513,6.06678392 37.9401709,3.30678392 37.7111111,2.15678392 C37.4820513,1.23678392 36.7948718,0.77678392 35.191453,0.77678392 L32.2136752,0.77678392 L16.8666667,58.5067839 L6.1008547,58.5067839 L21.6769231,0.31678392 L0.832478632,0.31678392 L0.832478632,68.8567839 L23.5094017,68.8567839 C22.1350427,66.5567839 21.9059829,63.5667839 23.0512821,59.6567839 Z" id="Path"></path>
                <path d="M46.1863248,0.31678392 C47.5606838,2.38678392 47.7897436,5.37678392 46.6444444,9.28678392 L46.1863248,10.6667839 L46.1863248,10.6667839 L33.3589744,58.7367839 C32.2136752,62.8767839 31.7555556,65.6367839 31.9846154,66.7867839 C32.2136752,67.7067839 32.9008547,68.1667839 34.5042735,68.1667839 L37.9401709,68.1667839 L53.2871795,10.4367839 L63.8239316,10.4367839 L48.2478632,68.8567839 L69.0923077,68.8567839 L69.0923077,0.31678392 L46.1863248,0.31678392 Z" id="Path"></path>
                <path d="M174.688889,10.2067839 L179.499145,10.2067839 L174.001709,30.4467839 L176.750427,31.1367839 L176.750427,63.1067839 L176.750427,66.5567839 L180.186325,66.5567839 L187.745299,66.5567839 L191.410256,66.5567839 L191.410256,63.1067839 L191.410256,25.8467839 L191.410256,22.3967839 L187.974359,22.3967839 L180.415385,22.3967839 L179.728205,22.3967839 L182.935043,9.97678392 L193.700855,9.97678392 L193.700855,6.75678392 L174.688889,6.75678392 L174.688889,10.2067839 Z M187.974359,25.8467839 L187.974359,62.8767839 L180.415385,62.8767839 L180.415385,25.8467839 L187.974359,25.8467839 Z" id="Shape"></path>
                <polygon id="Path" points="217.752137 8.36678392 208.131624 8.36678392 208.131624 3.76678392 204.695726 3.76678392 204.695726 8.36678392 198.969231 8.36678392 195.533333 8.36678392 195.533333 11.8167839 195.533333 67.4767839 198.969231 67.4767839 198.969231 11.8167839 217.752137 11.8167839"></polygon>
                <polygon id="Path" points="241.116239 64.0267839 241.116239 14.1167839 248.217094 12.9667839 248.217094 44.4767839 251.652991 44.4767839 251.652991 12.2767839 258.066667 11.1267839 258.066667 49.3067839 251.652991 49.3067839 251.652991 52.7567839 261.502564 52.7567839 261.502564 49.3067839 261.502564 49.3067839 261.502564 10.6667839 261.502564 8.59678392 261.502564 7.21678392 251.652991 8.82678392 251.652991 2.61678392 248.217094 2.61678392 248.217094 9.51678392 241.116239 10.6667839 241.116239 6.06678392 237.680342 6.06678392 237.680342 11.3567839 234.931624 11.8167839 234.931624 15.2667839 237.680342 14.8067839 237.680342 67.4767839 241.116239 67.4767839 265.167521 67.4767839 265.167521 64.0267839"></polygon>
                <polygon id="Path" points="232.870085 17.1067839 223.707692 4.45678392 220.271795 4.45678392 229.434188 17.1067839"></polygon>
                <polygon id="Path" points="222.104274 17.1067839 231.266667 29.7567839 234.702564 29.7567839 225.540171 17.1067839"></polygon>
                <polygon id="Path" points="219.813675 67.0167839 223.020513 67.0167839 232.182906 34.8167839 228.747009 34.8167839"></polygon>
            </g>
        </g>
    </g>
</svg>