<?xml version="1.0"?>
<svg xmlns="http://www.w3.org/2000/svg" viewBox="0 0 201 201">
  <defs>
    <style>.cls-1,.cls-2{fill:#606060;}.cls-1{opacity:0.4;}.cls-3{fill:none;stroke:#fff;stroke-miterlimit:10;opacity:0;}</style>
  </defs>
  <g id="Layer_2" data-name="Layer 2">
    <g id="Layer_1-2" data-name="Layer 1">
      <path class="cls-1" d="M101.66,155.94l11.35-1.5a.06.06,0,0,1,0,0,1.93,1.93,0,0,0,2.39,1.31l.2-.06a1.91,1.91,0,0,0,1.29-2.39v0l10.46-4.78a1.44,1.44,0,0,0,2.72-.68,1.42,1.42,0,0,0-.33-.92l9.62-9a1.45,1.45,0,1,0,1.62-2.35L151.3,110a1.44,1.44,0,0,0,.46.08,1.45,1.45,0,1,0,0-2.89l-.23,0-5.94-27a1.44,1.44,0,1,0-1.35-2.42l-20.19-19a1.43,1.43,0,0,0,.33-.93,1.45,1.45,0,0,0-2.78-.55l-12.45-4.35a1.63,1.63,0,0,0,.07-.45,1.45,1.45,0,0,0-1.45-1.44,1.43,1.43,0,0,0-1.44,1.41L94.19,53a1.44,1.44,0,0,0-2.88.15,1.41,1.41,0,0,0,.11.54L67.2,65.21a2.22,2.22,0,0,0-4.23,1A2.23,2.23,0,0,0,64,68.06l-4.79,8.22a1.43,1.43,0,0,0-2,1.32,1.42,1.42,0,0,0,.59,1.16l-7.4,12.7a1.37,1.37,0,0,0-.61-.14,1.46,1.46,0,0,0-1.44,1.45,1.44,1.44,0,0,0,1.45,1.44h0l1.81,27.45a1.46,1.46,0,0,0-1.27,1.44,1.44,1.44,0,0,0,1.45,1.44,1.36,1.36,0,0,0,.82-.26L70.17,146.1a1.44,1.44,0,1,0,2.41,1.51l26.2,8.09c0,.06,0,.13,0,.2a1.45,1.45,0,0,0,2.89,0Zm0-.17a1.44,1.44,0,0,0-1.44-1.32,1.39,1.39,0,0,0-.93.35l-6.12-7.3a1.6,1.6,0,0,0,.32-.49L113,153.52a2,2,0,0,0,0,.42,1.84,1.84,0,0,0,0,.33ZM71.24,145.62a1.4,1.4,0,0,0-.58.12l-3.33-9.32a1.42,1.42,0,0,0,.72-.67L90.8,145.94a1.35,1.35,0,0,0-.11.49l-18,.48A1.44,1.44,0,0,0,71.24,145.62Zm-18-22.53a1.44,1.44,0,0,0-.87-1.32l4.52-13a2.3,2.3,0,0,0,.64.09,2,2,0,0,0,.6-.09l8.1,25a1.47,1.47,0,0,0-.54.38L53,124A1.43,1.43,0,0,0,53.25,123.09Zm68.24-65.24a1.45,1.45,0,0,0,2.07,1.3l5.68,10.31a2.27,2.27,0,0,0-.81.79L94.09,53.68a1.69,1.69,0,0,0,.08-.24l27.33,4.27A.61.61,0,0,0,121.49,57.85Zm22.33,20.93A1.45,1.45,0,0,0,145,80.19l-1,9.37h-.15a2.27,2.27,0,0,0-1.15.33l-11-16.73a2.24,2.24,0,0,0,.64-.79l11.6,5.87A1.42,1.42,0,0,0,143.82,78.78Zm6.5,29.82a1.43,1.43,0,0,0,.57,1.15l-7.81,11.68a2.33,2.33,0,0,0-.94-.32L143.79,94h.05a2.29,2.29,0,0,0,.87-.18l6.36,13.52A1.46,1.46,0,0,0,150.32,108.6Zm-11.4,28.34a1.38,1.38,0,0,0,.2.73l-22.45,15.17a2.37,2.37,0,0,0-.23-.3L140.53,125a2.32,2.32,0,0,0,1.06.47l-1.15,10h-.08A1.44,1.44,0,0,0,138.92,136.94Zm-48,8.85L68.12,135.6a1.46,1.46,0,0,0,.09-.52,1.43,1.43,0,0,0-.42-1L85,114.73a2.22,2.22,0,0,0,1.42.51l.28,0,5.11,29.85A1.41,1.41,0,0,0,90.87,145.79Zm-31.18-38.6,24.55,5.43a1.81,1.81,0,0,0,0,.4,2.2,2.2,0,0,0,.68,1.6L67.66,134a1.43,1.43,0,0,0-.89-.31,1.5,1.5,0,0,0-.37.05l-8.1-25A2.25,2.25,0,0,0,59.69,107.19Zm.42-29.6a.45.45,0,0,0,0-.11L84,74.11a2.39,2.39,0,0,0,2.29,2l.07,34.72a2.18,2.18,0,0,0-1.21.42L59.62,78.68A1.45,1.45,0,0,0,60.11,77.59ZM115.27,152l3.06-29.78h.06a1.43,1.43,0,0,0,1.42-1.2l19.9,2.17v.16a2.25,2.25,0,0,0,.69,1.61l-24.09,27.5A1.9,1.9,0,0,0,115.27,152ZM86.43,76.09a2.39,2.39,0,0,0,2.26-1.9l25.21,4.44a3,3,0,0,0,0,.31,2.18,2.18,0,0,0,.7,1.6L87.8,111.3a2.15,2.15,0,0,0-1.31-.49Zm55.19,15.69a2.24,2.24,0,0,0,.7,1.6l-23,26.23a1.45,1.45,0,0,0-.88-.31l-2.1-38.16a2.23,2.23,0,0,0,1.77-1.2l23.72,11A2.2,2.2,0,0,0,141.62,91.78ZM88.63,113a2.19,2.19,0,0,0-.7-1.61L114.7,80.66a2.27,2.27,0,0,0,1.4.49h0l2.1,38.16a1.44,1.44,0,0,0-1.22,1l-28.42-6.87A2.12,2.12,0,0,0,88.63,113Zm-.08.6L117,120.49a1.1,1.1,0,0,0,0,.26,1.46,1.46,0,0,0,.35,1L93.11,145.41a1.43,1.43,0,0,0-1-.38H92l-5.11-29.85A2.24,2.24,0,0,0,88.55,113.62ZM139.73,123l-19.9-2.17s0,0,0-.08a1.49,1.49,0,0,0-.43-1l23-26.23a2.26,2.26,0,0,0,1.18.49L142,121.1h-.05A2.22,2.22,0,0,0,139.73,123Zm2.14-32.23-23.73-11a2.27,2.27,0,0,0,.17-.86,2.18,2.18,0,0,0-.22-1l10.32-5.47a2.23,2.23,0,0,0,1.92,1.11,2.26,2.26,0,0,0,1.21-.36l11,16.72A2.26,2.26,0,0,0,141.87,90.76ZM128.11,71.39a2.18,2.18,0,0,0,.22,1L118,77.82a2.22,2.22,0,0,0-1.92-1.11,2.27,2.27,0,0,0-1.42.52L93.78,54.15a2.34,2.34,0,0,0,.24-.31L128.35,70.4A2.22,2.22,0,0,0,128.11,71.39ZM93.66,54.26l20.89,23.09a2.12,2.12,0,0,0-.62,1.11L88.72,74a1.84,1.84,0,0,0,0-.33,2.43,2.43,0,0,0-1.61-2.27l5.27-16.89a1.34,1.34,0,0,0,.35,0A1.43,1.43,0,0,0,93.66,54.26Zm-.08,92.21a1.38,1.38,0,0,0-.36-.94l24.2-23.71a1.42,1.42,0,0,0,.74.35L115.1,152a2,2,0,0,0-.59.08l-.18.05a1.91,1.91,0,0,0-1.29,1.27l-19.51-6.51A1.58,1.58,0,0,0,93.58,146.47Zm-1.34-92L87,71.37a2.2,2.2,0,0,0-.64-.09,2.42,2.42,0,0,0-2.4,2.42c0,.08,0,.16,0,.24L60.08,77.31a1.32,1.32,0,0,0-.24-.54L91.63,54A1.41,1.41,0,0,0,92.24,54.48ZM59.49,78.78,85,111.33a2.24,2.24,0,0,0-.71,1.13L59.73,107a2.6,2.6,0,0,0,0-.4,2.22,2.22,0,0,0-2-2.21L58.64,79h0A1.4,1.4,0,0,0,59.49,78.78Zm57.35,74.37-.08-.17,22.45-15.17,0,.05-9.63,8.95a1.44,1.44,0,0,0-2.44,1,1.46,1.46,0,0,0,.1.52Zm24-17.58-.21-.06,1.14-10h.18a2.21,2.21,0,0,0,1.29-4L151,109.85l.12.06Zm10.55-28.36-.15.05-6.36-13.52a2.21,2.21,0,0,0-.71-4.16l1-9.36h.29ZM144,78.07l-11.61-5.86a2.26,2.26,0,0,0,.16-.82,2.23,2.23,0,0,0-2.23-2.22,2.26,2.26,0,0,0-.93.21l-5.68-10.31a1.84,1.84,0,0,0,.22-.17l20.2,19A2.14,2.14,0,0,0,144,78.07ZM121.55,57.45a.29.29,0,0,0,0,.09L94.19,53.27a.41.41,0,0,0,0-.11l12.13-.53a1.45,1.45,0,0,0,1.44,1.31,1.43,1.43,0,0,0,1.31-.85ZM64.19,68.14a2.22,2.22,0,0,0,3.23-2,2.21,2.21,0,0,0-.15-.78L91.49,53.83a.43.43,0,0,0,0,.07L59.74,76.63a1.5,1.5,0,0,0-.34-.27ZM58,78.85a1.61,1.61,0,0,0,.52.18l-.93,25.37h0a2.23,2.23,0,0,0-1,.24L50.62,94a1.44,1.44,0,0,0-.06-2.42ZM50,94.2a1.4,1.4,0,0,0,.49-.15l5.9,10.68a2.21,2.21,0,0,0,.37,4l-4.53,13a1.42,1.42,0,0,0-.42-.06h0Zm2.87,29.88,12.73,10.17a1.44,1.44,0,0,0,1.18,2.28,1.29,1.29,0,0,0,.4-.06l3.34,9.35-.22.16-17.53-21.8A.94.94,0,0,0,52.86,124.08Zm19.77,23.37a1.51,1.51,0,0,0,.06-.37l18-.48a1.44,1.44,0,0,0,2.33,1l6.13,7.31a1.42,1.42,0,0,0-.34.61Z"/>
      <path class="cls-2" d="M158.44,103.35l-1.65-12.66h.05A2.14,2.14,0,0,0,158.3,88l-.06-.22a2.15,2.15,0,0,0-2.67-1.45l0,0-5.3-11.67a1.58,1.58,0,0,0,.85-1.42A1.6,1.6,0,0,0,148.46,72l-10-10.74a1.61,1.61,0,1,0-2.61-1.81L107.33,47.93a1.7,1.7,0,0,0,.08-.51,1.61,1.61,0,0,0-3.22,0,1.07,1.07,0,0,0,0,.25l-30.1,6.56A1.61,1.61,0,0,0,71,54.6a1.62,1.62,0,0,0,.47,1.14L50.23,78.19a1.65,1.65,0,0,0-1-.37,1.61,1.61,0,0,0-.62,3.09L43.69,94.78a1.64,1.64,0,0,0-.5-.08,1.61,1.61,0,0,0,0,3.22l.55,13.52a1.61,1.61,0,0,0,.16,3.22,1.74,1.74,0,0,0,.61-.12l12.8,27a2.48,2.48,0,1,0,3.16,3.53l9.15,5.35a1.63,1.63,0,0,0-.14.66,1.61,1.61,0,0,0,2.9,1l14.13,8.27a1.64,1.64,0,0,0-.15.67,1.61,1.61,0,0,0,3.22,0h0l30.59-2a1.61,1.61,0,1,0,2.92-1.11l24.35-19.49a1.58,1.58,0,0,0,1.07.42,1.62,1.62,0,0,0,1.61-1.61,1.6,1.6,0,0,0-1-1.49l9.07-29.18h.23a1.61,1.61,0,0,0,.05-3.21Zm-.18,0a1.61,1.61,0,0,0-1.1,2.65L149,112.8a1.47,1.47,0,0,0-.53-.36l7.29-21.73a1.88,1.88,0,0,0,.47.05l.37,0Zm-11.39,33.87a1.5,1.5,0,0,0,.14.64l-10.4,3.69a1.54,1.54,0,0,0-.73-.8l11.4-25.32a1.62,1.62,0,0,0,.54.11l.5,20.07A1.62,1.62,0,0,0,146.87,137.22Zm-25.13,20a1.62,1.62,0,0,0-1.48,1l-14.49-5.07a2.4,2.4,0,0,0,.11-.71,2.47,2.47,0,0,0-.1-.67l27.85-9a1.71,1.71,0,0,0,.42.61l-11.36,14.15A1.61,1.61,0,0,0,121.74,157.21ZM49.19,81a1.62,1.62,0,0,0,1.61-1.61,1.56,1.56,0,0,0-.16-.69l11.5-6.32a2.48,2.48,0,0,0,.88.91L44.49,111.56a1.43,1.43,0,0,0-.27-.09L49,81ZM72.56,56.21a1.61,1.61,0,0,0,1.57-1.28L84.57,56c0,.06,0,.11,0,.17a2.5,2.5,0,0,0,.36,1.27L66.26,69.72a2.56,2.56,0,0,0-.88-.72l6.56-12.91A1.8,1.8,0,0,0,72.56,56.21ZM105.8,49a1.58,1.58,0,0,0,1.28-.64l13,8.73a2.48,2.48,0,0,0-.36,1L89.5,56.27v-.06a2.53,2.53,0,0,0-.19-1l15.08-7.06A1.6,1.6,0,0,0,105.8,49Zm31.55,12.76a1.62,1.62,0,0,0,.82-.22l16.85,25a2.1,2.1,0,0,0-.33.26L124.09,60a2.49,2.49,0,0,0,.53-1.18l11.12,1.3v.09A1.61,1.61,0,0,0,137.35,61.79Zm9.76,53.56L135.7,140.67a1.52,1.52,0,0,0-.57-.11A1.6,1.6,0,0,0,134,141l-21.51-19.22a2.47,2.47,0,0,0,.57-1.57,1.66,1.66,0,0,0,0-.32l33.28-5.63A1.6,1.6,0,0,0,147.11,115.35ZM104,150l6.11-27.33a3.14,3.14,0,0,0,.45,0,2.45,2.45,0,0,0,1.77-.76l21.51,19.22a1.62,1.62,0,0,0-.35,1,1.84,1.84,0,0,0,0,.41l-27.84,9A2.51,2.51,0,0,0,104,150Zm-33-.53h-.13l-3.7-26.6a2.68,2.68,0,0,0,2.21-2.55h38.68a2.44,2.44,0,0,0,.47,1.35L72.27,150A1.64,1.64,0,0,0,71.06,149.47Zm83-61.3L120.87,84.7v-.07A1.61,1.61,0,0,0,119.53,83L122,60.87h.18a2.48,2.48,0,0,0,1.79-.77L154.56,87A2.18,2.18,0,0,0,154.05,88.17Zm-84.61,32a2.69,2.69,0,0,0-2.11-2.53l5-28.07a1.87,1.87,0,0,0,.34,0,2.44,2.44,0,0,0,1.79-.78l34.21,29.9a2.4,2.4,0,0,0-.55,1.45ZM87,58.68a2.47,2.47,0,0,0,1.79-.77L118,83.64a1.6,1.6,0,0,0-.35,1L75.13,86.87a2.47,2.47,0,0,0-1.34-2L86.08,58.49A2.48,2.48,0,0,0,87,58.68Zm23.56,59.09a2.49,2.49,0,0,0-1.8.77L74.59,88.65a2.46,2.46,0,0,0,.55-1.55v0l42.52-2.25a1.64,1.64,0,0,0,1.13,1.36l-7.71,31.65A2.63,2.63,0,0,0,110.59,117.77Zm.67.09L119,86.21l.29,0a1.58,1.58,0,0,0,1.06-.4l26.37,27a1.62,1.62,0,0,0-.42,1.08,1.09,1.09,0,0,0,0,.18L113,119.73A2.46,2.46,0,0,0,111.26,117.86Zm10.55-57L119.35,83h-.09a1.62,1.62,0,0,0-1.14.47L89,57.77a2.55,2.55,0,0,0,.54-1.31l30.22,1.89v.06A2.47,2.47,0,0,0,121.81,60.85ZM85.91,58.4,73.62,84.82a2.48,2.48,0,0,0-1-.19,2.51,2.51,0,0,0-1.07.24L65.53,73.36a2.5,2.5,0,0,0,.84-3.49L85,57.64A2.43,2.43,0,0,0,85.91,58.4ZM64.3,73.69a2.36,2.36,0,0,0,1.06-.25L71.43,85A2.48,2.48,0,0,0,70.2,87.1a2.45,2.45,0,0,0,.57,1.58L45,111.9a1.46,1.46,0,0,0-.34-.26L63.19,73.42A2.43,2.43,0,0,0,64.3,73.69ZM45.13,112,70.9,88.82a2.5,2.5,0,0,0,1.24.69l-5,28.07c-.12,0-.25,0-.38,0a2.68,2.68,0,0,0-2.52,1.8l-18.81-5.91a1.31,1.31,0,0,0,0-.39A1.63,1.63,0,0,0,45.13,112Zm102.75.28a1.58,1.58,0,0,0-1.06.4l-26.37-27a1.58,1.58,0,0,0,.4-.82L154,88.36a2.13,2.13,0,0,0,.08.66l.06.19a2.14,2.14,0,0,0,1.41,1.45l-7.29,21.72A2,2,0,0,0,147.88,112.32Zm-102.5,1.3,18.8,5.9a2.84,2.84,0,0,0-.1.72,2.68,2.68,0,0,0,2.68,2.68H67l3.7,26.59a1.68,1.68,0,0,0-.61.27L44.88,114.3A1.61,1.61,0,0,0,45.38,113.62Zm27,36.55,36.32-28.34a2.46,2.46,0,0,0,1.26.79L103.85,150a2.28,2.28,0,0,0-.45,0,2.47,2.47,0,0,0-2.47,2.28l-28.26-1.09v0A1.59,1.59,0,0,0,72.38,150.17Zm83-63.74-.18.08L138.32,61.46a.1.1,0,0,0,.05,0l9.95,10.75a1.63,1.63,0,0,0-.44,1.11,1.61,1.61,0,0,0,1.6,1.61,1.58,1.58,0,0,0,.58-.11ZM135.83,59.67a.86.86,0,0,0-.06.23l-11.13-1.3c0-.06,0-.12,0-.19A2.47,2.47,0,0,0,120.18,57l-13-8.72c0-.05,0-.09.07-.13ZM104.25,47.85l.06.16L89.23,55.08a2.47,2.47,0,0,0-4.64.77l-10.43-1.1s0-.1,0-.15,0-.12,0-.18ZM71.77,56,65.21,68.93a2.31,2.31,0,0,0-.91-.18,2.47,2.47,0,0,0-2.47,2.47,2.43,2.43,0,0,0,.23,1L50.55,78.57a1.5,1.5,0,0,0-.19-.25l21.2-22.46Zm-23,25,.1,0L44,111.44H43.9l-.56-13.53a1.61,1.61,0,0,0,.53-3.06Zm11.78,63.94a2.51,2.51,0,0,0,.27-1.13,2.48,2.48,0,0,0-2.48-2.47,2.28,2.28,0,0,0-.87.16l-12.8-27,.08,0L70,149.88a1.61,1.61,0,0,0-.31.38Zm11.92,7a1.49,1.49,0,0,0,.2-.58l28.27,1.09h0a2.5,2.5,0,0,0,.27,1.12l-11.91,6.56a1.61,1.61,0,0,0-2.71.06Zm17.09,8.9a1.7,1.7,0,0,0-.17-.54l11.91-6.56a2.47,2.47,0,0,0,4.43-.39l14.49,5.07a1.39,1.39,0,0,0-.07.46h0Zm33.3-3.14,11.36-14.15a1.63,1.63,0,0,0,.93.29,1.61,1.61,0,0,0,1.55-2.05L147.1,138a2.2,2.2,0,0,0,.17.25L123,157.76Zm26.07-22a1.34,1.34,0,0,0-.4-.06l-.5-20.07a1.6,1.6,0,0,0,1.47-1.61,1.62,1.62,0,0,0-.34-1l8.15-6.81a1.61,1.61,0,0,0,.69.38Z"/>
      <rect class="cls-3" x="0.5" y="0.5" width="200" height="200"/>
    </g>
  </g>
</svg>
