<?xml version="1.0" encoding="utf-8"?>
<!-- Generator: Adobe Illustrator 23.0.6, SVG Export Plug-In . SVG Version: 6.00 Build 0)  -->
<svg version="1.1" id="Layer_1" xmlns="http://www.w3.org/2000/svg" xmlns:xlink="http://www.w3.org/1999/xlink" x="0px" y="0px"
	 viewBox="0 0 1000 1000" style="enable-background:new 0 0 1000 1000;" xml:space="preserve">
<style type="text/css">
	.st0{fill:#00FFD9;}
	.st1{fill:none;stroke:#00FFD9;stroke-width:8;stroke-linecap:round;stroke-linejoin:round;stroke-miterlimit:10;}
	.st2{fill:none;stroke:#00FFD9;stroke-width:10.6667;stroke-linecap:round;stroke-linejoin:round;stroke-miterlimit:10;}
	.st3{fill:none;stroke:#00FFD9;stroke-width:20;stroke-linecap:round;stroke-linejoin:round;}
	.st4{fill:none;stroke:#00FFD9;stroke-width:20;stroke-miterlimit:10;}
	.st5{fill:none;stroke:#00FFD9;stroke-width:20;stroke-linecap:round;stroke-miterlimit:10;}
</style>
<g>
	<g>
		<g>
			<path class="st2" d="M827.3,239.9c0,2.1-0.5,4.2-1.6,6.1l-11.8,20.4c1.1-1.9,1.6-4,1.6-6.1c0-4.2-2.2-8.3-6.1-10.5
				c-5.8-3.4-13.2-1.4-16.6,4.4l11.7-20.3c3.4-5.8,10.8-7.8,16.6-4.5C825.1,231.6,827.3,235.7,827.3,239.9z"/>
			<path class="st2" d="M813.9,266.3l-5.6,9.8h0.1l0.2,83.4H783l-0.2-38l-18.1,30.5h-12.4l-18.1-29.2v36.7h-25.6v-83.4h23.1
				l24.9,40.8l0.1,0.1c0.2-0.6,0.5-1.2,0.8-1.7l35.3-61.1c0,0,0,0,0-0.1c3.4-5.8,10.8-7.7,16.6-4.4c3.9,2.3,6.1,6.3,6.1,10.5
				C815.5,262.3,815,264.4,813.9,266.3z"/>
		</g>
		<g>
			<circle class="st2" cx="759.2" cy="296.6" r="100"/>
		</g>
	</g>
	<g>
		<g>
			<path class="st1" d="M308.9,646.7c0,2.1-0.5,4.2-1.6,6.1l-11.8,20.4c1.1-1.9,1.6-4,1.6-6.1c0-4.2-2.2-8.3-6.1-10.5
				c-5.8-3.4-13.2-1.4-16.6,4.4l11.7-20.3c3.4-5.8,10.8-7.8,16.6-4.5C306.7,638.4,308.9,642.5,308.9,646.7z"/>
			<path class="st1" d="M295.5,673.2l-5.6,9.8h0.1l0.2,83.4h-25.6l-0.2-38l-18.1,30.5h-12.4l-18.1-29.2v36.7h-25.6v-83.4h23.1
				l24.9,40.8l0.1,0.1c0.2-0.6,0.5-1.2,0.8-1.7l35.3-61.1c0,0,0,0,0-0.1c3.4-5.8,10.8-7.7,16.6-4.4c3.9,2.3,6.1,6.3,6.1,10.5
				C297.1,669.2,296.6,671.2,295.5,673.2z"/>
		</g>
		<g>
			<circle class="st1" cx="240.8" cy="703.4" r="100"/>
		</g>
	</g>
</g>
<g>
	<g>
		<g>
			<polyline class="st3" points="580.5,278.3 239.4,278.3 239.4,416.8 			"/>
			<g>
				<polygon class="st0" points="300.1,408.7 178.6,408.7 239.4,469.4 				"/>
			</g>
		</g>
	</g>
	<g>
		<g>
			<polyline class="st3" points="419.5,721.7 760.6,721.7 760.6,583.2 			"/>
			<g>
				<polygon class="st0" points="699.9,591.3 821.4,591.3 760.6,530.6 				"/>
			</g>
		</g>
	</g>
</g>
</svg>
