<svg xmlns="http://www.w3.org/2000/svg" viewBox="0 0 201 201"><defs><style>.cls-1{fill:#606060;}.cls-2{fill:none;stroke:#fff;stroke-miterlimit:10;opacity:0;}</style></defs><g id="Layer_2" data-name="Layer 2"><g id="Layer_1-2" data-name="Layer 1"><path class="cls-1" d="M38.6,153.09a.51.51,0,0,1-.39-.19,79.09,79.09,0,0,1-11.75-21,.5.5,0,1,1,.94-.35A78.06,78.06,0,0,0,39,152.28a.5.5,0,0,1-.09.7A.51.51,0,0,1,38.6,153.09Z"/><path class="cls-1" d="M121.54,180.73a.5.5,0,0,1-.14-1A77.8,77.8,0,0,0,148,166.65a.5.5,0,1,1,.6.8,78.72,78.72,0,0,1-26.95,13.26A.32.32,0,0,1,121.54,180.73Z"/><path class="cls-1" d="M174.41,132.83l-.18,0a.51.51,0,0,1-.29-.65,77.77,77.77,0,0,0,5.13-26.52.47.47,0,0,1,.51-.49.5.5,0,0,1,.49.51,79,79,0,0,1-5.19,26.86A.51.51,0,0,1,174.41,132.83Z"/><path class="cls-1" d="M179.48,100.75a.5.5,0,0,1-.5-.47c-.08-1.82-.24-3.66-.45-5.46a.5.5,0,1,1,1-.11c.22,1.82.37,3.68.46,5.52a.49.49,0,0,1-.47.52Z"/><path class="cls-1" d="M166,60.46a.52.52,0,0,1-.42-.22,79,79,0,0,0-24-22.86.5.5,0,0,1-.16-.69.49.49,0,0,1,.68-.17,80.12,80.12,0,0,1,24.29,23.16.49.49,0,0,1-.13.69A.51.51,0,0,1,166,60.46Z"/><path class="cls-1" d="M127.27,30.47a.51.51,0,0,1-.17,0c-2.18-.78-4.43-1.47-6.67-2.05a.5.5,0,1,1,.25-1c2.27.58,4.55,1.28,6.76,2.07a.5.5,0,0,1-.17,1Z"/><path class="cls-1" d="M56.61,39.45a.5.5,0,0,1-.41-.22.49.49,0,0,1,.13-.69A78.26,78.26,0,0,1,88.68,25.83a.51.51,0,0,1,.57.42.51.51,0,0,1-.42.57A77.53,77.53,0,0,0,56.89,39.36.47.47,0,0,1,56.61,39.45Z"/><path class="cls-1" d="M32.81,64.84a.59.59,0,0,1-.25-.07.51.51,0,0,1-.18-.69A79.62,79.62,0,0,1,45.75,47.13a.5.5,0,0,1,.69.72A78.48,78.48,0,0,0,33.25,64.59.51.51,0,0,1,32.81,64.84Z"/><path class="cls-1" d="M50.92,172.27a.53.53,0,0,1-.3-.09,84.71,84.71,0,0,1-19.78-20.6.5.5,0,1,1,.82-.56,83.82,83.82,0,0,0,19.55,20.35.5.5,0,0,1,.11.7A.51.51,0,0,1,50.92,172.27Z"/><path class="cls-1" d="M135.06,181.39a.5.5,0,0,1-.21-.95,83.38,83.38,0,0,0,22.79-15.11.5.5,0,0,1,.71,0,.51.51,0,0,1,0,.71,84.33,84.33,0,0,1-23.06,15.28A.48.48,0,0,1,135.06,181.39Z"/><path class="cls-1" d="M182.13,125.67l-.12,0a.5.5,0,0,1-.36-.61,83.33,83.33,0,0,0,1.77-8.87.5.5,0,0,1,.56-.42.5.5,0,0,1,.43.56,84.89,84.89,0,0,1-1.79,9A.5.5,0,0,1,182.13,125.67Z"/><path class="cls-1" d="M184.7,108.29h0a.49.49,0,0,1-.47-.52c.05-1.18.07-2.38.07-3.57A84.12,84.12,0,0,0,182.05,85a.51.51,0,0,1,.37-.61.5.5,0,0,1,.6.38,85,85,0,0,1,2.25,19.44c0,1.2,0,2.42-.08,3.61A.5.5,0,0,1,184.7,108.29Z"/><path class="cls-1" d="M160,45.15a.49.49,0,0,1-.35-.15,83.72,83.72,0,0,0-34.12-20.55.49.49,0,0,1-.33-.63.5.5,0,0,1,.62-.33,84.73,84.73,0,0,1,34.53,20.8.5.5,0,0,1,0,.71A.47.47,0,0,1,160,45.15Z"/><path class="cls-1" d="M36.45,50.73a.49.49,0,0,1-.32-.12.51.51,0,0,1-.06-.71A85.22,85.22,0,0,1,65.43,27.46a.49.49,0,0,1,.66.24.5.5,0,0,1-.25.67,84.31,84.31,0,0,0-29,22.18A.49.49,0,0,1,36.45,50.73Z"/><rect class="cls-2" x="0.5" y="0.5" width="200" height="200"/></g></g></svg>