<?xml version="1.0" encoding="UTF-8"?>
<svg width="275px" height="78px" viewBox="0 0 275 78" version="1.1" xmlns="http://www.w3.org/2000/svg" xmlns:xlink="http://www.w3.org/1999/xlink">
    <title>huwasupernode</title>
    <g id="Page-1" stroke="none" stroke-width="1" fill="none" fill-rule="evenodd">
        <g id="huwasupernode" fill="#333333" fill-rule="nonzero">
            <g id="Group" transform="translate(2.000000, 59.432161)">
                <path d="M7.11176471,9.96666667 C5.27647059,9.5 3.67058824,8.8 2.98235294,7.86666667 C2.29411765,6.93333333 1.60588235,6 1.60588235,4.83333333 C1.60588235,3.43333333 2.06470588,2.26666667 3.21176471,1.56666667 C4.35882353,0.633333333 5.73529412,0.166666667 7.34117647,0.166666667 C8.48823529,0.166666667 9.63529412,0.4 10.5529412,0.866666667 C11.4705882,1.33333333 12.1588235,2.03333333 12.6176471,2.73333333 C13.0764706,3.43333333 13.3058824,4.36666667 13.3058824,5.3 L11.0117647,5.3 C11.0117647,4.36666667 10.7823529,3.43333333 10.0941176,2.96666667 C9.40588235,2.26666667 8.48823529,2.03333333 7.34117647,2.03333333 C6.19411765,2.03333333 5.27647059,2.26666667 4.81764706,2.73333333 C4.35882353,3.2 3.9,3.9 3.9,4.83333333 C3.9,5.53333333 4.12941176,6.23333333 4.81764706,6.7 C5.50588235,7.16666667 6.42352941,7.63333333 7.8,8.1 C9.17647059,8.56666667 10.3235294,9.03333333 11.2411765,9.5 C12.1588235,9.96666667 12.6176471,10.4333333 13.0764706,11.1333333 C13.5352941,11.8333333 13.7647059,12.5333333 13.7647059,13.4666667 C13.7647059,14.8666667 13.3058824,16.0333333 12.1588235,16.7333333 C11.0117647,17.6666667 9.63529412,17.9 7.8,17.9 C6.65294118,17.9 5.50588235,17.6666667 4.58823529,17.2 C3.67058824,16.7333333 2.29411765,16.2666667 1.83529412,15.3333333 C1.37647059,14.6333333 0.917647059,13.7 0.917647059,12.7666667 L3.21176471,12.7666667 C3.21176471,13.7 3.67058824,14.6333333 4.35882353,15.1 C5.04705882,15.8 6.19411765,16.0333333 7.34117647,16.0333333 C8.48823529,16.0333333 9.40588235,15.8 10.0941176,15.3333333 C10.7823529,14.8666667 11.0117647,14.1666667 11.0117647,13.4666667 C11.0117647,12.5333333 10.7823529,12.0666667 10.0941176,11.6 C9.63529412,10.9 8.48823529,10.4333333 7.11176471,9.96666667 Z" id="Path"></path>
                <path d="M45.1941176,0.633333333 L45.1941176,12.3 C45.1941176,13.9333333 44.7352941,15.3333333 43.5882353,16.2666667 C42.6705882,17.2 41.2941176,17.9 39.4588235,17.9 L38.7705882,17.9 C36.9352941,17.9 35.3294118,17.4333333 34.1823529,16.5 C33.0352941,15.5666667 32.5764706,14.1666667 32.5764706,12.3 L32.5764706,0.633333333 L34.8705882,0.633333333 L34.8705882,12.3 C34.8705882,13.4666667 35.1,14.4 35.7882353,15.1 C36.4764706,15.8 37.3941176,16.0333333 38.7705882,16.0333333 C40.1470588,16.0333333 41.0647059,15.8 41.7529412,15.1 C42.4411765,14.4 42.6705882,13.4666667 42.6705882,12.3 L42.6705882,0.633333333 L45.1941176,0.633333333 L45.1941176,0.633333333 Z" id="Path"></path>
                <path d="M67.9058824,10.9 L67.9058824,17.6666667 L65.6117647,17.6666667 L65.6117647,0.633333333 L72.0352941,0.633333333 C73.8705882,0.633333333 75.4764706,1.1 76.3941176,2.03333333 C77.5411765,2.96666667 78,4.36666667 78,5.76666667 C78,7.4 77.5411765,8.8 76.3941176,9.5 C75.2470588,10.4333333 73.8705882,10.9 72.0352941,10.9 L67.9058824,10.9 L67.9058824,10.9 Z M67.9058824,9.26666667 L72.0352941,9.26666667 C73.1823529,9.26666667 74.1,9.03333333 74.7882353,8.33333333 C75.4764706,7.63333333 75.7058824,6.93333333 75.7058824,5.76666667 C75.7058824,4.83333333 75.4764706,3.9 74.7882353,3.43333333 C74.1,2.96666667 73.1823529,2.5 72.0352941,2.5 L67.9058824,2.5 L67.9058824,9.26666667 Z" id="Shape"></path>
                <polygon id="Path" points="107.364706 9.73333333 100.023529 9.73333333 100.023529 15.8 108.741176 15.8 108.741176 17.6666667 97.9588235 17.6666667 97.9588235 0.633333333 108.741176 0.633333333 108.741176 2.5 100.252941 2.5 100.252941 8.1 107.594118 8.1 107.594118 9.73333333"></polygon>
                <path d="M134.435294,10.9 L130.305882,10.9 L130.305882,17.9 L128.011765,17.9 L128.011765,0.866666667 L133.747059,0.866666667 C135.582353,0.866666667 137.188235,1.33333333 138.105882,2.26666667 C139.252941,3.2 139.711765,4.36666667 139.711765,6 C139.711765,7.16666667 139.482353,8.1 138.794118,8.8 C138.105882,9.5 137.417647,10.2 136.5,10.6666667 L140.629412,17.9 L140.629412,17.6666667 L138.105882,17.6666667 L134.435294,10.9 Z M130.535294,9.03333333 L133.976471,9.03333333 C135.123529,9.03333333 136.041176,8.8 136.729412,8.1 C137.417647,7.4 137.647059,6.7 137.647059,5.76666667 C137.647059,4.6 137.417647,3.9 136.729412,3.43333333 C136.041176,2.96666667 135.123529,2.5 133.976471,2.5 L130.535294,2.5 L130.535294,9.03333333 L130.535294,9.03333333 Z" id="Shape"></path>
                <polygon id="Path" points="172.976471 17.6666667 170.682353 17.6666667 161.964706 4.6 161.964706 17.6666667 159.670588 17.6666667 159.670588 0.633333333 161.964706 0.633333333 170.682353 13.9333333 170.682353 0.633333333 172.976471 0.633333333"></polygon>
                <path d="M207.158824,9.73333333 C207.158824,11.3666667 206.929412,12.7666667 206.241176,14.1666667 C205.782353,15.3333333 204.864706,16.2666667 203.947059,16.9666667 C202.8,17.6666667 201.652941,17.9 200.276471,17.9 C198.9,17.9 197.752941,17.6666667 196.605882,16.9666667 C195.458824,16.2666667 194.770588,15.3333333 194.082353,14.1666667 C193.394118,13 193.164706,11.6 193.164706,9.96666667 L193.164706,8.8 C193.164706,7.16666667 193.394118,5.76666667 194.082353,4.36666667 C194.541176,3.2 195.458824,2.03333333 196.605882,1.56666667 C197.752941,0.866666667 198.9,0.633333333 200.276471,0.633333333 C201.652941,0.633333333 202.8,0.866666667 203.947059,1.56666667 C205.094118,2.26666667 205.782353,3.2 206.470588,4.36666667 C206.929412,5.53333333 207.388235,7.16666667 207.388235,8.8 L207.388235,9.73333333 L207.158824,9.73333333 Z M204.864706,8.56666667 C204.864706,6.46666667 204.405882,5.06666667 203.717647,3.9 C202.8,2.73333333 201.652941,2.26666667 200.276471,2.26666667 C198.9,2.26666667 197.752941,2.73333333 196.835294,3.9 C195.917647,5.06666667 195.688235,6.46666667 195.458824,8.33333333 L195.458824,9.5 C195.458824,11.3666667 195.917647,13 196.605882,14.1666667 C197.523529,15.3333333 198.670588,15.8 200.047059,15.8 C201.423529,15.8 202.570588,15.3333333 203.488235,14.1666667 C204.405882,13 204.635294,11.6 204.635294,9.5 L204.635294,8.56666667 L204.864706,8.56666667 Z" id="Shape"></path>
                <path d="M227.347059,17.6666667 L227.347059,0.633333333 L232.164706,0.633333333 C233.541176,0.633333333 234.917647,0.866666667 236.064706,1.56666667 C237.211765,2.26666667 238.129412,3.2 238.817647,4.36666667 C239.505882,5.53333333 239.735294,6.93333333 239.735294,8.56666667 L239.735294,9.73333333 C239.735294,11.3666667 239.505882,12.7666667 238.817647,13.9333333 C238.129412,15.1 237.211765,16.0333333 236.064706,16.7333333 C234.917647,17.4333333 233.541176,17.6666667 231.935294,17.6666667 L227.347059,17.6666667 Z M229.641176,2.5 L229.641176,15.8 L231.935294,15.8 C233.770588,15.8 234.917647,15.3333333 236.064706,14.1666667 C237.211765,13 237.441176,11.6 237.441176,9.5 L237.441176,8.56666667 C237.441176,6.7 236.982353,5.06666667 236.064706,4.13333333 C235.147059,3.2 233.770588,2.5 232.164706,2.5 L229.641176,2.5 Z" id="Shape"></path>
                <polygon id="Path" points="269.558824 9.73333333 262.217647 9.73333333 262.217647 15.8 270.935294 15.8 270.935294 17.6666667 260.152941 17.6666667 260.152941 0.633333333 270.935294 0.633333333 270.935294 2.5 262.447059 2.5 262.447059 8.1 269.788235 8.1 269.788235 9.73333333"></polygon>
            </g>
            <path d="M32,3.63633596 C32,5.23881094 32,6.61236093 32,8.21483591 C32,8.67268591 31.7730496,9.1305359 31.0921986,9.3594609 L1.36170213,19.4321608 C0.680851064,19.4321608 0,18.9743108 0,18.2875358 C0,18.2875358 0,18.0586108 0,18.0586108 L0,13.4801109 C0,13.0222609 0.453900709,12.5644109 0.907801418,12.3354859 L30.4113475,2.49171097 C31.0921986,2.26278597 31.7730496,2.72063597 32,3.40741096 C32,3.40741096 32,3.63633596 32,3.63633596 Z" id="Path"></path>
            <path d="M38.7705882,14.6287862 L38.7705882,19.1785805 C38.7705882,19.6335599 38.3117647,20.0885394 37.8529412,20.3160291 L1.60588235,32.372984 C0.917647059,32.6004737 0.229411765,32.1454943 0,31.4630251 C0,31.2355354 0,31.2355354 0,31.0080457 L0,26.4582514 C0,26.003272 0.229411765,25.5482925 0.917647059,25.3208028 L37.3941176,13.4913376 C38.0823529,13.2638479 38.7705882,13.7188273 39,14.4012965 C38.7705882,14.4012965 38.7705882,14.4012965 38.7705882,14.6287862 Z" id="Path"></path>
            <path d="M32,28.8413483 C32,30.4170844 32,31.7677154 32,33.3434515 C32,33.7936618 31.7730496,34.2438721 31.3191489,34.4689773 L1.58865248,44.3736043 C0.907801418,44.5987095 0.226950355,44.1484991 0,43.4731837 C0,43.2480785 0,43.2480785 0,43.0229733 L0,38.5208701 C0,38.0706598 0.226950355,37.6204495 0.453900709,37.3953443 L30.1843972,27.4907173 C30.8652482,27.2656122 31.5460993,27.7158225 31.7730496,28.391138 C32,28.6162431 32,28.8413483 32,28.8413483 Z" id="Path"></path>
            <circle id="Oval" cx="39" cy="3.4321608" r="3"></circle>
            <path d="M52.0707965,18.5699159 L50,13.2893037 C56.2123894,10.3046098 61.5044248,5.94236489 65.6460177,0.432160804 L70.7079646,2.49848733 C68.8672566,5.48318121 66.5663717,8.00869142 64.0353982,10.3046098 L64.0353982,26.3760384 L58.2831858,26.3760384 L58.2831858,14.8964465 C56.2123894,16.0444057 54.1415929,17.1923649 52.0707965,18.5699159 Z M73.0088496,28.9015486 L73.0088496,24.7688955 L79.2212389,24.7688955 L79.2212389,28.9015486 L101.309735,28.9015486 L101.309735,33.7229771 L78.9911504,33.7229771 L78.9911504,45.4321608 L72.7787611,45.4321608 L72.7787611,33.7229771 L50.6902655,33.7229771 L50.6902655,28.9015486 L73.0088496,28.9015486 Z M82.9026549,24.7688955 C78.7610619,24.7688955 76.920354,23.1617526 76.920354,19.9474669 L76.920354,17.4219567 C74.619469,18.1107322 72.3185841,19.0290996 70.0176991,19.7178751 L66.3362832,15.3556302 C70.0176991,14.4372628 73.4690265,13.2893037 76.6902655,12.1413445 L76.6902655,1.35052815 L82.4424779,1.35052815 L82.4424779,9.84542611 C87.0442478,8.00869142 91.4159292,5.48318121 95.3274336,2.49848733 L99.4690265,6.17195672 C94.1769912,9.84542611 88.4247788,13.0597118 82.4424779,15.3556302 L82.4424779,19.0290996 C82.4424779,19.9474669 83.1327434,20.4066506 84.2831858,20.4066506 L92.1061947,20.4066506 C93.0265487,20.4066506 93.9469027,20.1770588 94.8672566,19.7178751 C95.7876106,18.1107322 96.4778761,16.2739975 96.2477876,14.4372628 L102,16.0444057 C101.539823,20.4066506 100.389381,22.9321608 99.2389381,23.8505282 C97.3982301,24.7688955 95.3274336,25.2280792 93.4867257,24.9984873 L82.9026549,24.7688955 Z" id="Shape"></path>
            <path d="M108.073913,24.8737852 L106,19.3915517 C111.76087,14.1377446 116.13913,7.74180547 118.904348,0.432160804 L124.665217,2.71642476 C123.282609,6.3712471 121.43913,9.79764304 119.134783,12.9956126 L119.134783,45.2037344 L113.143478,45.2037344 L113.143478,20.0768309 C111.530435,21.904242 109.917391,23.5032268 108.073913,24.8737852 Z M137.108696,5.68596791 L137.108696,0.889013596 L143.330435,0.889013596 L143.330435,5.68596791 L157.617391,5.68596791 L157.617391,10.2544958 L143.330435,10.2544958 L143.330435,14.8230237 L155.313043,14.8230237 L155.313043,19.8484045 L143.330435,19.8484045 L143.330435,24.4169324 L159,24.4169324 C159,31.9550034 158.308696,36.5235314 156.926087,38.1225161 C155.082609,39.9499273 152.317391,40.8636329 149.552174,40.6352065 L147.247826,40.6352065 L145.634783,36.0666786 L148.169565,36.0666786 C150.243478,36.0666786 151.626087,35.6098258 152.317391,34.6961202 C153.008696,32.868709 153.23913,30.8128715 153.23913,28.9854603 L143.330435,28.9854603 L143.330435,45.4321608 L137.108696,45.4321608 L137.108696,28.9854603 L122.591304,28.9854603 L122.591304,24.188506 L137.108696,24.188506 L137.108696,19.8484045 L126.278261,19.8484045 L126.278261,15.0514501 L136.878261,15.0514501 L136.878261,10.4829222 L123.973913,10.4829222 L123.973913,5.91439431 L137.108696,5.91439431 L137.108696,5.68596791 Z" id="Shape"></path>
            <path d="M173.754237,12.8936993 L173.754237,7.35523773 C171.237288,7.58600696 168.720339,7.81677619 166.20339,8.04754542 L165.059322,3.20139157 C171.694915,2.73985311 178.330508,1.81677619 184.966102,0.432160804 L187.025424,5.27831465 C184.737288,5.73985311 182.449153,6.20139157 179.932203,6.66293003 L179.932203,13.1244685 L187.025424,13.1244685 L187.025424,17.9706223 L179.932203,17.9706223 L179.932203,19.586007 C182.90678,21.4321608 185.881356,23.7398531 189.084746,26.0475454 L185.652542,30.4321608 C183.364407,28.1244685 181.533898,26.0475454 179.932203,24.66293 L179.932203,45.4321608 L173.754237,45.4321608 L173.754237,25.1244685 C171.694915,29.2783147 168.949153,32.9706223 165.745763,36.4321608 L163,30.66293 C167.118644,27.2013916 170.550847,22.8167762 172.838983,17.9706223 L164.830508,17.9706223 L164.830508,13.1244685 L173.754237,13.1244685 L173.754237,12.8936993 Z M217,31.1244685 L211.737288,31.8167762 L211.737288,45.2013916 L205.788136,45.2013916 L205.788136,32.5090839 L188.855932,34.8167762 L187.711864,29.9706223 L205.559322,27.4321608 L205.559322,0.432160804 L211.508475,0.432160804 L211.508475,26.5090839 L215.855932,26.0475454 L217,31.1244685 Z M202.813559,21.4321608 L198.466102,25.1244685 C195.491525,22.3552377 192.059322,19.8167762 188.627119,17.7398531 L192.745763,14.2783147 C196.40678,16.3552377 199.610169,18.66293 202.813559,21.4321608 L202.813559,21.4321608 Z M204.415254,9.89369927 L200.29661,13.3552377 C197.322034,10.586007 194.118644,8.27831465 190.457627,6.4321608 L194.576271,2.73985311 C198.008475,4.81677619 201.211864,7.1244685 204.415254,9.89369927 L204.415254,9.89369927 Z" id="Shape"></path>
            <path d="M223.004202,44.7433853 L221.617647,40.1515486 C223.004202,40.3811404 224.390756,40.3811404 225.777311,40.3811404 C226.701681,40.6107322 227.62605,39.9219567 227.62605,39.0035894 C227.62605,38.7739975 227.62605,38.7739975 227.62605,38.5444057 L227.62605,28.6719567 C225.546218,29.3607322 223.697479,29.8199159 221.617647,30.5086914 L220,25.457671 C222.542017,24.9984873 225.084034,24.3097118 227.62605,23.6209363 L227.62605,13.5188955 L221.155462,13.5188955 L221.155462,8.69746693 L227.62605,8.69746693 L227.62605,0.432160804 L233.634454,0.432160804 L233.634454,8.69746693 L239.180672,8.69746693 L239.180672,13.5188955 L233.634454,13.5188955 L233.634454,21.5546098 C235.483193,20.8658343 237.331933,20.1770588 239.180672,19.2586914 L239.180672,24.3097118 C237.331933,25.2280792 235.483193,25.9168547 233.634454,26.6056302 L233.634454,39.6923649 C233.634454,43.1362424 231.785714,44.7433853 227.857143,44.7433853 L223.004202,44.7433853 Z M254.201681,6.86073223 L254.201681,0.432160804 L260.210084,0.432160804 L260.210084,6.86073223 L273.613445,6.86073223 L273.613445,11.6821608 L260.210084,11.6821608 L260.210084,18.3403241 L271.302521,18.3403241 L271.302521,22.702569 C269.453782,27.7535894 266.44958,32.1158343 262.289916,35.5597118 C266.218487,37.8556302 270.609244,39.6923649 275,41.0699159 L271.995798,45.202569 C267.142857,43.5954261 262.521008,41.2995077 258.130252,38.5444057 C253.277311,41.5290996 247.962185,43.8250179 242.415966,45.4321608 L239.642857,41.2995077 C244.726891,40.1515486 249.579832,38.085222 253.970588,35.5597118 C249.810924,32.3454261 246.806723,27.9831812 245.189076,22.9321608 L242.184874,22.9321608 L242.184874,18.1107322 L254.432773,18.1107322 L254.432773,11.6821608 L241.029412,11.6821608 L241.029412,6.86073223 L254.201681,6.86073223 Z M257.89916,32.5750179 C261.134454,30.0495077 263.676471,26.6056302 265.294118,22.9321608 L250.504202,22.9321608 C252.121849,26.835222 254.663866,30.0495077 257.89916,32.5750179 L257.89916,32.5750179 Z" id="Shape"></path>
        </g>
    </g>
</svg>