<?xml version="1.0" encoding="UTF-8"?>
<svg width="47px" height="53px" viewBox="0 0 47 53" version="1.1" xmlns="http://www.w3.org/2000/svg" xmlns:xlink="http://www.w3.org/1999/xlink">
    <title>logo_play</title>
    <defs>
        <linearGradient x1="50%" y1="0%" x2="50%" y2="38.9125982%" id="linearGradient-1">
            <stop stop-color="#FBDA09" offset="0%"></stop>
            <stop stop-color="#FFBC00" offset="100%"></stop>
        </linearGradient>
        <path d="M44.8366829,23.6130801 C47.6354243,25.2185147 47.6360651,27.8211084 44.8366829,29.4269571 L5.10426221,52.2192187 C2.3055207,53.8246998 0.0366924169,52.495696 0.0366924169,49.2490877 L0.0366924169,3.79169573 C0.0366924169,0.545856581 2.30487998,-0.784321717 5.10426221,0.821480272 L44.8366829,23.6130801 Z" id="path-2"></path>
        <linearGradient x1="37.7261854%" y1="58.4755255%" x2="54.7392845%" y2="39.0830098%" id="linearGradient-4">
            <stop stop-color="#01E2FF" offset="0%"></stop>
            <stop stop-color="#01C4FF" offset="100%"></stop>
        </linearGradient>
        <path d="M44.8366829,23.6130801 C47.6354243,25.2185147 47.6360651,27.8211084 44.8366829,29.4269571 L5.10426221,52.2192187 C2.3055207,53.8246998 0.0366924169,52.495696 0.0366924169,49.2490877 L0.0366924169,3.79169573 C0.0366924169,0.545856581 2.30487998,-0.784321717 5.10426221,0.821480272 L44.8366829,23.6130801 Z" id="path-5"></path>
        <linearGradient x1="20.2810876%" y1="32.1312894%" x2="83.820166%" y2="70.0940438%" id="linearGradient-7">
            <stop stop-color="#28D781" offset="0%"></stop>
            <stop stop-color="#02F076" offset="100%"></stop>
        </linearGradient>
        <path d="M44.8366829,23.6130801 C47.6354243,25.2185147 47.6360651,27.8211084 44.8366829,29.4269571 L5.10426221,52.2192187 C2.3055207,53.8246998 0.0366924169,52.495696 0.0366924169,49.2490877 L0.0366924169,3.79169573 C0.0366924169,0.545856581 2.30487998,-0.784321717 5.10426221,0.821480272 L44.8366829,23.6130801 Z" id="path-8"></path>
        <linearGradient x1="74.4881466%" y1="34.9146529%" x2="10.1079427%" y2="69.0750523%" id="linearGradient-10">
            <stop stop-color="#F2414E" offset="0%"></stop>
            <stop stop-color="#E02554" offset="100%"></stop>
        </linearGradient>
    </defs>
    <g id="Page-1" stroke="none" stroke-width="1" fill="none" fill-rule="evenodd">
        <g id="Desktop-HD-Copy" transform="translate(-228.000000, -1449.000000)">
            <g id="Group-9" transform="translate(203.000000, 1430.000000)">
                <g id="Group-6" transform="translate(25.000000, 19.000000)">
                    <g id="Group-5">
                        <g id="logo_play">
                            <g id="yellow" fill="url(#linearGradient-1)" fill-rule="nonzero">
                                <path d="M44.8366829,23.6130801 C47.6354243,25.2185147 47.6360651,27.8211084 44.8366829,29.4269571 L5.10426221,52.2192187 C2.3055207,53.8246998 0.0366924169,52.495696 0.0366924169,49.2490877 L0.0366924169,3.79169573 C0.0366924169,0.545856581 2.30487998,-0.784321717 5.10426221,0.821480272 L44.8366829,23.6130801 Z" id="path-2"></path>
                            </g>
                            <g id="blue-Clipped">
                                <mask id="mask-3" fill="white">
                                    <use xlink:href="#path-2"></use>
                                </mask>
                                <g id="path-2"></g>
                                <polygon id="blue" fill="url(#linearGradient-4)" fill-rule="nonzero" mask="url(#mask-3)" points="1.11022302e-16 0.16821694 25.8660696 26.096293 -0.334098863 53.0491739"></polygon>
                            </g>
                            <g id="green-Clipped">
                                <mask id="mask-6" fill="white">
                                    <use xlink:href="#path-5"></use>
                                </mask>
                                <g id="path-2"></g>
                                <polygon id="green" fill="url(#linearGradient-7)" fill-rule="nonzero" mask="url(#mask-6)" points="-5.31902523 -5.16945124 25.8629999 26.1038771 35.1337794 17.1841729"></polygon>
                            </g>
                            <g id="red-Clipped">
                                <mask id="mask-9" fill="white">
                                    <use xlink:href="#path-8"></use>
                                </mask>
                                <g id="path-2"></g>
                                <polygon id="red" fill="url(#linearGradient-10)" fill-rule="nonzero" mask="url(#mask-9)" points="25.8672475 26.0979105 40.0598814 40.5255985 -2.33926315 54.9532864"></polygon>
                            </g>
                        </g>
                    </g>
                </g>
            </g>
        </g>
    </g>
</svg>