<svg xmlns="http://www.w3.org/2000/svg" xmlns:xlink="http://www.w3.org/1999/xlink" viewBox="0 0 120.7 35.3"><defs><style>.cls-1{fill:none;}.cls-2{clip-path:url(#clip-path);}</style><clipPath id="clip-path" transform="translate(0 0)"><rect class="cls-1" width="120.6" height="35.1"/></clipPath></defs><g id="Layer_2" data-name="Layer 2"><g id="Layer_1-2" data-name="Layer 1"><g class="cls-2"><path d="M89,.5a30.24,30.24,0,0,0-3.1,3.1c-.4.5-.5.6-.5.9a.75.75,0,0,0,.1.5c0,.1,2.2,2.8,4.8,6.1s4.8,6,4.9,6.2a.78.78,0,0,1-.1,1c-.1.2-2.4,3-5,6.3-4.6,5.8-4.8,5.9-4.8,6.3a1.35,1.35,0,0,0,.5,1l.2.3.3-.3c.8-.8,15.9-17.1,15.9-17.2a9.31,9.31,0,0,0,.1-2.4V10.1l-6-4.8C93,2.6,90.2.4,90.1.4a.75.75,0,0,0-.5-.1c.1-.3-.1-.2-.6.2Z" transform="translate(0 0)"/></g><g class="cls-2"><path d="M109.7,5l-6.2,4.9v2.4c0,2.2,0,2.4-.2,2.6S92,27.2,87.9,31.5l-1.1,1.2.6.6.6.6,8.8-8.2c4.8-4.5,8.9-8.2,9.1-8.3s.4-.2,2.6-.2h2.3l4.9-6.1L120.6,5V4.5a1,1,0,0,0-.3-.8A24.14,24.14,0,0,0,117.1.5c-.5-.4-.6-.5-1-.5-.2,0-.5.3-6.4,5Z" transform="translate(0 0)"/></g><path d="M.3,10.6c-.3.2-.3.3-.3,1.3v1H2.8l.3.3.3.3H7.6v5.2l.2.2c.2.2.2.2,1.3.2h1.1l.2-.2.2-.2V13.5h4.6V24.3l.2.2c.2.2.2.2,1.3.2s1.1,0,1.3-.1.2-.2.2-.3V12l-.4-.4a2.65,2.65,0,0,0-.5-.6c-.6-.5-.2-.5-9-.5-5.5,0-7.9,0-8,.1Z" transform="translate(0 0)"/><path d="M21.7,10.6a3.13,3.13,0,0,0-1.1.8l-.2.4V24.2l.2.2c.2.2.2.2,1.3.2H23l.2-.2.2-.2V20.8l-.3-.3-.4-.2V17.7l.3-.3.3-.3V13.5h9.4v4H23.8l-.2.2-.2.2v2l.2.2.2.2h8.8v1.9c0,2.4-.1,2.2,1.5,2.2,1.1,0,1.1,0,1.3-.2l.2-.2V11.6l-.2-.3a2.65,2.65,0,0,0-.5-.6c-.6-.5-.4-.5-7.1-.5-4.7.3-5.9.3-6.1.4Z" transform="translate(0 0)"/><path d="M37.5,10.7l-.2.2v1c0,1,0,1.2.3,1.4a11.64,11.64,0,0,0,2.8.1h2.7l.3-.3.3-.3h2.4l.3.3.3.3h5.4l.2-.2c.2-.2.2-.2.2-1.3V10.7c-.1-.3,0-.3-7.7-.3h-7l-.3.3Z" transform="translate(0 0)"/><path d="M54.8,10.6c-.4.2-.4,0-.4,6.5,0,6,0,6.1.2,6.4a3.11,3.11,0,0,0,.4.6c.6.5.3.5,6.8.5h6l.2-.2c.2-.2.2-.2.2-1.3s0-1.1-.2-1.3l-.2-.1H57.4V13.9l-.3-.3-.4-.3V10.5h-.9a7.72,7.72,0,0,0-1,.1Z" transform="translate(0 0)"/><path d="M57.4,10.6a8.87,8.87,0,0,0-.1,1.3v1.2l.2.2.2.2h10l.2-.2.2-.2V12c0-1.1,0-1.1-.2-1.3l-.1-.1H62.6a37.77,37.77,0,0,0-5.2,0Z" transform="translate(0 0)"/><path d="M70.3,10.7l-.2.2V24.3l.2.2c.2.2.2.2,1.3.2h1.2c.3-.1.3-.3.3-3V19.2h8.8l.2-.2.2-.2v-2l-.2-.5-.2-.2H73.1V10.9l-.3-.2-.2-.2H70.4l-.1.2Z" transform="translate(0 0)"/><path d="M82.6,10.7l-.2.2v4.8l.3.3.3.3v2.6l-.3.3-.3.3v4.8l.2.2.2.2h1.1c1.1,0,1.1,0,1.3-.2l.2-.2V10.9l-.2-.2c-.2-.2-.3-.2-1.3-.2s-1.1,0-1.3.2Z" transform="translate(0 0)"/><path d="M0,18.9v5.4l.2.1c.2.1.3.2,1.3.2s1.1,0,1.3-.2l.1-.1V14.1l-.3-.3-.3-.3H0v5.4Z" transform="translate(0 0)"/><path d="M43.7,13.8l-.2.2V24.2l.2.2.2.2H45c1.1,0,1.1,0,1.3-.2l.2-.2V13.9l-.2-.2-.2-.2h-2l-.4.3Z" transform="translate(0 0)"/><path d="M106.3,18.2c-.3.2-17.6,16.2-17.5,16.3l.4.4a.83.83,0,0,0,.8.3h.4l6.2-4.9c4.1-3.3,6.2-4.9,6.4-5a1.09,1.09,0,0,1,.5.1c.1.1,3,2.3,6.3,5l6.1,4.9h.4c.4,0,.4,0,.9-.4a20.35,20.35,0,0,0,2.6-2.5c.8-1,.9-1,.9-1.5v-.6l-4.9-6.2L110.9,18h-2.1c-2,0-2.3,0-2.5.2Z" transform="translate(0 0)"/></g></g></svg>