<?xml version="1.0" encoding="utf-8"?>
<!-- Generator: Adobe Illustrator 24.2.1, SVG Export Plug-In . SVG Version: 6.00 Build 0)  -->
<svg version="1.1" id="Layer_1" xmlns="http://www.w3.org/2000/svg" xmlns:xlink="http://www.w3.org/1999/xlink" x="0px" y="0px"
	 viewBox="0 0 278 112" style="enable-background:new 0 0 278 112;" xml:space="preserve">
<style type="text/css">
	.st0{fill:#333333;}
</style>
<g id="Page-1">
	<g id="Supernode" transform="translate(-320.000000, -4563.000000)">
		<g id="matchxsupernode" transform="translate(320.000000, 4563.000000)">
			<g id="Group" transform="translate(2.000000, 93.841709)">
				<path id="Path" class="st0" d="M7.1,10C5.3,9.5,3.7,8.8,3,7.9S1.6,6,1.6,4.8c0-1.4,0.5-2.6,1.6-3.3c1.2-0.9,2.5-1.4,4.1-1.4
					c1.2,0,2.3,0.2,3.2,0.7s1.6,1.2,2.1,1.9c0.5,0.7,0.7,1.6,0.7,2.6H11c0-0.9-0.2-1.9-0.9-2.3C9.4,2.3,8.5,2,7.4,2S5.3,2.3,4.8,2.7
					S3.9,3.9,3.9,4.8c0,0.7,0.2,1.4,0.9,1.9s1.6,0.9,3,1.4c1.4,0.5,2.5,0.9,3.5,1.4s1.4,0.9,1.8,1.6c0.5,0.7,0.7,1.4,0.7,2.3
					c0,1.4-0.5,2.6-1.6,3.3c-1.2,0.9-2.5,1.2-4.4,1.2c-1.2,0-2.3-0.2-3.2-0.7c-0.9-0.5-2.3-0.9-2.8-1.9c-0.5-0.7-0.9-1.6-0.9-2.6
					h2.3c0,0.9,0.5,1.9,1.2,2.3c0.7,0.7,1.8,0.9,3,0.9s2.1-0.2,2.8-0.7c0.7-0.5,0.9-1.2,0.9-1.9c0-0.9-0.2-1.4-0.9-1.9
					C9.7,10.9,8.5,10.4,7.1,10z"/>
				<path id="Path_1_" class="st0" d="M44.7,0.6v11.7c0,1.6-0.5,3-1.6,4c-0.9,0.9-2.3,1.6-4.1,1.6h-0.7c-1.8,0-3.5-0.5-4.6-1.4
					c-1.2-0.9-1.6-2.3-1.6-4.2V0.6h2.3v11.7c0,1.2,0.2,2.1,0.9,2.8c0.7,0.7,1.6,0.9,3,0.9s2.3-0.2,3-0.9c0.7-0.7,0.9-1.6,0.9-2.8
					V0.6H44.7L44.7,0.6z"/>
				<path id="Shape" class="st0" d="M66.5,10.9v6.8h-2.3v-17h6.4c1.8,0,3.5,0.5,4.4,1.4c1.2,0.9,1.6,2.3,1.6,3.7
					c0,1.6-0.5,3-1.6,3.7c-1.2,0.9-2.5,1.4-4.4,1.4H66.5L66.5,10.9z M66.5,9.3h4.1c1.2,0,2.1-0.2,2.8-0.9c0.7-0.7,0.9-1.4,0.9-2.6
					c0-0.9-0.2-1.9-0.9-2.3c-0.7-0.5-1.6-0.9-2.8-0.9h-4.1V9.3z"/>
				<polygon id="Path_2_" class="st0" points="105.4,9.7 98.1,9.7 98.1,15.8 106.8,15.8 106.8,17.7 96,17.7 96,0.6 106.8,0.6 
					106.8,2.5 98.3,2.5 98.3,8.1 105.6,8.1 105.6,9.7 				"/>
				<path id="Shape_1_" class="st0" d="M132.1,10.9H128v7h-2.3v-17h5.8c1.8,0,3.5,0.5,4.4,1.4c1.2,0.9,1.6,2.1,1.6,3.7
					c0,1.2-0.2,2.1-0.9,2.8c-0.7,0.7-1.4,1.4-2.3,1.9l4.1,7.2v-0.2h-2.5L132.1,10.9z M128,9h3.5c1.2,0,2.1-0.2,2.8-0.9
					c0.7-0.7,0.9-1.4,0.9-2.3c0-1.2-0.2-1.9-0.9-2.3c-0.7-0.5-1.6-0.9-2.8-0.9H128V9z"/>
				<polygon id="Path_3_" class="st0" points="169.9,17.7 167.6,17.7 158.8,4.6 158.8,17.7 156.5,17.7 156.5,0.6 158.8,0.6 
					167.6,13.9 167.6,0.6 169.9,0.6 				"/>
				<path id="Shape_2_" class="st0" d="M203.5,9.7c0,1.6-0.2,3-0.9,4.4s-1.4,2.1-2.3,2.8c-1.2,0.7-2.3,0.9-3.7,0.9
					c-1.4,0-2.5-0.2-3.7-0.9c-1.2-0.7-1.8-1.6-2.5-2.8s-0.9-2.6-0.9-4.2V8.8c0-1.6,0.2-3,0.9-4.4c0.5-1.2,1.4-2.3,2.5-2.8
					c1.2-0.7,2.3-0.9,3.7-0.9c1.4,0,2.5,0.2,3.7,0.9s1.8,1.6,2.5,2.8c0.5,1.2,0.9,2.8,0.9,4.4v0.9H203.5z M201.2,8.6
					c0-2.1-0.5-3.5-1.2-4.7c-0.9-1.2-2.1-1.6-3.5-1.6c-1.4,0-2.5,0.5-3.5,1.6s-1.2,2.6-1.4,4.4v1.2c0,1.9,0.5,3.5,1.2,4.7
					c0.7,1.2,2.1,1.6,3.5,1.6c1.4,0,2.5-0.5,3.5-1.6c0.7-1.2,1.2-2.6,1.2-4.7V8.6H201.2z"/>
				<path id="Shape_3_" class="st0" d="M223,17.7v-17h4.8c1.4,0,2.8,0.2,3.9,0.9s2.1,1.6,2.8,2.8c0.7,1.2,0.9,2.6,0.9,4.2v1.2
					c0,1.6-0.2,3-0.9,4.2c-0.7,1.2-1.6,2.1-2.8,2.8c-1.2,0.7-2.5,0.9-4.1,0.9H223z M225.3,2.5v13.3h2.3c1.8,0,3-0.5,4.1-1.6
					c0.9-1.2,1.4-2.6,1.4-4.7V8.6c0-1.9-0.5-3.5-1.4-4.4c-0.9-0.9-2.3-1.6-3.9-1.6H225.3z"/>
				<polygon id="Path_4_" class="st0" points="264.7,9.7 257.3,9.7 257.3,15.8 266.1,15.8 266.1,17.7 255.3,17.7 255.3,0.6 
					266.1,0.6 266.1,2.5 257.6,2.5 257.6,8.1 264.9,8.1 264.9,9.7 				"/>
			</g>
			<path id="Path_5_" class="st0" d="M204.9,1.6c-1.6,1.4-5.7,5.3-7.1,7.1c-0.9,1.2-1.1,1.4-1.1,2.1c0,0.5,0,0.9,0.2,1.2
				c0,0.2,5.1,6.5,11,14.1c6,7.6,11,13.8,11.3,14.3c0.5,0.7,0.5,1.4-0.2,2.3c-0.2,0.5-5.5,6.9-11.5,14.5c-10.6,13.4-11,13.6-11,14.5
				c0,0.7,0.2,1.4,1.1,2.3l0.5,0.7l0.7-0.7c1.8-1.8,36.5-39.4,36.5-39.7c0.2-0.2,0.2-1.8,0.2-5.5v-5.1l-13.8-11.1
				c-7.6-6.2-14-11.3-14.2-11.3c-0.2-0.2-0.7-0.2-1.1-0.2C206.5,0.5,206.1,0.7,204.9,1.6L204.9,1.6z"/>
			<path id="Path_6_" class="st0" d="M252.5,12l-14.2,11.3v5.5c0,5.1,0,5.5-0.5,6c-0.2,0.5-26,28.4-35.4,38.3l-2.5,2.8l1.4,1.4
				l1.4,1.4l20.2-18.9c11-10.4,20.4-18.9,20.9-19.1c0.7-0.5,0.9-0.5,6-0.5h5.3L266.3,26L277.5,12v-1.2c0-0.7,0-0.9-0.7-1.8
				c-1.6-2.1-4.8-5.3-7.4-7.4c-1.1-0.9-1.4-1.2-2.3-1.2C266.7,0.5,266.1,1.1,252.5,12L252.5,12z"/>
			<path id="Path_7_" class="st0" d="M1.1,24.9c-0.7,0.5-0.7,0.7-0.7,3v2.3h3.2h3.2l0.7,0.7l0.7,0.7h4.8h4.8v6v6l0.5,0.5
				c0.5,0.5,0.5,0.5,3,0.5h2.5l0.5-0.5l0.5-0.5v-6v-6h5.3h5.3V44v12.5l0.5,0.5c0.5,0.5,0.5,0.5,3,0.5c2.3,0,2.5,0,3-0.2
				c0.2-0.2,0.5-0.5,0.5-0.7c0-0.2,0-6.7,0-14.3V28.1l-0.9-0.9c-0.2-0.5-0.7-0.9-1.1-1.4c-1.4-1.2-0.5-1.2-20.7-1.2
				C6.9,24.7,1.4,24.7,1.1,24.9L1.1,24.9z"/>
			<path id="Path_8_" class="st0" d="M50.3,24.9c-1.1,0.5-1.8,1.2-2.5,1.8l-0.5,0.9V42v14.3l0.5,0.5c0.5,0.5,0.5,0.5,3,0.5h2.5
				l0.5-0.5l0.5-0.5v-3.9v-3.9l-0.7-0.7l-0.9-0.5v-3v-3l0.7-0.7l0.7-0.7v-4.1v-4.2h10.8h10.8v4.6v4.6H65.5H55.1l-0.5,0.5l-0.5,0.5
				V44v2.3l0.5,0.5l0.5,0.5h10.1h10.1v4.4c0,5.5-0.2,5.1,3.4,5.1c2.5,0,2.5,0,3-0.5l0.5-0.5V41.5V27.2l-0.5-0.7
				c-0.2-0.5-0.7-0.9-1.1-1.4C79.3,24,79.7,24,64.3,24C53.5,24.7,50.8,24.7,50.3,24.9L50.3,24.9z"/>
			<path id="Path_9_" class="st0" d="M86.6,25.1l-0.5,0.5v2.3c0,2.3,0,2.8,0.7,3.2c0.2,0.2,1.8,0.2,6.4,0.2h6.2l0.7-0.7l0.7-0.7h2.8
				h2.8l0.7,0.7l0.7,0.7h6.2h6.2l0.5-0.5c0.5-0.5,0.5-0.5,0.5-3c0-1.4,0-2.5,0-2.8c-0.2-0.7,0-0.7-17.7-0.7H87.3L86.6,25.1
				L86.6,25.1z"/>
			<path id="Path_10_" class="st0" d="M126.4,24.9c-0.9,0.5-0.9,0-0.9,15c0,13.8,0,14.1,0.5,14.8c0.2,0.5,0.7,1.2,0.9,1.4
				c1.4,1.2,0.7,1.2,15.6,1.2h13.8l0.5-0.5c0.5-0.5,0.5-0.5,0.5-3c0-2.3,0-2.5-0.5-3l-0.5-0.2h-11.9h-11.9v-9v-9l-0.7-0.7l-0.9-0.7
				v-3.2v-3.2h-2.1C127.5,24.7,126.6,24.9,126.4,24.9L126.4,24.9z"/>
			<path id="Path_11_" class="st0" d="M132.3,24.9c0,0-0.2,1.4-0.2,3v2.8l0.5,0.5l0.5,0.5h11.5H156l0.5-0.5l0.5-0.5v-2.5
				c0-2.5,0-2.5-0.5-3l-0.2-0.2h-11.9C137.9,24.7,132.3,24.7,132.3,24.9L132.3,24.9z"/>
			<path id="Path_12_" class="st0" d="M162,25.1l-0.5,0.5V41v15.4l0.5,0.5c0.5,0.5,0.5,0.5,3,0.5c1.4,0,2.5,0,2.8,0
				c0.7-0.2,0.7-0.7,0.7-6.9v-5.8h10.1h10.1l0.5-0.5l0.5-0.5v-2.3v-2.3l-0.5-1.2l-0.5-0.5h-10.1h-10.1v-6v-6l-0.7-0.5l-0.5-0.5h-2.5
				h-2.5L162,25.1L162,25.1z"/>
			<path id="Path_13_" class="st0" d="M190.2,25.1l-0.5,0.5v5.5v5.5l0.7,0.7l0.7,0.7v3v3l-0.7,0.7l-0.7,0.7v5.5v5.5l0.5,0.5l0.5,0.5
				h2.5c2.5,0,2.5,0,3-0.5l0.5-0.5V41V25.6l-0.5-0.5c-0.5-0.5-0.7-0.5-3-0.5C190.9,24.7,190.7,24.7,190.2,25.1L190.2,25.1z"/>
			<path id="Path_14_" class="st0" d="M0.5,44v12.5l0.5,0.2c0.5,0.2,0.7,0.5,3,0.5c2.5,0,2.5,0,3-0.5l0.2-0.2V44.7V33l-0.7-0.7
				l-0.7-0.7H3.2H0.5V44L0.5,44z"/>
			<path id="Path_15_" class="st0" d="M100.9,32.3l-0.5,0.5v11.8v11.8l0.5,0.5l0.5,0.5h2.5c2.5,0,2.5,0,3-0.5l0.5-0.5V44.5v-12
				l-0.5-0.5l-0.5-0.5h-2.3h-2.3L100.9,32.3L100.9,32.3z"/>
			<path id="Path_16_" class="st0" d="M244.7,42.4c-0.7,0.5-40.4,37.3-40.2,37.6c0,0,0.5,0.5,0.9,0.9c0.7,0.7,0.9,0.7,1.8,0.7h0.9
				l14.2-11.3c9.4-7.6,14.2-11.3,14.7-11.5c0.2,0,0.7,0,1.1,0.2c0.2,0.2,6.9,5.3,14.5,11.5l14,11.3h0.9c0.9,0,0.9,0,2.1-0.9
				c1.8-1.4,4.4-3.9,6-5.8c1.8-2.3,2.1-2.3,2.1-3.5v-1.4L266.5,56L255.3,42h-4.8C245.8,42,245.1,42,244.7,42.4L244.7,42.4z"/>
		</g>
	</g>
</g>
</svg>
