<?xml version="1.0" encoding="UTF-8"?>
<svg xmlns="http://www.w3.org/2000/svg" xmlns:xlink="http://www.w3.org/1999/xlink" width="47px" height="58px" viewBox="0 0 47 58" version="1.1">
  <title>logo</title>
  <g id="Page-1" stroke="none" stroke-width="1" fill="none" fill-rule="evenodd">
    <g id="Desktop-HD-Copy" transform="translate(-791.000000, -1444.000000)" fill="#333333" fill-rule="nonzero">
      <g id="Group-10" transform="translate(749.000000, 1430.000000)">
        <g id="Group-7" transform="translate(42.000000, 14.000000)">
          <g id="Group-3">
            <path d="M43.00257,50.3757384 C40.5944937,53.8908351 38.10356,57.3843103 34.1707355,57.4575355 C30.3001989,57.5307607 29.0593675,55.1691046 24.6427259,55.1691046 C20.221449,55.1691046 18.8383696,57.3843103 15.1839283,57.5307607 C11.387181,57.6725984 8.50018364,53.7342947 6.07226208,50.2350538 C1.11209407,43.0803198 -2.67370213,30.0050131 2.41779179,21.1810334 C4.93908716,16.7988525 9.45695364,14.0262129 14.3527479,13.9530166 C18.0813552,13.8845193 21.6036594,16.4622473 23.8810762,16.4622473 C26.1619695,16.4622473 30.4372321,13.3673881 34.9318059,13.8213266 C36.813188,13.8989049 42.0934575,14.578054 45.4845227,19.5311318 C45.2165402,19.7069587 39.1818637,23.2115041 39.2554502,30.5126885 C39.3293265,39.2342683 46.9119279,42.1332934 47,42.1727889 C46.9313385,42.3777617 45.7878499,46.3114528 43.00257,50.3757384 Z M25.7314857,4.51959633 C27.7500539,1.99999827 31.1606896,0.125924712 33.9754474,-1.0658141e-13 C34.3350531,3.49984781 33.0132211,7.00452854 31.0609552,9.52994402 C29.1047561,12.0508249 25.9025794,14.0145463 22.7599623,13.7523449 C22.3329305,10.3282428 23.9168814,6.75718389 25.7314857,4.51959633 Z" id="logo"/>
          </g>
        </g>
      </g>
    </g>
  </g>
</svg>
