<?xml version="1.0" encoding="UTF-8"?>
<svg xmlns="http://www.w3.org/2000/svg" xmlns:xlink="http://www.w3.org/1999/xlink" width="276px" height="93px" viewBox="0 0 276 93" version="1.1">
  <title>enlink supernode</title>
  <g id="Page-1" stroke="none" stroke-width="1" fill="none" fill-rule="evenodd">
    <g id="enlink-supernode" fill="#333333" fill-rule="nonzero">
      <g id="Group" transform="translate(2.000000, 74.195980)">
        <path d="M7.11176471,9.96666667 C5.27647059,9.5 3.67058824,8.8 2.98235294,7.86666667 C2.29411765,6.93333333 1.60588235,6 1.60588235,4.83333333 C1.60588235,3.43333333 2.06470588,2.26666667 3.21176471,1.56666667 C4.35882353,0.633333333 5.73529412,0.166666667 7.34117647,0.166666667 C8.48823529,0.166666667 9.63529412,0.4 10.5529412,0.866666667 C11.4705882,1.33333333 12.1588235,2.03333333 12.6176471,2.73333333 C13.0764706,3.43333333 13.3058824,4.36666667 13.3058824,5.3 L11.0117647,5.3 C11.0117647,4.36666667 10.7823529,3.43333333 10.0941176,2.96666667 C9.40588235,2.26666667 8.48823529,2.03333333 7.34117647,2.03333333 C6.19411765,2.03333333 5.27647059,2.26666667 4.81764706,2.73333333 C4.35882353,3.2 3.9,3.9 3.9,4.83333333 C3.9,5.53333333 4.12941176,6.23333333 4.81764706,6.7 C5.50588235,7.16666667 6.42352941,7.63333333 7.8,8.1 C9.17647059,8.56666667 10.3235294,9.03333333 11.2411765,9.5 C12.1588235,9.96666667 12.6176471,10.4333333 13.0764706,11.1333333 C13.5352941,11.8333333 13.7647059,12.5333333 13.7647059,13.4666667 C13.7647059,14.8666667 13.3058824,16.0333333 12.1588235,16.7333333 C11.0117647,17.6666667 9.63529412,17.9 7.8,17.9 C6.65294118,17.9 5.50588235,17.6666667 4.58823529,17.2 C3.67058824,16.7333333 2.29411765,16.2666667 1.83529412,15.3333333 C1.37647059,14.6333333 0.917647059,13.7 0.917647059,12.7666667 L3.21176471,12.7666667 C3.21176471,13.7 3.67058824,14.6333333 4.35882353,15.1 C5.04705882,15.8 6.19411765,16.0333333 7.34117647,16.0333333 C8.48823529,16.0333333 9.40588235,15.8 10.0941176,15.3333333 C10.7823529,14.8666667 11.0117647,14.1666667 11.0117647,13.4666667 C11.0117647,12.5333333 10.7823529,12.0666667 10.0941176,11.6 C9.63529412,10.9 8.48823529,10.4333333 7.11176471,9.96666667 Z" id="Path"/>
        <path d="M45.1941176,0.633333333 L45.1941176,12.3 C45.1941176,13.9333333 44.7352941,15.3333333 43.5882353,16.2666667 C42.6705882,17.2 41.2941176,17.9 39.4588235,17.9 L38.7705882,17.9 C36.9352941,17.9 35.3294118,17.4333333 34.1823529,16.5 C33.0352941,15.5666667 32.5764706,14.1666667 32.5764706,12.3 L32.5764706,0.633333333 L34.8705882,0.633333333 L34.8705882,12.3 C34.8705882,13.4666667 35.1,14.4 35.7882353,15.1 C36.4764706,15.8 37.3941176,16.0333333 38.7705882,16.0333333 C40.1470588,16.0333333 41.0647059,15.8 41.7529412,15.1 C42.4411765,14.4 42.6705882,13.4666667 42.6705882,12.3 L42.6705882,0.633333333 L45.1941176,0.633333333 L45.1941176,0.633333333 Z" id="Path"/>
        <path d="M67.9058824,10.9 L67.9058824,17.6666667 L65.6117647,17.6666667 L65.6117647,0.633333333 L72.0352941,0.633333333 C73.8705882,0.633333333 75.4764706,1.1 76.3941176,2.03333333 C77.5411765,2.96666667 78,4.36666667 78,5.76666667 C78,7.4 77.5411765,8.8 76.3941176,9.5 C75.2470588,10.4333333 73.8705882,10.9 72.0352941,10.9 L67.9058824,10.9 L67.9058824,10.9 Z M67.9058824,9.26666667 L72.0352941,9.26666667 C73.1823529,9.26666667 74.1,9.03333333 74.7882353,8.33333333 C75.4764706,7.63333333 75.7058824,6.93333333 75.7058824,5.76666667 C75.7058824,4.83333333 75.4764706,3.9 74.7882353,3.43333333 C74.1,2.96666667 73.1823529,2.5 72.0352941,2.5 L67.9058824,2.5 L67.9058824,9.26666667 Z" id="Shape"/>
        <polygon id="Path" points="107.364706 9.73333333 100.023529 9.73333333 100.023529 15.8 108.741176 15.8 108.741176 17.6666667 97.9588235 17.6666667 97.9588235 0.633333333 108.741176 0.633333333 108.741176 2.5 100.252941 2.5 100.252941 8.1 107.594118 8.1 107.594118 9.73333333"/>
        <path d="M134.435294,10.9 L130.305882,10.9 L130.305882,17.9 L128.011765,17.9 L128.011765,0.866666667 L133.747059,0.866666667 C135.582353,0.866666667 137.188235,1.33333333 138.105882,2.26666667 C139.252941,3.2 139.711765,4.36666667 139.711765,6 C139.711765,7.16666667 139.482353,8.1 138.794118,8.8 C138.105882,9.5 137.417647,10.2 136.5,10.6666667 L140.629412,17.9 L140.629412,17.6666667 L138.105882,17.6666667 L134.435294,10.9 Z M130.535294,9.03333333 L133.976471,9.03333333 C135.123529,9.03333333 136.041176,8.8 136.729412,8.1 C137.417647,7.4 137.647059,6.7 137.647059,5.76666667 C137.647059,4.6 137.417647,3.9 136.729412,3.43333333 C136.041176,2.96666667 135.123529,2.5 133.976471,2.5 L130.535294,2.5 L130.535294,9.03333333 L130.535294,9.03333333 Z" id="Shape"/>
        <polygon id="Path" points="172.976471 17.6666667 170.682353 17.6666667 161.964706 4.6 161.964706 17.6666667 159.670588 17.6666667 159.670588 0.633333333 161.964706 0.633333333 170.682353 13.9333333 170.682353 0.633333333 172.976471 0.633333333"/>
        <path d="M207.158824,9.73333333 C207.158824,11.3666667 206.929412,12.7666667 206.241176,14.1666667 C205.782353,15.3333333 204.864706,16.2666667 203.947059,16.9666667 C202.8,17.6666667 201.652941,17.9 200.276471,17.9 C198.9,17.9 197.752941,17.6666667 196.605882,16.9666667 C195.458824,16.2666667 194.770588,15.3333333 194.082353,14.1666667 C193.394118,13 193.164706,11.6 193.164706,9.96666667 L193.164706,8.8 C193.164706,7.16666667 193.394118,5.76666667 194.082353,4.36666667 C194.541176,3.2 195.458824,2.03333333 196.605882,1.56666667 C197.752941,0.866666667 198.9,0.633333333 200.276471,0.633333333 C201.652941,0.633333333 202.8,0.866666667 203.947059,1.56666667 C205.094118,2.26666667 205.782353,3.2 206.470588,4.36666667 C206.929412,5.53333333 207.388235,7.16666667 207.388235,8.8 L207.388235,9.73333333 L207.158824,9.73333333 Z M204.864706,8.56666667 C204.864706,6.46666667 204.405882,5.06666667 203.717647,3.9 C202.8,2.73333333 201.652941,2.26666667 200.276471,2.26666667 C198.9,2.26666667 197.752941,2.73333333 196.835294,3.9 C195.917647,5.06666667 195.688235,6.46666667 195.458824,8.33333333 L195.458824,9.5 C195.458824,11.3666667 195.917647,13 196.605882,14.1666667 C197.523529,15.3333333 198.670588,15.8 200.047059,15.8 C201.423529,15.8 202.570588,15.3333333 203.488235,14.1666667 C204.405882,13 204.635294,11.6 204.635294,9.5 L204.635294,8.56666667 L204.864706,8.56666667 Z" id="Shape"/>
        <path d="M227.347059,17.6666667 L227.347059,0.633333333 L232.164706,0.633333333 C233.541176,0.633333333 234.917647,0.866666667 236.064706,1.56666667 C237.211765,2.26666667 238.129412,3.2 238.817647,4.36666667 C239.505882,5.53333333 239.735294,6.93333333 239.735294,8.56666667 L239.735294,9.73333333 C239.735294,11.3666667 239.505882,12.7666667 238.817647,13.9333333 C238.129412,15.1 237.211765,16.0333333 236.064706,16.7333333 C234.917647,17.4333333 233.541176,17.6666667 231.935294,17.6666667 L227.347059,17.6666667 Z M229.641176,2.5 L229.641176,15.8 L231.935294,15.8 C233.770588,15.8 234.917647,15.3333333 236.064706,14.1666667 C237.211765,13 237.441176,11.6 237.441176,9.5 L237.441176,8.56666667 C237.441176,6.7 236.982353,5.06666667 236.064706,4.13333333 C235.147059,3.2 233.770588,2.5 232.164706,2.5 L229.641176,2.5 Z" id="Shape"/>
        <polygon id="Path" points="269.558824 9.73333333 262.217647 9.73333333 262.217647 15.8 270.935294 15.8 270.935294 17.6666667 260.152941 17.6666667 260.152941 0.633333333 270.935294 0.633333333 270.935294 2.5 262.447059 2.5 262.447059 8.1 269.788235 8.1 269.788235 9.73333333"/>
      </g>
      <path d="M0,20.4230069 L44,20.1959799 L44,29.504088 L15.0526316,29.731115 L15.0526316,36.3148988 L42.8421053,36.3148988 C42.8421053,39.4932772 42.8421053,42.6716556 42.8421053,45.850034 L15.0526316,45.850034 L15.2842105,52.8878718 L44,52.8878718 L44,62.1959799 L0,62.1959799 L0,20.4230069 Z" id="Path"/>
      <polygon id="Path" points="52.2307692 20.1959799 65.6153846 20.1959799 86.3846154 41.0824664 86.3846154 20.1959799 100 20.1959799 100 62.1959799 88 62.1959799 66.7692308 40.6284123 66.7692308 62.1959799 52 62.1959799"/>
      <polygon id="Path" points="170 20.1959799 183.449275 20.1959799 204.318841 41.0824664 204.318841 20.1959799 218 20.1959799 218 62.1959799 206.173913 62.1959799 184.84058 40.6284123 184.84058 62.1959799 170 62.1959799"/>
      <polygon id="Path" points="110 20.1959799 123.576642 20.1959799 123.576642 54.5805953 141 54.3498261 141 62.1959799 110.226277 61.9652107"/>
      <polygon id="Path" points="146 20.1959799 160 20.1959799 160 62.1959799 146 62.1959799"/>
      <polygon id="Path" points="230 20.1959799 243.8 20.1959799 243.8 37.3672506 258.98 20.1959799 274.39 20.1959799 256.22 39.6876926 276 62.1959799 259.67 62.1959799 244.03 42.9363114 244.03 62.1959799 230.23 62.1959799"/>
      <circle id="Oval" cx="154" cy="8.1959799" r="8"/>
    </g>
  </g>
</svg>
