<?xml version="1.0"?>
<svg xmlns="http://www.w3.org/2000/svg" viewBox="0 0 120 19.7">
  <defs>
    <style>.cls-1{fill:#70050d;}</style>
  </defs>
  <g id="Layer_2" data-name="Layer 2">
    <g id="Layer_1-2" data-name="Layer 1">
      <path class="cls-1" d="M14.1,1.6v2a.51.51,0,0,1-.4.5L.6,8.5A.56.56,0,0,1,0,8V5.9a.66.66,0,0,1,.4-.5l13-4.3a.57.57,0,0,1,.7.4Z"/>
      <path class="cls-1" d="M16.9,6.2v2a.66.66,0,0,1-.4.5L.7,14a.57.57,0,0,1-.7-.4V11.4a.51.51,0,0,1,.4-.5L16.3,5.7a.57.57,0,0,1,.7.4C16.9,6.1,16.9,6.1,16.9,6.2Z"/>
      <path class="cls-1" d="M14.1,12.6v2a.55.55,0,0,1-.3.5L.7,19.5a.57.57,0,0,1-.7-.4V16.9a.76.76,0,0,1,.2-.5L13.3,12a.57.57,0,0,1,.7.4A.31.31,0,0,1,14.1,12.6Z"/>
      <circle class="cls-1" cx="16.8" cy="1.6" r="1.4"/>
      <path class="cls-1" d="M22.6,7.9l-.9-2.3A18.47,18.47,0,0,0,28.5,0l2.2.9a15.82,15.82,0,0,1-2.9,3.4v7H25.3v-5C24.4,6.8,23.5,7.3,22.6,7.9Zm9.1,4.5V10.6h2.7v1.8H44v2.1H34.3v5.1H31.6V14.5H22V12.4ZM36,10.6c-1.8,0-2.6-.7-2.6-2.1V7.4c-1,.3-2,.7-3,1L28.8,6.5c1.6-.4,3.1-.9,4.5-1.4V.4h2.5V4.1A23.9,23.9,0,0,0,41.4.9l1.8,1.6a35.3,35.3,0,0,1-7.4,4V8.1c0,.4.3.6.8.6H40a2.66,2.66,0,0,0,1.2-.3,3.79,3.79,0,0,0,.6-2.3l2.5.7c-.2,1.9-.7,3-1.2,3.4a4.51,4.51,0,0,1-2.5.5Z"/>
      <path class="cls-1" d="M47.1,10.7l-.9-2.4A21.43,21.43,0,0,0,51.8,0l2.5,1a19.48,19.48,0,0,1-2.4,4.5V19.6H49.3V8.6A14.46,14.46,0,0,1,47.1,10.7ZM59.7,2.3V.2h2.7V2.3h6.2v2H62.4v2h5.2V8.5H62.4v2h6.8q0,5-.9,6a4.07,4.07,0,0,1-3.2,1.1h-1l-.7-2h1.1a2.16,2.16,0,0,0,1.8-.6,7.27,7.27,0,0,0,.4-2.5H62.4v7.2H59.7V12.5H53.4V10.4h6.3V8.5H55V6.4h4.6v-2H54v-2h5.7Z"/>
      <path class="cls-1" d="M75.9,5.6V3.2l-3.3.3-.5-2.1A65,65,0,0,0,80.8.2l.9,2.1c-1,.2-2,.4-3.1.6V5.7h3.1V7.8H78.6v.7c1.3.8,2.6,1.8,4,2.8l-1.5,1.9c-1-1-1.8-1.9-2.5-2.5v9H75.9V10.9a20.9,20.9,0,0,1-3.5,4.9l-1.2-2.5a16.44,16.44,0,0,0,4.3-5.5H72V5.7h3.9Zm18.9,7.9-2.3.3v5.8H89.9V14.1l-7.4,1L82,13l7.8-1.1V.2h2.6V11.5l1.9-.2ZM88.6,9.3l-1.9,1.6a26.66,26.66,0,0,0-4.3-3.2l1.8-1.5a26.86,26.86,0,0,1,4.4,3.1Zm.7-5L87.5,5.8a18.43,18.43,0,0,0-4.3-3L85,1.2a31.08,31.08,0,0,1,4.3,3.1Z"/>
      <path class="cls-1" d="M97.5,19.4l-.6-2a10.87,10.87,0,0,0,1.8.1.64.64,0,0,0,.8-.6V12.4c-.9.3-1.7.5-2.6.8L96.2,11c1.1-.2,2.2-.5,3.3-.8V5.8H96.7V3.7h2.8V.1h2.6V3.7h2.4V5.8h-2.4V9.3a24.43,24.43,0,0,0,2.4-1v2.2a24.43,24.43,0,0,1-2.4,1v5.7c0,1.5-.8,2.2-2.5,2.2ZM111,2.9V.1h2.6V2.9h5.8V5h-5.8V7.9h4.8V9.8a13,13,0,0,1-3.9,5.6,27,27,0,0,0,5.5,2.4l-1.3,1.8a27.66,27.66,0,0,1-6-2.9,27.61,27.61,0,0,1-6.8,3l-1.2-1.8a22.4,22.4,0,0,0,6.2-2.5,11.21,11.21,0,0,1-3.8-5.5h-1.3V7.8h5.3V5h-5.8V2.9Zm1.6,11.2a11,11,0,0,0,3.2-4.2h-6.4a10.27,10.27,0,0,0,3.2,4.2Z"/>
    </g>
  </g>
</svg>
