<?xml version="1.0"?>
<svg xmlns="http://www.w3.org/2000/svg" viewBox="0 0 201 201">
  <defs>
    <style>.cls-1{fill:#606060;}.cls-2{fill:none;stroke:#fff;stroke-miterlimit:10;opacity:0;}</style>
  </defs>
  <g id="Layer_2" data-name="Layer 2">
    <g id="Layer_1-2" data-name="Layer 1">
      <path class="cls-1" d="M162.73,160.66a7.37,7.37,0,0,1-4.14-13.47l.16-.11a7.53,7.53,0,0,1,1.45-.72l.39-.13a9,9,0,0,1,.93-.22,8,8,0,0,1,1.21-.1,7.41,7.41,0,0,1,1.88.25.12.12,0,0,1,.09.16.13.13,0,0,1-.16.1,7.36,7.36,0,0,0-1.81-.23,7.46,7.46,0,0,0-1.16.09,8.44,8.44,0,0,0-.9.21l-.37.13a7.06,7.06,0,0,0-1.43.71l-.12.08a7.1,7.1,0,1,0,8.08,11.67.14.14,0,0,1,.19,0,.13.13,0,0,1,0,.19A7.35,7.35,0,0,1,162.73,160.66Z"/>
      <path class="cls-1" d="M168,158.36a.11.11,0,0,1-.09,0,.13.13,0,0,1,0-.19,8.12,8.12,0,0,0,.69-.86,7.3,7.3,0,0,0,.79-1.55c0-.12.09-.24.12-.36a7.32,7.32,0,0,0,.21-.9,6.52,6.52,0,0,0,.1-1.17,7.1,7.1,0,0,0-3.68-6.22.14.14,0,1,1,.14-.24,7.38,7.38,0,0,1,3.81,6.46,6.89,6.89,0,0,1-.1,1.21,7.93,7.93,0,0,1-.21.94c0,.13-.09.25-.13.38a7.67,7.67,0,0,1-.83,1.61,7.49,7.49,0,0,1-.71.89A.13.13,0,0,1,168,158.36Z"/>
      <g id="Layer_2-2" data-name="Layer 2">
        <g id="Layer_1-2-2" data-name="Layer 1-2">
          <path class="cls-1" d="M167.24,149.08a.81.81,0,0,1-.12.42l-.48.84a1.09,1.09,0,0,0-.53-.8,1.18,1.18,0,0,0-.55-.14.93.93,0,0,0-.4.09l.48-.84a.85.85,0,0,1,.74-.43.92.92,0,0,1,.43.11A.88.88,0,0,1,167.24,149.08Z"/>
          <path class="cls-1" d="M166.41,150.5a.57.57,0,0,1,0,.18.27.27,0,0,1,0,.12.61.61,0,0,1,0,.12h0l-.37.62,0,0h0l0,5.83h-1.8v-2.66l-1.27,2.14H162l-1.27-2.05v2.57h-1.8v-5.84h1.62l1.6,2.62.08.12.07.12.07-.11,2.44-4.24,0-.05a.76.76,0,0,1,.39-.34.85.85,0,0,1,.78,0,.84.84,0,0,1,.41.66A.22.22,0,0,1,166.41,150.5Z"/>
        </g>
      </g>
      <path class="cls-1" d="M172.12,153.92A9.41,9.41,0,0,1,154.61,158l-.12-.22a8.64,8.64,0,0,1-.79-1.91,4.43,4.43,0,0,1-.13-.49,8.25,8.25,0,0,1-.2-1.21,9.24,9.24,0,0,1,.44-3.92.17.17,0,1,1,.33.11,8.89,8.89,0,0,0-.42,3.77,7.51,7.51,0,0,0,.19,1.17,4.21,4.21,0,0,0,.12.48,9.37,9.37,0,0,0,.79,1.88l.09.16a9.06,9.06,0,0,0,16.86-4,9,9,0,0,0-1.3-5.32.17.17,0,0,1,.06-.24.18.18,0,0,1,.24,0A9.45,9.45,0,0,1,172.12,153.92Z"/>
      <path class="cls-1" d="M169.65,147a.14.14,0,0,1-.06.12.16.16,0,0,1-.24,0,8.41,8.41,0,0,0-1-.94A8.82,8.82,0,0,0,166.4,145l-.45-.19a9.15,9.15,0,0,0-1.13-.34,8.13,8.13,0,0,0-1.48-.22,9.07,9.07,0,0,0-8.23,4.15.18.18,0,0,1-.24,0,.17.17,0,0,1-.06-.24,9.43,9.43,0,0,1,8.55-4.31,8.67,8.67,0,0,1,1.54.23,7.91,7.91,0,0,1,1.17.36l.48.19a9.3,9.3,0,0,1,2,1.19,10,10,0,0,1,1.07,1A.18.18,0,0,1,169.65,147Z"/>
      <path class="cls-1" d="M173.63,81.51a7.38,7.38,0,0,1-7.37-7.37,7.29,7.29,0,0,1,.62-3,.1.1,0,0,1,.19.08,7.1,7.1,0,0,0-.6,2.87,7.16,7.16,0,0,0,13.09,4,7.45,7.45,0,0,0,.81-1.56l.12-.37a7.06,7.06,0,0,0,.21-.91,6.56,6.56,0,0,0,.1-1.18,7.09,7.09,0,0,0-2-4.93.1.1,0,0,1,0-.15.1.1,0,0,1,.14,0,7.35,7.35,0,0,1,2,5.08,8.25,8.25,0,0,1-.1,1.22c-.06.31-.13.62-.22.93,0,.13-.08.26-.13.38a7,7,0,0,1-.83,1.61A7.34,7.34,0,0,1,173.63,81.51Z"/>
      <path class="cls-1" d="M167.34,70.61h-.05a.1.1,0,0,1,0-.14A7.41,7.41,0,0,1,169.49,68l.13-.08a7.14,7.14,0,0,1,1.49-.74l.38-.13a7.39,7.39,0,0,1,.93-.22,7,7,0,0,1,1.21-.1,7.3,7.3,0,0,1,4.49,1.53.1.1,0,0,1,0,.14.1.1,0,0,1-.15,0A7.07,7.07,0,0,0,173.63,67a7.59,7.59,0,0,0-1.17.09,8.63,8.63,0,0,0-.91.22l-.37.12a7.23,7.23,0,0,0-1.47.74l-.1.06a7.31,7.31,0,0,0-2.18,2.35A.11.11,0,0,1,167.34,70.61Z"/>
      <path class="cls-1" d="M177.82,75.63A35.64,35.64,0,0,1,174,77.42h-.05l-.76.29h0c-.85,0-1.64-.08-2.38-.16l.46-.12c.89-.26,1.77-.55,2.63-.89l.05,0c.44-.17,1-.39,1.58-.66h0C176.36,75.82,177.12,75.73,177.82,75.63Z"/>
      <path class="cls-1" d="M177.82,72.56h0a31.79,31.79,0,0,1-3.83,1.9l-.69.28-.06,0h-.09c-.81,0-1.59,0-2.35-.07.74-.22,1.48-.47,2.2-.75l1-.4c.44-.19.87-.38,1.3-.59h0l.62-.06A19.38,19.38,0,0,0,177.82,72.56Z"/>
      <path class="cls-1" d="M176.07,70.43h0c-.77.42-1.48.76-2.06,1l-1.14.49h0c-.72,0-1.41-.08-2.06-.15l1.27-.46c.65-.25,1.29-.52,1.93-.81l.18-.09a14.72,14.72,0,0,0,1.89,0Z"/>
      <path class="cls-1" d="M177.86,75.79A4.32,4.32,0,0,1,177.1,77a5,5,0,0,1-.58.55,4.14,4.14,0,0,1-2.53.86h-2.57l.75-.23q.53-.16,1.05-.36l.82-.3,0,0A32.52,32.52,0,0,0,177.86,75.79Z"/>
      <path class="cls-1" d="M178.16,74.19v.27h0c-.7.39-1.42.75-2.14,1.09l-.4.18q-.81.38-1.65.69l-.06,0c-.9.35-1.82.66-2.74.93l-.35.1V75.71c.82-.24,1.65-.52,2.45-.82l.06,0,.72-.28a34.58,34.58,0,0,0,3.86-1.91A4.31,4.31,0,0,1,178.16,74.19Z"/>
      <path class="cls-1" d="M177.41,71.74l-.89.48c-.05,0-.44.24-.87.45l-.36.17c-.44.21-.89.41-1.34.6l-1,.41c-.7.27-1.41.52-2.13.74V72.81c.52-.17,1-.35,1.55-.55l.25-.1.22-.08,0,0,1.17-.5c.72-.33,1.42-.68,2.09-1l.38.26h0A4.46,4.46,0,0,1,177.41,71.74Z"/>
      <path class="cls-1" d="M174.81,70l-.67.32-.19.09c-.64.29-1.3.57-2,.83-.38.15-.78.29-1.17.43V69.93H174a4.17,4.17,0,0,1,.71.06Z"/>
      <path class="cls-1" d="M183,74.77a9.41,9.41,0,0,1-17.51,4.12l-.12-.21a9.62,9.62,0,0,1-.79-1.91c0-.17-.09-.33-.13-.5a9.54,9.54,0,0,1-.2-1.21,8.89,8.89,0,0,1,0-1.55,9.4,9.4,0,0,1,.46-2.36.17.17,0,0,1,.22-.11.16.16,0,0,1,.11.22,9.7,9.7,0,0,0-.45,2.28,9.25,9.25,0,0,0,0,1.49,9,9,0,0,0,.19,1.16c0,.16.08.32.12.48a9.13,9.13,0,0,0,.79,1.88l.09.17a9.06,9.06,0,1,0,15.56-9.3.17.17,0,0,1,.3-.18A9.35,9.35,0,0,1,183,74.77Z"/>
      <path class="cls-1" d="M180.55,67.84a.21.21,0,0,1-.05.12.18.18,0,0,1-.25,0,9.38,9.38,0,0,0-1-1,8.71,8.71,0,0,0-1.9-1.14l-.46-.19a9.21,9.21,0,0,0-1.13-.35,9,9,0,0,0-1.48-.22A9.07,9.07,0,0,0,166,69.25a.17.17,0,0,1-.24,0,.18.18,0,0,1-.06-.24,9.43,9.43,0,0,1,8.56-4.31,10.84,10.84,0,0,1,1.53.23,12.33,12.33,0,0,1,1.18.36l.47.2a9.3,9.3,0,0,1,2,1.19,10,10,0,0,1,1.07,1A.17.17,0,0,1,180.55,67.84Z"/>
      <path class="cls-1" d="M67.33,183a7.37,7.37,0,0,1-4.14-13.47l.16-.11a7.54,7.54,0,0,1,1.45-.72c.13,0,.25-.09.38-.12a5.84,5.84,0,0,1,.94-.22,6.89,6.89,0,0,1,1.21-.1,7.38,7.38,0,0,1,7.37,7.37,6.89,6.89,0,0,1-.1,1.21,7.54,7.54,0,0,1-.22.94c0,.13-.08.26-.13.38a7,7,0,0,1-.82,1.61A7.39,7.39,0,0,1,67.33,183Zm-3.9-13.3-.09.06a7.1,7.1,0,1,0,9.86,9.86A7.35,7.35,0,0,0,74,178l.12-.37a6.91,6.91,0,0,0,.21-.9,7.49,7.49,0,0,0,.1-1.17,7.11,7.11,0,0,0-7.1-7.1,6.45,6.45,0,0,0-1.17.1,6.91,6.91,0,0,0-.9.21l-.37.12a6.61,6.61,0,0,0-1.43.72Z"/>
      <path class="cls-1" d="M76.72,176.22a9.41,9.41,0,0,1-17.52,4.12l-.12-.21a9.62,9.62,0,0,1-.79-1.91c0-.17-.09-.33-.13-.5a9.54,9.54,0,0,1-.2-1.21,8.9,8.9,0,0,1,0-1.55,9.14,9.14,0,0,1,.47-2.37.18.18,0,0,1,.22-.11.19.19,0,0,1,.11.23,8.79,8.79,0,0,0-.45,2.27,8.33,8.33,0,0,0,0,1.5,9,9,0,0,0,.19,1.16c0,.16.08.32.13.48a9.1,9.1,0,0,0,.78,1.88l.1.16a9.06,9.06,0,1,0,15.55-9.29.17.17,0,1,1,.3-.18A9.36,9.36,0,0,1,76.72,176.22Z"/>
      <path class="cls-1" d="M74.24,169.29a.16.16,0,0,1,0,.11.18.18,0,0,1-.25,0,10.26,10.26,0,0,0-1-1A9.5,9.5,0,0,0,71,167.3l-.46-.18a8.56,8.56,0,0,0-1.12-.35,9.1,9.1,0,0,0-9.72,3.93.17.17,0,0,1-.29-.19A9.41,9.41,0,0,1,68,166.2a9.26,9.26,0,0,1,2.71.59l.47.19a9.91,9.91,0,0,1,2,1.19,9.19,9.19,0,0,1,1.08,1A.15.15,0,0,1,74.24,169.29Z"/>
      <path class="cls-1" d="M70.93,177a30.74,30.74,0,0,1-3.83,1.79l0,0-.76.29h0c-.85,0-1.64-.08-2.38-.16l.45-.12c.89-.26,1.77-.55,2.63-.89l.06,0c.44-.17,1-.39,1.58-.66h0C69.47,177.22,70.24,177.13,70.93,177Z"/>
      <path class="cls-1" d="M70.93,174h0a30.37,30.37,0,0,1-3.83,1.9l-.69.28-.06,0h-.08c-.81,0-1.6,0-2.35-.07.74-.22,1.47-.47,2.2-.75l1-.4c.44-.19.88-.38,1.3-.59h0q.31,0,.63-.06A18.67,18.67,0,0,0,70.93,174Z"/>
      <path class="cls-1" d="M69.19,171.83h0c-.77.42-1.48.76-2.06,1s-.86.37-1.13.48h0c-.73,0-1.41-.07-2.06-.14l1.27-.46q1-.37,1.92-.81l.19-.09a14.56,14.56,0,0,0,1.88,0Z"/>
      <path class="cls-1" d="M71,177.19a4.32,4.32,0,0,1-.76,1.25,5,5,0,0,1-.58.55,4.14,4.14,0,0,1-2.53.86H64.54l.75-.23,1-.36.82-.3,0,0A32.52,32.52,0,0,0,71,177.19Z"/>
      <path class="cls-1" d="M71.28,175.59v.27h0c-.7.39-1.42.75-2.14,1.09l-.4.18q-.81.38-1.65.69l-.06,0c-.9.35-1.82.66-2.74.93l-.35.1v-1.77c.82-.24,1.65-.52,2.45-.82l.06,0,.72-.28A34.58,34.58,0,0,0,71,174.07,4.31,4.31,0,0,1,71.28,175.59Z"/>
      <path class="cls-1" d="M70.53,173.14l-.89.48s-.44.24-.87.45l-.36.17c-.44.21-.89.41-1.34.6l-1,.41c-.7.27-1.41.52-2.13.74v-1.78c.52-.17,1-.35,1.55-.55l.25-.1.22-.08,0,0,1.17-.5c.72-.33,1.42-.68,2.09-1l.38.26h0A4.46,4.46,0,0,1,70.53,173.14Z"/>
      <path class="cls-1" d="M67.93,171.41l-.67.32-.19.09c-.64.29-1.3.57-2,.83-.38.15-.78.29-1.17.43v-1.75h3.19a4.17,4.17,0,0,1,.71.06Z"/>
      <path class="cls-1" d="M102.16,32.78a7.38,7.38,0,0,1-6.27-11.26.08.08,0,0,1,.12,0,.08.08,0,0,1,0,.12,7.19,7.19,0,0,0,11.29,8.79.09.09,0,0,1,.13,0,.09.09,0,0,1,0,.12A7.4,7.4,0,0,1,102.16,32.78Z"/>
      <path class="cls-1" d="M107.76,30.16l-.06,0a.09.09,0,0,1,0-.13,5.84,5.84,0,0,0,.42-.56,6.88,6.88,0,0,0,.81-1.57c0-.12.09-.24.12-.37a7.52,7.52,0,0,0,.22-.91,7.85,7.85,0,0,0,.09-1.19,7.2,7.2,0,0,0-7.19-7.2,7.62,7.62,0,0,0-1.18.1,6.84,6.84,0,0,0-.92.21l-.37.13a6.94,6.94,0,0,0-1.49.75l-.08.06a7,7,0,0,0-1.53,1.39.09.09,0,0,1-.14-.11A7.37,7.37,0,0,1,98,19.31l.1-.07a7.63,7.63,0,0,1,1.51-.76l.38-.12a5.84,5.84,0,0,1,.94-.22,6.89,6.89,0,0,1,1.21-.1,7.38,7.38,0,0,1,7.37,7.37,6.89,6.89,0,0,1-.1,1.21,7.54,7.54,0,0,1-.22.94c0,.13-.08.26-.13.38a7,7,0,0,1-.82,1.61c-.14.2-.28.39-.44.58A.07.07,0,0,1,107.76,30.16Z"/>
      <path class="cls-1" d="M105.16,23.22a1.52,1.52,0,0,1,.29,1.38,1.35,1.35,0,0,1-.4.72,1.47,1.47,0,0,1-.57.33.08.08,0,0,0,0,.15,1.4,1.4,0,0,1,.48.58,1.61,1.61,0,0,1,.07.95,1.7,1.7,0,0,1-.85,1.22,2.39,2.39,0,0,1-1.44.17.08.08,0,0,0-.1.06l-.21,1a.09.09,0,0,1-.1.07l-.43-.09a.09.09,0,0,1-.06-.11l.2-.95a.09.09,0,0,0-.06-.1l-.58-.13a.09.09,0,0,0-.11.07l-.2.95a.09.09,0,0,1-.11.07l-.42-.09a.09.09,0,0,1-.06-.11l.2-.95a.09.09,0,0,0-.07-.1l-1.73-.37a.09.09,0,0,1-.06-.11L99,27a.09.09,0,0,1,.1-.07l.8.17h0a.55.55,0,0,0,.63-.42l.69-3.23a.53.53,0,0,0-.39-.63h0l-.79-.17a.09.09,0,0,1-.07-.11l.15-.71a.09.09,0,0,1,.11-.07l1.73.38a.09.09,0,0,0,.1-.07l.21-1a.08.08,0,0,1,.1-.07l.42.09a.09.09,0,0,1,.07.11l-.21.95a.09.09,0,0,0,.07.1l.58.13a.08.08,0,0,0,.1-.07l.21-.95a.09.09,0,0,1,.1-.07l.42.09a.09.09,0,0,1,.07.11l-.21,1a.1.1,0,0,0,.06.11A2.38,2.38,0,0,1,105.16,23.22Zm-.82,1.21a.74.74,0,0,0-.12-.7,1,1,0,0,0-.35-.25.09.09,0,0,0-.12.06L103.44,25c0,.05,0,.1.08.1a.92.92,0,0,0,.41-.1A.8.8,0,0,0,104.34,24.43Zm-.42,2.66a.86.86,0,0,0-.59-1.12.09.09,0,0,0-.12.06l-.36,1.69a.09.09,0,0,0,.08.11,1,1,0,0,0,.57-.12A.9.9,0,0,0,103.92,27.09Zm-.75-3.71a.09.09,0,0,0-.07-.11l-.58-.12a.08.08,0,0,0-.1.06l-.34,1.54a.09.09,0,0,0,.07.11l.58.12a.08.08,0,0,0,.1-.07Zm-.55,2.51a.08.08,0,0,0-.07-.1l-.57-.13a.09.09,0,0,0-.11.07l-.37,1.72a.08.08,0,0,0,.07.1l.58.13a.09.09,0,0,0,.1-.07Z"/>
      <path class="cls-1" d="M111.55,26A9.41,9.41,0,0,1,94,30.16L93.91,30A9.62,9.62,0,0,1,93.12,28c-.05-.17-.09-.33-.13-.5a9.54,9.54,0,0,1-.2-1.21,9.46,9.46,0,0,1,.45-3.91.16.16,0,0,1,.22-.11.17.17,0,0,1,.11.22,8.79,8.79,0,0,0-.45,2.27,8.33,8.33,0,0,0,0,1.5,9,9,0,0,0,.19,1.16c0,.16.08.32.13.48a9.1,9.1,0,0,0,.78,1.88l.1.16a9.06,9.06,0,1,0,15.55-9.29.17.17,0,1,1,.3-.18A9.36,9.36,0,0,1,111.55,26Z"/>
      <path class="cls-1" d="M109.07,19.11a.16.16,0,0,1,0,.11.18.18,0,0,1-.25,0,10.26,10.26,0,0,0-1-.95,9.5,9.5,0,0,0-1.91-1.15l-.45-.18a9.21,9.21,0,0,0-1.13-.35,9.1,9.1,0,0,0-9.72,3.93.17.17,0,0,1-.24.05.18.18,0,0,1-.05-.24A9.41,9.41,0,0,1,102.79,16a9.86,9.86,0,0,1,1.54.23,12.14,12.14,0,0,1,1.17.36l.47.2A9.42,9.42,0,0,1,108,18,9.19,9.19,0,0,1,109,19,.15.15,0,0,1,109.07,19.11Z"/>
      <path class="cls-1" d="M25.14,88a7.27,7.27,0,0,1-4-1.19,7.35,7.35,0,0,1-2.68-3.06.11.11,0,0,1,.05-.14.11.11,0,0,1,.14,0,7.17,7.17,0,0,0,12.42,1,7,7,0,0,0,.8-1.57,3.22,3.22,0,0,0,.12-.37,7,7,0,0,0,.22-.9,7.72,7.72,0,0,0,.09-1.18,7.11,7.11,0,0,0-2.15-5.12.1.1,0,0,1,0-.14.11.11,0,0,1,.15,0,7.29,7.29,0,0,1,2.21,5.26,6.89,6.89,0,0,1-.1,1.21,6.39,6.39,0,0,1-.22.94l-.12.38a7.92,7.92,0,0,1-.83,1.61A7.39,7.39,0,0,1,25.14,88Z"/>
      <path class="cls-1" d="M18.28,83.17a.12.12,0,0,1-.1-.07A7.38,7.38,0,0,1,21,74.57l.12-.09a7.66,7.66,0,0,1,1.49-.74l.38-.13c.31-.09.62-.16.94-.22a8,8,0,0,1,1.21-.1,7.27,7.27,0,0,1,4.44,1.5.1.1,0,0,1-.12.16,7.11,7.11,0,0,0-4.32-1.45,6.56,6.56,0,0,0-1.18.1,7.06,7.06,0,0,0-.91.21l-.37.12a7,7,0,0,0-1.47.75l-.09.06A7.14,7.14,0,0,0,18,80.67a7,7,0,0,0,.4,2.36.1.1,0,0,1-.07.13Z"/>
      <g id="Layer_2-3" data-name="Layer 2">
        <g id="Layer_1-2-3" data-name="Layer 1-2">
          <path class="cls-1" d="M29.65,76.9a.81.81,0,0,1-.12.42l-.48.84a1.09,1.09,0,0,0-.53-.8,1.18,1.18,0,0,0-.55-.14.93.93,0,0,0-.4.09l.48-.84a.85.85,0,0,1,.74-.43.92.92,0,0,1,.43.11A.88.88,0,0,1,29.65,76.9Z"/>
          <path class="cls-1" d="M28.82,78.32a.57.57,0,0,1,0,.18.27.27,0,0,1,0,.12.61.61,0,0,1-.05.12h0l-.37.62,0,0h0l0,5.83h-1.8V82.61l-1.27,2.14h-.87l-1.27-2v2.57h-1.8V79.43h1.62l1.6,2.62.08.12.07.12.07-.11,2.44-4.24,0,0a.76.76,0,0,1,.39-.34.85.85,0,0,1,.78,0,.84.84,0,0,1,.41.66A.22.22,0,0,1,28.82,78.32Z"/>
        </g>
      </g>
      <path class="cls-1" d="M34.53,81.3A9.41,9.41,0,0,1,17,85.42l-.12-.22a8.88,8.88,0,0,1-.8-1.91c-.05-.16-.09-.33-.13-.5a9.69,9.69,0,0,1-.2-1.2,10,10,0,0,1,0-1.55,9.49,9.49,0,0,1,.47-2.37.17.17,0,0,1,.33.11,8.78,8.78,0,0,0-.45,2.28,9.25,9.25,0,0,0,0,1.49,8.92,8.92,0,0,0,.19,1.17c0,.16.08.32.13.47a8.69,8.69,0,0,0,.79,1.89l.09.16a9.06,9.06,0,0,0,16.86-4A9,9,0,0,0,32.87,76a.18.18,0,0,1,.06-.24.17.17,0,0,1,.24.05A9.37,9.37,0,0,1,34.53,81.3Z"/>
      <path class="cls-1" d="M32.06,74.36a.23.23,0,0,1-.06.12.18.18,0,0,1-.25,0,8.32,8.32,0,0,0-1-.94,9.06,9.06,0,0,0-1.91-1.15c-.14-.07-.3-.13-.45-.19a9.15,9.15,0,0,0-1.13-.34,8.13,8.13,0,0,0-1.48-.22,9,9,0,0,0-8.24,4.15.17.17,0,0,1-.29-.19,9.43,9.43,0,0,1,8.55-4.31,8.8,8.8,0,0,1,1.54.23,8.3,8.3,0,0,1,1.17.36l.47.19a8.83,8.83,0,0,1,2,1.19,9.18,9.18,0,0,1,1.08,1A.24.24,0,0,1,32.06,74.36Z"/>
      <rect class="cls-2" x="0.5" y="0.5" width="200" height="200"/>
    </g>
  </g>
</svg>
