<?xml version="1.0"?>
<svg xmlns="http://www.w3.org/2000/svg" viewBox="0 0 1160.89 214.36">
  <defs>
    <style>.cls-1{isolation:isolate;}.cls-2{fill:#58595b;}.cls-3{fill:#134a8f;}.cls-4{fill:#028ece;}.cls-5{fill:#b0b3b5;mix-blend-mode:multiply;}.cls-6{fill:#e02a28;}</style>
  </defs>
  <g class="cls-1">
    <g id="Layer_2" data-name="Layer 2">
      <g id="&#xB808;&#xC774;&#xC5B4;_1" data-name="&#xB808;&#xC774;&#xC5B4; 1">
        <path class="cls-2" d="M235.65,97.59c-6.8-1.88-13.84-3.81-13.92-6.91a7.86,7.86,0,0,1,2.06-5.83c2-2,5.43-3,10-3,4.95,0,8.52,1.14,10.58,3.37a7.55,7.55,0,0,1,2,5.34,7.81,7.81,0,0,0,8,8.81,8.32,8.32,0,0,0,8.52-8.48A23,23,0,0,0,256.37,74c-5.2-5.24-13.44-8.25-22.56-8.25-17.27,0-28.89,9.93-28.89,24.74,0,15.28,15.21,19.64,27.43,23.14,6.89,2,14,4,15.55,7.37.6,1.3.41,3-.58,5.18-1.46,3.25-7.61,5.81-14,5.81-4.77,0-8.89-1.44-11.29-3.91a10.46,10.46,0,0,1-2.75-7.94A8.32,8.32,0,0,0,217,114.1a8.71,8.71,0,0,0-6.18-2.5,8.46,8.46,0,0,0-6.2,2.57,7.91,7.91,0,0,0-2,6c-.22,7.6,2.17,14.23,6.93,19.15,5.5,5.69,14.12,9,23.64,9,10.23,0,19.83-3.71,25.64-9.93a22.07,22.07,0,0,0,6-16.93C263.76,105.35,247.51,100.87,235.65,97.59Z"/>
        <path class="cls-2" d="M322.29,131.3H285.7V113.86h33.64c5.6,0,8.53-4,8.53-7.88s-3-7.94-8.53-7.94H285.7V82.4h35.43c5.61,0,8.63-4.11,8.63-8s-3-7.84-8.73-7.84H272a2.78,2.78,0,0,0-2.77,2.77v74.91A2.76,2.76,0,0,0,272,147h50.34a8.38,8.38,0,0,0,.86,0,7.59,7.59,0,0,0,7.78-7.88A7.69,7.69,0,0,0,322.29,131.3Z"/>
        <path class="cls-2" d="M373.93,64.52c-4.18,0-8.4,2.85-8.4,8.28v48c0,10-6.27,11.12-8.95,11.12-3.84,0-7-1.94-7.51-3.8-.46-1.52-.66-7-.67-9.08a7.62,7.62,0,0,0-1.9-5.92,8.24,8.24,0,0,0-6.13-2.56,8.56,8.56,0,0,0-6.22,2.56,7.72,7.72,0,0,0-2.07,5.79v.34a59.72,59.72,0,0,0,.86,13c2.27,9.09,12.27,15.69,23.8,15.69,12.6,0,25.31-8.34,25.31-27V73a7.6,7.6,0,0,0-1.91-5.89A8.33,8.33,0,0,0,373.93,64.52Z"/>
        <path class="cls-2" d="M424.29,65.69c-10.28,0-19.23,3.61-25.88,10.46C390.79,84,386.62,95.77,387,108.53c.77,22.88,16.46,39.49,37.3,39.49,21.49,0,36.87-16.37,37.38-39.81.35-12.81-3.75-24.59-11.25-32.28C443.89,69.23,434.85,65.69,424.29,65.69Zm0,66c-12,0-19.61-8.81-20.39-23.6-.4-8.12,2.09-15.86,6.66-20.65a18.17,18.17,0,0,1,13.73-5.64c5.71,0,10.34,1.76,13.77,5.24,4.44,4.51,6.83,11.95,6.71,21C444.59,122.4,436.55,131.69,424.29,131.69Z"/>
        <path class="cls-2" d="M520.37,64.46a8.07,8.07,0,0,0-8.23,8.45v40.66L484.38,70.43c-2.31-3.64-6-5.91-9.68-5.91-4.09,0-8.18,2.93-8.18,9.48v66.3a8.26,8.26,0,1,0,16.52,0V98.89L511.59,143c2.25,3.45,6,5.67,9.53,5.67s7.54-2.31,7.54-8.76v-67A8.2,8.2,0,0,0,520.37,64.46Z"/>
        <path class="cls-2" d="M601.27,100.82H572.08c-5.72,0-8.71,4-8.71,7.91s3,7.92,8.71,7.92h15.43v4.47c-.85,1.8-7.13,10.57-17.91,10.57-16.27,0-19.21-15.06-19.5-24-.33-8.78,2-16.4,6.34-20.91,3.28-3.4,7.73-5.11,13.26-5.11,15.23,0,16.43,9.37,16.43,9.45A8.69,8.69,0,0,0,601,96.68a7.82,7.82,0,0,0,1.95-6.08,28.13,28.13,0,0,0-5-12.7c-4.1-5.76-12.38-12.61-28.65-12.3-11.7.23-21.34,5.2-27.84,14.36-5.31,7.48-8.27,17.33-8.32,27.77-.05,12.23,3.88,23,11.08,30.19,6.44,6.47,15.13,9.9,25.13,9.9a33.94,33.94,0,0,0,19.92-6.5l.46,1.93c1.09,4.31,4.32,7.31,7.85,7.31,2.81,0,6.2-2.1,6.5-8.18V103.59A2.76,2.76,0,0,0,601.27,100.82Z"/>
        <path class="cls-2" d="M664.75,97.59c-6.77-1.88-13.83-3.81-13.89-6.91a7.77,7.77,0,0,1,2-5.83c2-2,5.43-3,10-3,5,0,8.51,1.14,10.58,3.37a7.5,7.5,0,0,1,2,5.34,7.81,7.81,0,0,0,8,8.81A8.33,8.33,0,0,0,692,90.84,23.05,23.05,0,0,0,685.5,74c-5.21-5.24-13.43-8.25-22.57-8.25-17.28,0-28.89,9.93-28.89,24.74,0,15.28,15.21,19.64,27.43,23.14,6.9,2,14,4,15.55,7.37.61,1.3.41,3-.57,5.18-1.46,3.25-7.62,5.81-14,5.81-4.76,0-8.89-1.44-11.29-3.91a10.55,10.55,0,0,1-2.76-7.94,8.2,8.2,0,0,0-2.26-6.08,8.66,8.66,0,0,0-6.16-2.5,8.49,8.49,0,0,0-6.2,2.57,7.87,7.87,0,0,0-2,6c-.21,7.6,2.17,14.23,6.93,19.15,5.51,5.69,14.12,9,23.64,9,10.23,0,19.83-3.71,25.64-9.93a22.11,22.11,0,0,0,6-16.93C692.88,105.35,676.63,100.87,664.75,97.59Z"/>
        <path class="cls-2" d="M733.79,65.69c-10.29,0-19.24,3.61-25.88,10.46-7.63,7.83-11.78,19.62-11.41,32.38C697.26,131.41,713,148,733.79,148c21.5,0,36.87-16.37,37.4-39.81.34-12.81-3.79-24.59-11.27-32.28C753.39,69.23,744.35,65.69,733.79,65.69Zm0,66c-12,0-19.6-8.81-20.39-23.6-.42-8.12,2.09-15.86,6.66-20.65a18.16,18.16,0,0,1,13.73-5.64c5.7,0,10.33,1.76,13.77,5.24,4.44,4.51,6.83,11.95,6.73,21C754.09,122.4,746,131.69,733.79,131.69Z"/>
        <path class="cls-2" d="M824.5,130.81h-32V72.87a7.43,7.43,0,0,0-1.81-5.9,8.28,8.28,0,0,0-6.26-2.68c-4.21,0-8.46,2.86-8.46,8.32v71.25a2.77,2.77,0,0,0,2.77,2.78H824.6a8.81,8.81,0,0,0,6.35-2.38,7.53,7.53,0,0,0,2.3-5.49C833.25,134.82,830.25,130.81,824.5,130.81Z"/>
        <path class="cls-2" d="M885.05,64.2a8.21,8.21,0,0,0-8.36,8.41v46.61c0,7.53-2.41,12.18-14.35,12.18-12.39,0-14-6.56-14-12.28V72.61A8.21,8.21,0,0,0,840,64.2a8,8,0,0,0-8.16,8.41v46.8c0,17.73,11.08,28,30.37,28.11h.24c10.61,0,18.76-2.94,24.25-8.77a24.2,24.2,0,0,0,6.49-16.46V72.61A8,8,0,0,0,885.05,64.2Z"/>
        <path class="cls-2" d="M954.58,66.47h-48.2a8.84,8.84,0,0,0-6.4,2.45,7.79,7.79,0,0,0-2.3,5.57c0,3.94,3,7.91,8.7,7.91h15.94v58a8,8,0,0,0,8.15,8.48,8.25,8.25,0,0,0,8.37-8.48V82.31h15.74a8.15,8.15,0,0,0,8.59-8,7.57,7.57,0,0,0-2.27-5.45A8.79,8.79,0,0,0,954.58,66.47Z"/>
        <path class="cls-2" d="M1019.85,131.3h-36.6V113.86h33.66c5.59,0,8.52-4,8.52-7.88s-3-7.94-8.52-7.94H983.25V82.4h35.43c5.6,0,8.63-4.11,8.63-8a7.53,7.53,0,0,0-2.32-5.48,8.87,8.87,0,0,0-6.4-2.36H969.51a2.78,2.78,0,0,0-2.77,2.77v74.91a2.76,2.76,0,0,0,2.77,2.77h50.34a8.13,8.13,0,0,0,.84,0,7.59,7.59,0,0,0,7.8-7.88A7.7,7.7,0,0,0,1019.85,131.3Z"/>
        <path class="cls-2" d="M1088.48,108.58c-4.41,0-7.69,3-8.37,7.76a.23.23,0,0,0,0,.11c-.11.85-2.23,15.44-17.14,15.44-11.59,0-16.87-12.83-16.87-24.77,0-12.58,5.8-25.32,16.87-25.32,12.5,0,15.41,10.63,15.5,11a9.55,9.55,0,0,0,9.37,7.3,7.73,7.73,0,0,0,6.34-2.88,7.11,7.11,0,0,0,1-6.28c-.63-3-6.11-25-32.24-25.18h-.46A29,29,0,0,0,1041.16,75c-7.89,8.17-12.33,20.86-11.85,34,.81,19.38,11.56,39,33.73,39.08h.15c11.52,0,20.92-5,27.18-14.49a44.9,44.9,0,0,0,6.36-15.79,6.76,6.76,0,0,0-1.24-5.86A8.9,8.9,0,0,0,1088.48,108.58Zm-25.29,36.67Z"/>
        <path class="cls-2" d="M1152.68,64.73a8.15,8.15,0,0,0-8.29,8.37V98H1116V73.1a8,8,0,0,0-8.19-8.4,8.19,8.19,0,0,0-8.33,8.4v67.59a8,8,0,0,0,8.18,8.45,8.21,8.21,0,0,0,8.34-8.45V113.77h28.43v26.92a8.26,8.26,0,1,0,16.5,0V73.1A8,8,0,0,0,1152.68,64.73Z"/>
        <path class="cls-3" d="M100,87.14c2.93,1.28,5.34,4.52,5.34,7.24v35.16c0,2.73-2.41,3.92-5.34,2.63L5.35,91.46C2.39,90.19,0,88.89,0,86.15V51.9c0-2.72,2.39-6.75,5.35-5.47Z"/>
        <path class="cls-4" d="M100,48.06c2.93-1.27,5.34-4.51,5.34-7.22V5.67c0-2.73-2.41-3.9-5.34-2.63L5.35,43.75C2.39,45,0,48.26,0,51V86.15c0,2.74,2.39,3.91,5.35,2.64Z"/>
        <path class="cls-3" d="M157.84,62.83c0-3.2-2-6.68-4.52-7.77L121,41.15c-2.5-1.08-4.53.66-4.53,3.87l-.09,103c0,3.22,2,6.69,4.53,7.78l32.3,13.92c2.51,1.08,4.52-.66,4.53-3.86Z"/>
        <path class="cls-4" d="M100.21,136.19c3-1.26,5.35-4.5,5.35-7.22V93.8c0-2.72-2.4-3.9-5.35-2.63L5.53,131.88C2.59,133.16.19,136.4.19,139.12v35.17c0,2.72,2.4,3.9,5.34,2.63Z"/>
        <path class="cls-4" d="M152.49,173.12c2.95-1.26,5.35-4.51,5.35-7.22V130.72c0-2.71-2.4-3.89-5.35-2.62L57.82,168.8c-3,1.28-5.35,4.51-5.35,7.25v35.16c0,2.72,2.39,3.91,5.35,2.64Z"/>
        <path class="cls-5" d="M5.35,88.79l48.93-21,.31-.14L67.09,73,3.69,89.3l.24-.09A7.46,7.46,0,0,0,5.35,88.79Z"/>
        <path class="cls-5" d="M99.16,91.37,52.69,111.45l-.32.15-12.51-5.39L100.8,90.86l-.23.1A5.84,5.84,0,0,0,99.16,91.37Z"/>
        <polygon class="cls-5" points="153.48 127.73 116.41 138.94 116.41 143.55 153.48 127.73"/>
        <path class="cls-6" d="M158.28,43.08A7.06,7.06,0,0,1,151,49.84L122.55,37.17a7.06,7.06,0,0,1-7.33-6.77V6.75C115.22,3,118.5,0,122.55,0L151,12.67a7,7,0,0,1,7.32,6.75Z"/>
      </g>
    </g>
  </g>
</svg>
