<svg xmlns="http://www.w3.org/2000/svg" viewBox="0 0 115.4 29.8"><defs><style>.cls-1{fill:#132de8;}</style></defs><g id="Layer_2" data-name="Layer 2"><g id="Layer_1-2" data-name="Layer 1"><polygon class="cls-1" points="46.4 5.2 46.4 7.6 47.9 7.6 47.9 5.2 51.6 5.2 51.6 3.7 47.9 3.7 47.9 1.4 46.4 1.4 46.4 3.7 39.5 3.7 39.5 1.4 38 1.4 38 3.7 34.2 3.7 34.2 5.2 38 5.2 38 7.6 39.5 7.6 39.5 5.2 46.4 5.2"/><polygon class="cls-1" points="41.5 9.4 40 9.4 40 28 41.5 28 48.7 28 48.7 26.5 41.5 26.5 41.5 9.4"/><polygon class="cls-1" points="44.9 24.8 46.4 24.8 45.1 8.7 43.6 8.7 44.9 24.8"/><polygon class="cls-1" points="49.6 9.4 48.1 9.4 50.6 28 52.1 28 49.6 9.4"/><polygon class="cls-1" points="34.7 28 36.2 28 37.5 9.4 36 9.4 34.7 28"/><polygon class="cls-1" points="58.2 25.4 58.2 6.6 59.3 6.6 59.3 5.1 58.2 5.1 58.2 1.2 56.7 1.2 56.7 5.1 55.6 5.1 55.6 6.6 56.7 6.6 56.7 25.7 55 26.2 55 27.7 60 26.4 60 24.9 57.5 25.5 58.2 25.4"/><path class="cls-1" d="M64.4,23.4h1.5V7.3H60.7V23.4h3.7ZM62.2,8.8h2.2V21.9H62.2Z"/><polygon class="cls-1" points="72.7 29.1 70.8 18.3 72.7 8.7 71.2 8.7 70.1 14.4 68.4 5.1 72.1 5.1 72.1 3.7 72.1 3.6 72.1 2.3 70.6 2.3 70.6 3.6 68.1 3.6 67.8 1.8 66.3 1.8 66.6 3.6 60.1 3.6 60.1 5.1 66.9 5.1 69.3 18.3 67.5 27.3 69 27.3 70 22.2 71.3 29.1 72.7 29.1"/><polygon class="cls-1" points="60.9 27.9 66.3 26.7 66.3 25.2 60.9 26.4 60.9 27.9"/><path class="cls-1" d="M9.7,25.8l.2-.6h0L15.5,4.3A10.43,10.43,0,0,0,16.1.8C16,.4,15.7.2,15,.2H13.7L7,25.3H2.3L9.1,0H0V29.8H9.9A4.87,4.87,0,0,1,9.7,25.8Z"/><path class="cls-1" d="M19.8,0A4.59,4.59,0,0,1,20,3.9l-.2.6h0L14.2,25.4a10.43,10.43,0,0,0-.6,3.5c.1.4.4.6,1.1.6h1.5L22.9,4.4h4.6L20.7,29.8h9.1V0Z"/><path class="cls-1" d="M75.9,4.3H78l-2.4,8.8,1.2.3V28.8h6.4V9.6H78.1l1.4-5.4h4.7V2.8H75.9Zm5.8,6.8V27.2H78.4V11.1Z"/><polygon class="cls-1" points="94.7 3.5 90.5 3.5 90.5 1.5 89 1.5 89 3.5 86.5 3.5 85 3.5 85 5 85 29.2 86.5 29.2 86.5 5 94.7 5 94.7 3.5"/><polygon class="cls-1" points="104.9 27.7 104.9 6 108 5.5 108 19.2 109.5 19.2 109.5 5.2 112.3 4.7 112.3 21.3 109.5 21.3 109.5 22.8 113.8 22.8 113.8 21.3 113.8 21.3 113.8 4.5 113.8 3.6 113.8 3 109.5 3.7 109.5 1 108 1 108 4 104.9 4.5 104.9 2.5 103.4 2.5 103.4 4.8 102.2 5 102.2 6.5 103.4 6.3 103.4 29.2 104.9 29.2 115.4 29.2 115.4 27.7 104.9 27.7"/><polygon class="cls-1" points="101.3 7.3 97.3 1.8 95.8 1.8 99.8 7.3 101.3 7.3"/><polygon class="cls-1" points="96.6 7.3 100.6 12.8 102.1 12.8 98.1 7.3 96.6 7.3"/><polygon class="cls-1" points="95.6 29 97 29 101 15 99.5 15 95.6 29"/></g></g></svg>