<?xml version="1.0"?>
<svg xmlns="http://www.w3.org/2000/svg" viewBox="0 0 119.7 27">
  <defs>
    <style>.cls-1{fill:#e60012;}</style>
  </defs>
  <g id="Layer_2" data-name="Layer 2">
    <g id="Layer_1-2" data-name="Layer 1">
      <path class="cls-1" d="M0,8.5l19-.1v4.1l-12.5.1v2.9h12v4.2H6.5l.1,3.1H19v4.1H0Z"/>
      <path class="cls-1" d="M22.7,8.4h5.8l9,9.2V8.4h5.9V26.9H38.2L29,17.4v9.5H22.6Z"/>
      <path d="M73.7,8.4h5.8l9,9.2V8.4h5.9V26.9H89.3l-9.2-9.5v9.5H73.7Z"/>
      <path d="M47.6,8.6h6V23.5l7.7-.1v3.4l-13.6-.1Z"/>
      <path d="M63.3,8.8h6V27h-6Z"/>
      <path d="M99.7,8.8h6v7.4l6.6-7.4H119l-7.9,8.4,8.6,9.7h-7.1l-6.8-8.3v8.3h-6Z"/>
      <circle class="cls-1" cx="66.7" cy="3.4" r="3.4"/>
    </g>
  </g>
</svg>
